<?xml version="1.0" encoding="utf-8"?>
<!-- Generator: Adobe Illustrator 27.5.0, SVG Export Plug-In . SVG Version: 6.00 Build 0)  -->
<svg version="1.1" id="katman_1" xmlns="http://www.w3.org/2000/svg" xmlns:xlink="http://www.w3.org/1999/xlink" x="0px" y="0px"
	 viewBox="0 0 841.89 595.28" style="enable-background:new 0 0 841.89 595.28;" xml:space="preserve">
<style type="text/css">
	.st0{clip-path:url(#SVGID_00000152961488048635900920000011179590270170782621_);}
	.st1{fill:#010202;}
	.st2{fill:#54B262;}
</style>
<g>
	<defs>
		<rect id="SVGID_1_" x="78.05" y="195.9" width="685.95" height="202.99"/>
	</defs>
	<clipPath id="SVGID_00000027582871460896655190000014172749857775157914_">
		<use xlink:href="#SVGID_1_"  style="overflow:visible;"/>
	</clipPath>
	<g style="clip-path:url(#SVGID_00000027582871460896655190000014172749857775157914_);">
		<path class="st1" d="M146.23,398.88c-37.52,0-68.18-29.61-68.18-73.1v-0.55c0-40.49,27.76-73.1,65.55-73.1
			c40.45,0,63.42,33.95,63.42,71.19c0,5.71-4.49,9.79-9.52,9.79H98.66c2.9,30.43,23.77,47.54,48.11,47.54
			c16.91,0,29.33-6.78,39.38-16.29c1.6-1.37,3.43-2.43,5.82-2.43c5.03,0,8.99,4.07,8.99,8.97c0,2.43-1.06,4.89-3.16,6.78
			C184.85,390.47,169.5,398.88,146.23,398.88z M186.68,317.64c-2.13-25.53-16.38-47.81-43.61-47.81c-23.8,0-41.75,20.4-44.41,47.81
			H186.68z"/>
		<path class="st1" d="M361.42,326.06v-0.55c0-39.67,30.13-73.38,71.37-73.38c40.98,0,71.11,33.16,71.11,72.83v0.55
			c0,39.67-30.4,73.38-71.64,73.38C391.28,398.88,361.42,365.72,361.42,326.06z M483,326.06v-0.55c0-30.15-21.94-54.9-50.74-54.9
			c-29.6,0-49.97,24.71-49.97,54.35v0.55c0,30.15,21.67,54.62,50.47,54.62C462.39,380.13,483,355.69,483,326.06z"/>
		<path class="st1" d="M521.35,358.4v-84.77h-11.12c-4.76,0-8.99-4.35-8.99-9.24c0-5.17,4.23-9.24,8.99-9.24h11.12v-33.16
			c0-5.71,4.23-10.61,10.05-10.61c5.56,0,10.32,4.89,10.32,10.61v33.16h35.42c5.03,0,9.25,4.35,9.25,9.24
			c0,5.17-4.23,9.24-9.25,9.24h-35.42v82.07c0,17.11,9.25,23.37,23,23.37c7.13,0,10.82-1.92,12.42-1.92c4.76,0,8.72,4.07,8.72,8.97
			c0,3.8-2.37,6.81-5.83,8.15c-5.82,2.43-12.15,3.8-20.08,3.8C537.99,398.07,521.35,386.94,521.35,358.4z"/>
		<path class="st1" d="M660.9,398.88c-37.55,0-68.21-29.61-68.21-73.1v-0.55c0-40.49,27.76-73.1,65.55-73.1
			c40.45,0,63.42,33.95,63.42,71.19c0,5.71-4.49,9.79-9.52,9.79H613.3c2.9,30.43,23.77,47.54,48.11,47.54
			c16.91,0,29.33-6.78,39.38-16.29c1.6-1.37,3.43-2.43,5.82-2.43c5.03,0,8.99,4.07,8.99,8.97c0,2.43-1.06,4.89-3.16,6.78
			C699.52,390.47,684.17,398.88,660.9,398.88z M701.35,317.64c-2.1-25.53-16.38-47.81-43.61-47.81c-23.8,0-41.78,20.4-44.41,47.81
			H701.35z"/>
		<path class="st1" d="M743.66,206.51c0-5.71,4.49-10.61,10.05-10.61c5.82,0,10.32,4.89,10.32,10.61v179.88
			c0,5.99-4.23,10.61-10.05,10.61c-5.82,0-10.32-4.62-10.32-10.61V206.51z"/>
		<path class="st2" d="M338.18,398.73c-9.22,0.06-16.94-6.53-18.83-15.87c-1.89-9.33-5.5-17.84-11.74-25.02
			c-12.54-14.44-34.18-14.38-46.66,0.15c-6,7.02-9.67,15.26-11.47,24.35c-1.86,9.3-9.2,16.2-17.98,16.47
			c-9.7,0.3-17.59-5.68-19.75-15.29c-2.51-11.12,4.61-21.79,15.82-24.07c10.26-2.1,19.54-6.6,26.49-14.92
			c10.41-12.49,8.81-30.85-3.34-41.52c-6.92-6.08-14.96-9.76-23.77-11.61c-9.4-1.98-15.79-10.06-15.67-20.15
			c0.12-9.24,7.07-17.3,16.17-18.78c10.44-1.7,19.81,5.35,22.03,16.2c2.07,10.15,6.18,19.36,13.63,26.63
			c12.06,11.73,30.66,11.58,42.75-0.18c1.06-1.03,2.42-2.01,3.81-2.43c3.05-0.97,6.21,0.52,7.75,3.25c1.63,2.89,1.21,6.32-1.21,8.82
			c-3.64,3.74-6.27,8.12-7.48,13.25c-2.93,12.68,0.86,23.1,10.61,31.22c6.68,5.56,14.46,8.75,22.83,10.61
			c9.22,2.04,15.67,10.46,15.26,20.03c-0.41,9.82-7.42,17.69-16.88,18.94C339.78,398.83,338.98,398.73,338.18,398.73z"/>
		<path class="st2" d="M357.34,271.92c0,11.06-8.46,19.7-19.28,19.7c-10.61,0-19.01-8.78-18.98-19.82
			c0-10.85,8.49-19.51,19.13-19.54C348.85,252.2,357.34,260.95,357.34,271.92z"/>
	</g>
</g>
</svg>
