<svg width="769" height="381" viewBox="0 0 769 381" fill="none" xmlns="http://www.w3.org/2000/svg">
<mask id="mask0_382_20" style="mask-type:alpha" maskUnits="userSpaceOnUse" x="0" y="0" width="769" height="381">
<rect x="0.540527" y="0.554932" width="768" height="380" fill="white"/>
</mask>
<g mask="url(#mask0_382_20)">
<rect opacity="0.3" x="71.4014" y="20.5264" width="626.278" height="340.057" rx="40" fill="url(#paint0_radial_382_20)" fill-opacity="0.7" stroke="url(#paint1_linear_382_20)" stroke-width="0.5"/>
<rect opacity="0.5" x="139.087" y="57.2781" width="490.908" height="266.553" rx="40" fill="url(#paint2_radial_382_20)" fill-opacity="0.7" stroke="url(#paint3_linear_382_20)" stroke-width="0.5"/>
<path d="M577.677 133.45C577.677 114.673 562.455 99.4502 543.677 99.4502H387.776V289.054H543.677C562.455 289.054 577.677 273.831 577.677 255.054V133.45Z" fill="url(#paint4_radial_382_20)" fill-opacity="0.7"/>
<path d="M578.177 133.45C578.177 114.396 562.731 98.9502 543.677 98.9502H387.776V99.9502H543.677C562.179 99.9502 577.177 114.949 577.177 133.45H578.177ZM387.776 289.554H543.677C562.731 289.554 578.177 274.108 578.177 255.054H577.177C577.177 273.555 562.179 288.554 543.677 288.554H387.776V289.554ZM543.677 289.554C562.731 289.554 578.177 274.108 578.177 255.054V133.45C578.177 114.396 562.731 98.9502 543.677 98.9502V99.9502C562.179 99.9502 577.177 114.949 577.177 133.45V255.054C577.177 273.555 562.179 288.554 543.677 288.554V289.554ZM387.776 99.4502V289.054V99.4502Z" fill="url(#paint5_linear_382_20)"/>
<g style="mix-blend-mode:plus-lighter" filter="url(#filter0_f_382_20)">
<path d="M191.153 133.45C191.153 114.535 206.487 99.2004 225.403 99.2004H381.304V99.7004H225.403C206.763 99.7004 191.653 114.811 191.653 133.45H191.153ZM381.304 289.304H225.403C206.487 289.304 191.153 273.97 191.153 255.054H191.653C191.653 273.694 206.763 288.804 225.403 288.804H381.304V289.304ZM225.403 289.304C206.487 289.304 191.153 273.97 191.153 255.054V133.45C191.153 114.535 206.487 99.2004 225.403 99.2004V99.7004C206.763 99.7004 191.653 114.811 191.653 133.45V255.054C191.653 273.694 206.763 288.804 225.403 288.804V289.304ZM381.304 99.4504V289.054V99.4504Z" fill="url(#paint6_linear_382_20)"/>
</g>
<g filter="url(#filter1_i_382_20)">
<path d="M191.403 133.45C191.403 114.673 206.625 99.4504 225.403 99.4504H381.304V289.054H225.403C206.625 289.054 191.403 273.832 191.403 255.054V133.45Z" fill="url(#paint7_linear_382_20)" fill-opacity="0.7"/>
</g>
<path d="M191.153 133.45C191.153 114.535 206.487 99.2004 225.403 99.2004H381.304V99.7004H225.403C206.763 99.7004 191.653 114.811 191.653 133.45H191.153ZM381.304 289.304H225.403C206.487 289.304 191.153 273.97 191.153 255.054H191.653C191.653 273.694 206.763 288.804 225.403 288.804H381.304V289.304ZM225.403 289.304C206.487 289.304 191.153 273.97 191.153 255.054V133.45C191.153 114.535 206.487 99.2004 225.403 99.2004V99.7004C206.763 99.7004 191.653 114.811 191.653 133.45V255.054C191.653 273.694 206.763 288.804 225.403 288.804V289.304ZM381.304 99.4504V289.054V99.4504Z" fill="url(#paint8_linear_382_20)"/>
<line x1="384.158" y1="61.895" x2="384.158" y2="319.214" stroke="url(#paint9_linear_382_20)" stroke-width="3" stroke-linejoin="round"/>
<mask id="mask1_382_20" style="mask-type:alpha" maskUnits="userSpaceOnUse" x="192" y="99" width="191" height="191">
<path d="M192.757 133.45C192.757 114.673 207.979 99.4504 226.757 99.4504H382.659V289.054H226.757C207.979 289.054 192.757 273.832 192.757 255.054V133.45Z" fill="#D9D9D9"/>
</mask>
<g mask="url(#mask1_382_20)">
<g opacity="0.7">
<path d="M234.946 162.734C234.946 162.734 234.944 162.734 234.943 162.734C234.447 162.732 234.016 162.395 233.895 161.916L221.974 114.589L211.232 153.144C211.109 153.585 210.722 153.901 210.265 153.933C209.808 153.966 209.379 153.708 209.195 153.289L201.473 135.736L199.711 140.214C199.548 140.629 199.148 140.901 198.702 140.901H193.841C193.243 140.901 192.757 140.416 192.757 139.819C192.757 139.221 193.243 138.737 193.841 138.737H197.963L200.409 132.523C200.569 132.116 200.958 131.845 201.396 131.837C201.836 131.828 202.234 132.083 202.41 132.483L209.958 149.64L220.983 110.07C221.115 109.597 221.549 109.271 222.041 109.278C222.533 109.284 222.959 109.62 223.079 110.096L234.961 157.272L241.958 130.266C242.077 129.809 242.478 129.481 242.951 129.457C243.423 129.432 243.857 129.716 244.023 130.158L249.721 145.344L251.529 139.48C251.669 139.026 252.089 138.717 252.565 138.717H260.263C260.862 138.717 261.348 139.201 261.348 139.799C261.348 140.396 260.862 140.881 260.263 140.881H253.366L250.857 149.016C250.721 149.458 250.317 149.765 249.853 149.779C249.389 149.793 248.968 149.511 248.806 149.077L243.197 134.129L235.996 161.923C235.872 162.4 235.44 162.734 234.946 162.734Z" fill="#FAC81B"/>
<path d="M297.446 162.733C297.446 162.733 297.444 162.733 297.442 162.733C296.947 162.731 296.515 162.395 296.394 161.915L284.474 114.588L273.732 153.144C273.609 153.584 273.222 153.9 272.764 153.933C272.308 153.965 271.879 153.708 271.695 153.289L263.973 135.736L262.211 140.214C262.048 140.628 261.648 140.901 261.202 140.901H256.323C255.725 140.901 255.239 140.416 255.239 139.819C255.239 139.221 255.725 138.737 256.323 138.737H260.463L262.909 132.522C263.069 132.116 263.459 131.845 263.896 131.836C264.336 131.827 264.735 132.083 264.91 132.483L272.458 149.64L283.483 110.07C283.614 109.597 284.048 109.27 284.541 109.278C285.033 109.284 285.459 109.62 285.579 110.096L297.461 157.271L304.458 130.266C304.577 129.809 304.978 129.481 305.451 129.457C305.922 129.431 306.357 129.716 306.523 130.158L312.22 145.344L314.029 139.48C314.169 139.026 314.589 138.717 315.065 138.717H322.763C323.362 138.717 323.848 139.201 323.848 139.799C323.848 140.396 323.362 140.881 322.763 140.881H315.866L313.357 149.016C313.22 149.458 312.817 149.765 312.353 149.779C311.889 149.793 311.468 149.51 311.305 149.077L305.697 134.128L298.495 161.922C298.372 162.4 297.94 162.733 297.446 162.733Z" fill="#FAC81B"/>
<path d="M361.674 162.733C361.674 162.733 361.671 162.733 361.67 162.733C361.175 162.731 360.743 162.395 360.622 161.915L348.702 114.589L337.959 153.144C337.837 153.585 337.449 153.901 336.992 153.933C336.535 153.966 336.106 153.708 335.922 153.289L328.201 135.736L326.438 140.215C326.276 140.629 325.875 140.901 325.429 140.901H320.551C319.952 140.901 319.467 140.417 319.467 139.819C319.467 139.222 319.952 138.737 320.551 138.737H324.691L327.137 132.523C327.297 132.116 327.686 131.845 328.124 131.837C328.564 131.828 328.962 132.083 329.138 132.483L336.685 149.64L347.71 110.07C347.842 109.597 348.276 109.27 348.768 109.278C349.26 109.284 349.687 109.62 349.806 110.096L361.689 157.271L368.686 130.266C368.804 129.809 369.206 129.481 369.678 129.457C370.15 129.431 370.585 129.716 370.75 130.158L376.448 145.344L378.256 139.48C378.396 139.026 378.816 138.717 379.293 138.717H386.991C387.589 138.717 388.075 139.201 388.075 139.799C388.075 140.396 387.589 140.881 386.991 140.881H380.093L377.584 149.016C377.448 149.458 377.044 149.765 376.581 149.779C376.116 149.793 375.695 149.51 375.533 149.077L369.925 134.128L362.723 161.922C362.599 162.4 362.168 162.733 361.674 162.733Z" fill="#FAC81B"/>
</g>
<g opacity="0.7">
<g clip-path="url(#clip0_382_20)">
<path d="M241.092 199.31C240.757 199.31 240.448 199.11 240.298 198.788L232.267 181.549L229.51 190.571C229.399 190.933 229.091 191.188 228.73 191.215C228.369 191.242 228.03 191.035 227.872 190.693L223.881 182.067L221.285 186.803C221.108 187.125 220.766 187.306 220.415 187.262C220.064 187.219 219.771 186.96 219.67 186.604L215.728 172.728L208.282 194.935C208.161 195.295 207.844 195.541 207.481 195.556C207.119 195.572 206.785 195.351 206.638 195.002L200.911 181.371L198.341 186.352C198.186 186.652 197.888 186.839 197.564 186.839H193.639C193.151 186.839 192.754 186.422 192.754 185.907C192.754 185.393 193.151 184.976 193.639 184.976H197.038L200.216 178.817C200.377 178.505 200.693 178.317 201.03 178.331C201.367 178.345 201.667 178.56 201.803 178.885L207.356 192.102L214.964 169.413C215.092 169.033 215.436 168.783 215.82 168.792C216.203 168.802 216.536 169.07 216.646 169.456L220.778 184.001L223.181 179.617C223.344 179.319 223.651 179.14 223.978 179.152C224.306 179.164 224.6 179.365 224.743 179.675L228.499 187.795L231.254 178.781C231.365 178.419 231.672 178.165 232.033 178.137C232.393 178.11 232.732 178.315 232.891 178.656L240.805 195.646L247.332 167.004C247.427 166.585 247.783 166.29 248.193 166.29C248.194 166.29 248.196 166.29 248.198 166.29C248.609 166.293 248.965 166.593 249.055 167.015L253.736 188.774L256.554 180.208C256.662 179.879 256.936 179.641 257.263 179.591C257.591 179.541 257.917 179.688 258.11 179.971L261.516 184.977H263.019C263.508 184.977 263.904 185.394 263.904 185.908C263.904 186.422 263.508 186.839 263.019 186.839H261.061C260.776 186.839 260.508 186.694 260.342 186.45L257.667 182.519L254.394 192.467C254.265 192.86 253.903 193.116 253.509 193.092C253.115 193.069 252.782 192.774 252.695 192.368L248.168 171.323L241.954 198.596C241.867 198.978 241.561 199.261 241.191 199.304C241.158 199.308 241.125 199.31 241.093 199.31H241.092Z" fill="#FAC81B"/>
<path d="M308.61 199.31C308.275 199.31 307.965 199.11 307.815 198.788L299.785 181.549L297.027 190.571C296.916 190.933 296.608 191.188 296.247 191.215C295.887 191.242 295.547 191.035 295.389 190.693L291.398 182.067L288.802 186.803C288.625 187.125 288.283 187.306 287.932 187.262C287.581 187.219 287.289 186.96 287.187 186.604L283.246 172.728L275.799 194.935C275.678 195.295 275.361 195.541 274.999 195.556C274.636 195.572 274.302 195.351 274.155 195.002L268.428 181.371L265.858 186.352C265.703 186.652 265.405 186.839 265.081 186.839H262.346C261.858 186.839 261.461 186.422 261.461 185.907C261.461 185.393 261.858 184.976 262.346 184.976H264.554L267.732 178.817C267.893 178.505 268.209 178.317 268.546 178.331C268.883 178.345 269.183 178.56 269.319 178.885L274.872 192.102L282.481 169.413C282.608 169.032 282.952 168.783 283.337 168.791C283.72 168.801 284.053 169.069 284.163 169.456L288.295 184L290.697 179.617C290.861 179.319 291.167 179.14 291.495 179.152C291.822 179.164 292.116 179.365 292.26 179.675L296.016 187.794L298.771 178.78C298.881 178.419 299.189 178.164 299.549 178.137C299.909 178.11 300.249 178.315 300.408 178.656L308.322 195.646L314.85 167.004C314.945 166.585 315.301 166.29 315.71 166.29C315.712 166.29 315.714 166.29 315.716 166.29C316.127 166.293 316.482 166.593 316.573 167.015L321.254 188.774L324.072 180.208C324.18 179.879 324.453 179.641 324.781 179.591C325.108 179.541 325.434 179.688 325.627 179.971L329.034 184.977H331.719C332.207 184.977 332.604 185.394 332.604 185.908C332.604 186.422 332.207 186.839 331.719 186.839H328.579C328.293 186.839 328.026 186.694 327.86 186.45L325.185 182.519L321.912 192.467C321.782 192.86 321.421 193.116 321.027 193.092C320.632 193.069 320.3 192.774 320.213 192.368L315.686 171.323L309.471 198.596C309.384 198.978 309.079 199.261 308.708 199.304C308.676 199.308 308.643 199.31 308.611 199.31H308.61Z" fill="#FAC81B"/>
</g>
<path d="M376.878 199.31C376.543 199.31 376.233 199.11 376.084 198.789L368.053 181.549L365.295 190.571C365.185 190.933 364.876 191.188 364.516 191.215C364.155 191.242 363.816 191.036 363.657 190.694L359.667 182.067L357.07 186.803C356.894 187.125 356.552 187.306 356.201 187.262C355.85 187.219 355.557 186.96 355.456 186.604L351.514 172.729L344.067 194.935C343.947 195.295 343.63 195.542 343.267 195.556C342.904 195.572 342.571 195.351 342.424 195.002L336.697 181.371L334.127 186.352C333.972 186.652 333.673 186.839 333.349 186.839H329.425C328.936 186.839 328.54 186.422 328.54 185.908C328.54 185.394 328.936 184.976 329.425 184.976H332.824L336.002 178.817C336.163 178.505 336.478 178.317 336.815 178.331C337.152 178.346 337.452 178.561 337.589 178.885L343.141 192.103L350.75 169.413C350.877 169.033 351.222 168.783 351.606 168.792C351.989 168.802 352.322 169.07 352.432 169.456L356.564 184.001L358.966 179.618C359.13 179.319 359.436 179.14 359.764 179.152C360.091 179.164 360.386 179.366 360.529 179.675L364.285 187.795L367.04 178.781C367.15 178.42 367.458 178.165 367.818 178.137C368.179 178.11 368.518 178.315 368.677 178.656L376.591 195.646L383.118 167.004C383.213 166.585 383.569 166.29 383.978 166.29C383.98 166.29 383.982 166.29 383.984 166.29C384.395 166.293 384.75 166.593 384.841 167.016L389.522 188.774L392.34 180.208C392.448 179.88 392.722 179.642 393.049 179.592C393.376 179.541 393.702 179.688 393.895 179.971L397.302 184.977H398.805C399.293 184.977 399.69 185.394 399.69 185.908C399.69 186.422 399.293 186.839 398.805 186.839H396.847C396.561 186.839 396.294 186.694 396.128 186.45L393.453 182.519L390.18 192.467C390.05 192.861 389.689 193.116 389.295 193.093C388.901 193.069 388.568 192.774 388.481 192.368L383.954 171.323L377.739 198.596C377.652 198.978 377.347 199.261 376.976 199.304C376.944 199.308 376.911 199.31 376.879 199.31H376.878Z" fill="#FAC81B"/>
</g>
<path opacity="0.7" d="M192.144 224.85C194.814 224.214 199.431 220.66 202.827 219.127C207.899 216.838 209.166 224.012 216.18 229.81C224.011 236.283 231.06 220.272 233.35 216.838C235.639 213.404 240.98 207.681 245.177 213.404C249.374 219.127 253.571 232.481 259.676 232.863C265.78 233.244 271.503 214.549 276.845 216.838C282.186 219.127 280.15 225.887 286.099 231.557C292.974 238.11 294.014 216.838 303.552 216.838C313.091 216.838 316.525 229.81 324.155 229.81C331.786 229.81 337.128 213.404 345.903 213.404C354.678 213.404 362.69 229.81 369.94 229.81C375.739 229.81 379.732 221.162 381.004 216.838" stroke="#FAC81B" stroke-width="2"/>
<path opacity="0.7" d="M191.332 246.463C198.905 245.706 213.305 251.853 218.864 262.464C225.23 274.615 238.597 275.64 246.361 275.64H251.602C269.156 275.64 275.423 251.105 298.906 251.105C322.388 251.105 328.162 275.64 341.792 275.64C353.479 275.64 351.603 276.976 359.511 270.187C366.573 264.126 372.417 253.286 381.504 251.105" stroke="#FBC71C" stroke-width="2"/>
</g>
<path d="M191.389 134.174C191.389 115.396 206.611 100.174 225.389 100.174H381.54V290.027H225.389C206.611 290.027 191.389 274.804 191.389 256.027V134.174Z" fill="url(#paint10_radial_382_20)" fill-opacity="0.1"/>
<path d="M403.951 125.323C404.324 125.323 404.581 125.267 404.721 125.155C404.87 125.034 404.945 124.791 404.945 124.427V121.221C404.945 120.596 405.062 120.157 405.295 119.905C405.528 119.644 405.92 119.513 406.471 119.513H407.381V120.493H406.667C406.443 120.493 406.28 120.53 406.177 120.605C406.084 120.67 406.037 120.806 406.037 121.011V124.427C406.037 124.894 405.92 125.276 405.687 125.575C405.463 125.874 405.183 126.051 404.847 126.107C405.183 126.144 405.463 126.312 405.687 126.611C405.92 126.91 406.037 127.292 406.037 127.759V131.175C406.037 131.38 406.084 131.516 406.177 131.581C406.28 131.656 406.443 131.693 406.667 131.693H407.381V132.673H406.471C405.92 132.673 405.528 132.542 405.295 132.281C405.062 132.029 404.945 131.59 404.945 130.965V127.759C404.945 127.395 404.87 127.157 404.721 127.045C404.581 126.924 404.324 126.863 403.951 126.863V125.323ZM405.043 142.405V143.665H403.713V142.405L404.483 140.207H405.463L405.043 142.405ZM407.213 142.405V143.665H405.883V142.405L406.653 140.207H407.633L407.213 142.405ZM411.792 142.993V143.329C412.081 143.105 412.454 142.993 412.912 142.993H413.416C414.237 142.993 414.839 143.17 415.222 143.525C415.604 143.87 415.796 144.44 415.796 145.233V147.753C415.796 148.537 415.6 149.106 415.208 149.461C414.825 149.816 414.228 149.993 413.416 149.993H411.862V152.373H410.672V142.993H411.792ZM412.772 144.043C412.464 144.043 412.235 144.127 412.086 144.295C411.936 144.454 411.862 144.626 411.862 144.813V148.943H413.556C413.901 148.943 414.162 148.864 414.34 148.705C414.517 148.546 414.606 148.322 414.606 148.033V144.953C414.606 144.664 414.517 144.44 414.34 144.281C414.162 144.122 413.901 144.043 413.556 144.043H412.772ZM422.152 149.671C421.844 149.886 421.471 149.993 421.032 149.993H420.556C419.8 149.993 419.235 149.816 418.862 149.461C418.498 149.106 418.316 148.537 418.316 147.753V142.993H419.506V148.033C419.506 148.313 419.585 148.537 419.744 148.705C419.912 148.864 420.136 148.943 420.416 148.943H421.172C421.471 148.943 421.69 148.868 421.83 148.719C421.979 148.57 422.063 148.402 422.082 148.215V142.993H423.272V149.993H422.152V149.671ZM428.803 149.993C428.485 149.993 428.205 149.881 427.963 149.657C427.729 149.433 427.613 149.078 427.613 148.593V141.243H425.555V140.193H428.803V148.523C428.803 148.672 428.84 148.78 428.915 148.845C428.989 148.91 429.115 148.943 429.293 148.943H431.155V149.993H428.803ZM438.043 148.243C438.043 148.831 437.861 149.27 437.497 149.559C437.143 149.848 436.625 149.993 435.943 149.993H433.857V148.943H436.083C436.335 148.943 436.527 148.892 436.657 148.789C436.788 148.677 436.853 148.518 436.853 148.313V147.571C436.853 147.151 436.653 146.941 436.251 146.941H435.733C435.08 146.941 434.59 146.801 434.263 146.521C433.946 146.232 433.787 145.779 433.787 145.163V144.757C433.787 144.132 433.965 143.684 434.319 143.413C434.674 143.133 435.197 142.993 435.887 142.993H437.763V144.043H435.747C435.514 144.043 435.327 144.099 435.187 144.211C435.047 144.314 434.977 144.468 434.977 144.673V145.177C434.977 145.392 435.038 145.55 435.159 145.653C435.29 145.756 435.453 145.807 435.649 145.807H436.125C436.751 145.807 437.227 145.961 437.553 146.269C437.88 146.568 438.043 147.016 438.043 147.613V148.243ZM443.392 149.993C442.57 149.993 441.968 149.82 441.586 149.475C441.203 149.12 441.012 148.546 441.012 147.753V145.233C441.012 144.43 441.184 143.856 441.53 143.511C441.875 143.166 442.449 142.993 443.252 142.993H443.91C444.572 142.993 445.072 143.18 445.408 143.553C445.753 143.917 445.926 144.454 445.926 145.163V146.983H442.202V148.033C442.202 148.322 442.29 148.546 442.468 148.705C442.645 148.864 442.906 148.943 443.252 148.943H445.478V149.993H443.392ZM444.764 144.883C444.764 144.64 444.684 144.44 444.526 144.281C444.367 144.122 444.166 144.043 443.924 144.043H443.112C442.776 144.043 442.538 144.122 442.398 144.281C442.267 144.43 442.202 144.654 442.202 144.953V145.933H444.764V144.883ZM449.496 141.453V140.193H450.826V141.453L450.056 143.651H449.076L449.496 141.453ZM451.666 141.453V140.193H452.996V141.453L452.226 143.651H451.246L451.666 141.453ZM459.297 142.993V144.393H457.897V142.993H459.297ZM459.297 148.593V149.993H457.897V148.593H459.297ZM473.088 142.405V143.665H471.758V142.405L472.528 140.207H473.508L473.088 142.405ZM475.258 142.405V143.665H473.928V142.405L474.698 140.207H475.678L475.258 142.405ZM478.843 142.573C478.843 141.808 479.053 141.22 479.473 140.809C479.893 140.398 480.42 140.193 481.055 140.193H481.545C482.179 140.193 482.707 140.398 483.127 140.809C483.547 141.22 483.757 141.808 483.757 142.573V147.613C483.757 148.406 483.542 149.004 483.113 149.405C482.693 149.797 482.077 149.993 481.265 149.993H479.655V148.929H481.405C481.75 148.929 482.03 148.826 482.245 148.621C482.459 148.416 482.567 148.168 482.567 147.879V146.353H481.195C480.392 146.353 479.799 146.176 479.417 145.821C479.034 145.466 478.843 144.897 478.843 144.113V142.573ZM482.567 142.307C482.567 142.008 482.469 141.756 482.273 141.551C482.077 141.346 481.811 141.243 481.475 141.243H481.125C480.789 141.243 480.523 141.346 480.327 141.551C480.131 141.756 480.033 142.008 480.033 142.307V144.379C480.033 144.668 480.117 144.897 480.285 145.065C480.462 145.224 480.719 145.303 481.055 145.303H482.567V142.307ZM491.331 147.613C491.331 148.378 491.121 148.966 490.701 149.377C490.281 149.788 489.754 149.993 489.119 149.993H488.629C487.994 149.993 487.467 149.788 487.047 149.377C486.627 148.966 486.417 148.378 486.417 147.613V142.573C486.417 141.78 486.627 141.187 487.047 140.795C487.476 140.394 488.097 140.193 488.909 140.193H490.659V141.257H488.769C488.424 141.257 488.144 141.36 487.929 141.565C487.714 141.77 487.607 142.018 487.607 142.307V143.833H488.979C489.782 143.833 490.374 144.01 490.757 144.365C491.14 144.72 491.331 145.289 491.331 146.073V147.613ZM487.607 147.879C487.607 148.178 487.705 148.43 487.901 148.635C488.097 148.84 488.363 148.943 488.699 148.943H489.049C489.385 148.943 489.651 148.84 489.847 148.635C490.043 148.43 490.141 148.178 490.141 147.879V145.807C490.141 145.518 490.052 145.294 489.875 145.135C489.707 144.967 489.455 144.883 489.119 144.883H487.607V147.879ZM494.86 141.453V140.193H496.19V141.453L495.42 143.651H494.44L494.86 141.453ZM497.03 141.453V140.193H498.36V141.453L497.59 143.651H496.61L497.03 141.453ZM503.54 149.993V148.593H504.94V149.993L504.072 151.953H502.98L503.54 149.993ZM405.043 161.405V162.665H403.713V161.405L404.483 159.207H405.463L405.043 161.405ZM407.213 161.405V162.665H405.883V161.405L406.653 159.207H407.633L407.213 161.405ZM415.362 167.243C415.362 167.831 415.18 168.27 414.816 168.559C414.461 168.848 413.943 168.993 413.262 168.993H411.176V167.943H413.402C413.654 167.943 413.845 167.892 413.976 167.789C414.106 167.677 414.172 167.518 414.172 167.313V166.571C414.172 166.151 413.971 165.941 413.57 165.941H413.052C412.398 165.941 411.908 165.801 411.582 165.521C411.264 165.232 411.106 164.779 411.106 164.163V163.757C411.106 163.132 411.283 162.684 411.638 162.413C411.992 162.133 412.515 161.993 413.206 161.993H415.082V163.043H413.066C412.832 163.043 412.646 163.099 412.506 163.211C412.366 163.314 412.296 163.468 412.296 163.673V164.177C412.296 164.392 412.356 164.55 412.478 164.653C412.608 164.756 412.772 164.807 412.968 164.807H413.444C414.069 164.807 414.545 164.961 414.872 165.269C415.198 165.568 415.362 166.016 415.362 166.613V167.243ZM419.352 161.993V162.329C419.641 162.105 420.015 161.993 420.472 161.993H420.976C421.797 161.993 422.399 162.17 422.782 162.525C423.165 162.87 423.356 163.44 423.356 164.233V166.753C423.356 167.537 423.16 168.106 422.768 168.461C422.385 168.816 421.788 168.993 420.976 168.993H419.422V171.373H418.232V161.993H419.352ZM420.332 163.043C420.024 163.043 419.795 163.127 419.646 163.295C419.497 163.454 419.422 163.626 419.422 163.813V167.943H421.116C421.461 167.943 421.723 167.864 421.9 167.705C422.077 167.546 422.166 167.322 422.166 167.033V163.953C422.166 163.664 422.077 163.44 421.9 163.281C421.723 163.122 421.461 163.043 421.116 163.043H420.332ZM430.959 166.753C430.959 167.537 430.763 168.106 430.371 168.461C429.988 168.816 429.391 168.993 428.579 168.993H428.117C427.305 168.993 426.703 168.816 426.311 168.461C425.928 168.106 425.737 167.537 425.737 166.753V164.233C425.737 163.449 425.928 162.88 426.311 162.525C426.703 162.17 427.305 161.993 428.117 161.993H428.579C429.391 161.993 429.988 162.17 430.371 162.525C430.763 162.88 430.959 163.449 430.959 164.233V166.753ZM429.769 163.953C429.769 163.664 429.68 163.44 429.503 163.281C429.325 163.122 429.064 163.043 428.719 163.043H427.977C427.631 163.043 427.37 163.122 427.193 163.281C427.015 163.44 426.927 163.664 426.927 163.953V167.033C426.927 167.322 427.015 167.546 427.193 167.705C427.37 167.864 427.631 167.943 427.977 167.943H428.719C429.064 167.943 429.325 167.864 429.503 167.705C429.68 167.546 429.769 167.322 429.769 167.033V163.953ZM435.845 164.569C436.144 164.14 436.345 163.836 436.447 163.659C436.559 163.472 436.634 163.286 436.671 163.099C436.709 162.912 436.727 162.642 436.727 162.287V161.307C436.727 161.018 436.62 160.77 436.405 160.565C436.191 160.36 435.911 160.257 435.565 160.257H433.885V159.193H435.425C436.237 159.193 436.858 159.394 437.287 159.795C437.726 160.187 437.945 160.78 437.945 161.573V162.161C437.945 162.628 437.913 163.006 437.847 163.295C437.782 163.584 437.689 163.841 437.567 164.065C437.446 164.289 437.245 164.602 436.965 165.003L434.893 167.929H438.225V168.993H433.605V167.761L435.845 164.569ZM441.936 160.453V159.193H443.266V160.453L442.496 162.651H441.516L441.936 160.453ZM444.106 160.453V159.193H445.436V160.453L444.666 162.651H443.686L444.106 160.453ZM451.736 161.993V163.393H450.336V161.993H451.736ZM451.736 167.593V168.993H450.336V167.593H451.736ZM465.527 161.405V162.665H464.197V161.405L464.967 159.207H465.947L465.527 161.405ZM467.697 161.405V162.665H466.367V161.405L467.137 159.207H468.117L467.697 161.405ZM471.282 161.573C471.282 160.808 471.492 160.22 471.912 159.809C472.332 159.398 472.859 159.193 473.494 159.193H473.984C474.619 159.193 475.146 159.398 475.566 159.809C475.986 160.22 476.196 160.808 476.196 161.573V166.613C476.196 167.406 475.981 168.004 475.552 168.405C475.132 168.797 474.516 168.993 473.704 168.993H472.094V167.929H473.844C474.189 167.929 474.469 167.826 474.684 167.621C474.899 167.416 475.006 167.168 475.006 166.879V165.353H473.634C472.831 165.353 472.239 165.176 471.856 164.821C471.473 164.466 471.282 163.897 471.282 163.113V161.573ZM475.006 161.307C475.006 161.008 474.908 160.756 474.712 160.551C474.516 160.346 474.25 160.243 473.914 160.243H473.564C473.228 160.243 472.962 160.346 472.766 160.551C472.57 160.756 472.472 161.008 472.472 161.307V163.379C472.472 163.668 472.556 163.897 472.724 164.065C472.901 164.224 473.158 164.303 473.494 164.303H475.006V161.307ZM480.901 167.943V160.299L478.927 161.027V159.893L480.761 159.193H482.091V167.943H483.617V168.993H479.067V167.943H480.901ZM487.299 160.453V159.193H488.629V160.453L487.859 162.651H486.879L487.299 160.453ZM489.469 160.453V159.193H490.799V160.453L490.029 162.651H489.049L489.469 160.453ZM495.98 168.993V167.593H497.38V168.993L496.512 170.953H495.42L495.98 168.993ZM405.043 180.405V181.665H403.713V180.405L404.483 178.207H405.463L405.043 180.405ZM407.213 180.405V181.665H405.883V180.405L406.653 178.207H407.633L407.213 180.405ZM413.752 187.993C413.276 187.993 412.912 187.839 412.66 187.531C412.408 187.223 412.282 186.817 412.282 186.313V182.043H410.952V180.993H412.282V179.313H413.472V180.993H415.516V182.043H413.472V186.383C413.472 186.588 413.523 186.733 413.626 186.817C413.728 186.901 413.887 186.943 414.102 186.943H415.516V187.993H413.752ZM420.71 187.993C419.889 187.993 419.287 187.82 418.904 187.475C418.521 187.12 418.33 186.546 418.33 185.753V183.233C418.33 182.43 418.503 181.856 418.848 181.511C419.193 181.166 419.767 180.993 420.57 180.993H421.228C421.891 180.993 422.39 181.18 422.726 181.553C423.071 181.917 423.244 182.454 423.244 183.163V184.983H419.52V186.033C419.52 186.322 419.609 186.546 419.786 186.705C419.963 186.864 420.225 186.943 420.57 186.943H422.796V187.993H420.71ZM422.082 182.883C422.082 182.64 422.003 182.44 421.844 182.281C421.685 182.122 421.485 182.043 421.242 182.043H420.43C420.094 182.043 419.856 182.122 419.716 182.281C419.585 182.43 419.52 182.654 419.52 182.953V183.933H422.082V182.883ZM426.227 180.993V181.315C426.469 181.1 426.759 180.993 427.095 180.993H427.179C427.832 180.993 428.294 181.18 428.565 181.553C428.873 181.18 429.279 180.993 429.783 180.993H429.867C430.436 180.993 430.856 181.138 431.127 181.427C431.397 181.716 431.533 182.23 431.533 182.967V187.993H430.413V182.953C430.413 182.57 430.371 182.304 430.287 182.155C430.212 182.006 430.035 181.931 429.755 181.931H429.671C429.391 181.931 429.195 182.029 429.083 182.225C428.98 182.412 428.924 182.622 428.915 182.855V187.993H427.795V182.953C427.795 182.561 427.748 182.295 427.655 182.155C427.561 182.006 427.393 181.931 427.151 181.931H427.067C426.787 181.931 426.591 182.015 426.479 182.183C426.367 182.342 426.306 182.524 426.297 182.729V187.993H425.177V180.993H426.227ZM434.473 180.993V181.329C434.763 181.105 435.136 180.993 435.593 180.993H436.097C436.919 180.993 437.521 181.17 437.903 181.525C438.286 181.87 438.477 182.44 438.477 183.233V185.753C438.477 186.537 438.281 187.106 437.889 187.461C437.507 187.816 436.909 187.993 436.097 187.993H434.543V190.373H433.353V180.993H434.473ZM435.453 182.043C435.145 182.043 434.917 182.127 434.767 182.295C434.618 182.454 434.543 182.626 434.543 182.813V186.943H436.237C436.583 186.943 436.844 186.864 437.021 186.705C437.199 186.546 437.287 186.322 437.287 186.033V182.953C437.287 182.664 437.199 182.44 437.021 182.281C436.844 182.122 436.583 182.043 436.237 182.043H435.453ZM443.392 187.993C442.57 187.993 441.968 187.82 441.586 187.475C441.203 187.12 441.012 186.546 441.012 185.753V183.233C441.012 182.43 441.184 181.856 441.53 181.511C441.875 181.166 442.449 180.993 443.252 180.993H443.91C444.572 180.993 445.072 181.18 445.408 181.553C445.753 181.917 445.926 182.454 445.926 183.163V184.983H442.202V186.033C442.202 186.322 442.29 186.546 442.468 186.705C442.645 186.864 442.906 186.943 443.252 186.943H445.478V187.993H443.392ZM444.764 182.883C444.764 182.64 444.684 182.44 444.526 182.281C444.367 182.122 444.166 182.043 443.924 182.043H443.112C442.776 182.043 442.538 182.122 442.398 182.281C442.267 182.43 442.202 182.654 442.202 182.953V183.933H444.764V182.883ZM449.678 186.943V182.043H448.656V180.993H450.798V181.371C451.106 181.119 451.48 180.993 451.918 180.993H453.36V182.113H451.778C451.48 182.113 451.256 182.211 451.106 182.407C450.957 182.594 450.878 182.785 450.868 182.981V186.943H452.394V187.993H448.656V186.943H449.678ZM460.655 187.993C460.534 187.993 460.398 187.956 460.249 187.881C460.109 187.806 459.988 187.704 459.885 187.573C459.67 187.853 459.386 187.993 459.031 187.993H457.785C457.076 187.993 456.558 187.853 456.231 187.573C455.914 187.284 455.755 186.794 455.755 186.103V185.823C455.755 184.376 456.436 183.653 457.799 183.653H459.535V182.953C459.535 182.664 459.446 182.44 459.269 182.281C459.092 182.122 458.83 182.043 458.485 182.043H456.315V180.993H458.345C459.157 180.993 459.754 181.17 460.137 181.525C460.529 181.88 460.725 182.449 460.725 183.233V186.593C460.725 186.733 460.776 186.84 460.879 186.915C460.991 186.98 461.173 187.013 461.425 187.013V187.993H460.655ZM458.891 186.943C459.171 186.943 459.348 186.878 459.423 186.747C459.498 186.616 459.535 186.448 459.535 186.243V184.703H457.785C457.542 184.703 457.342 184.782 457.183 184.941C457.024 185.1 456.945 185.3 456.945 185.543V186.243C456.945 186.486 457.001 186.663 457.113 186.775C457.225 186.887 457.402 186.943 457.645 186.943H458.891ZM466.675 187.993C466.199 187.993 465.835 187.839 465.583 187.531C465.331 187.223 465.205 186.817 465.205 186.313V182.043H463.875V180.993H465.205V179.313H466.395V180.993H468.439V182.043H466.395V186.383C466.395 186.588 466.447 186.733 466.549 186.817C466.652 186.901 466.811 186.943 467.025 186.943H468.439V187.993H466.675ZM475.076 187.671C474.768 187.886 474.395 187.993 473.956 187.993H473.48C472.724 187.993 472.159 187.816 471.786 187.461C471.422 187.106 471.24 186.537 471.24 185.753V180.993H472.43V186.033C472.43 186.313 472.509 186.537 472.668 186.705C472.836 186.864 473.06 186.943 473.34 186.943H474.096C474.395 186.943 474.614 186.868 474.754 186.719C474.903 186.57 474.987 186.402 475.006 186.215V180.993H476.196V187.993H475.076V187.671ZM479.921 186.943V182.043H478.899V180.993H481.041V181.371C481.349 181.119 481.722 180.993 482.161 180.993H483.603V182.113H482.021C481.722 182.113 481.498 182.211 481.349 182.407C481.199 182.594 481.12 182.785 481.111 182.981V186.943H482.637V187.993H478.899V186.943H479.921ZM488.755 187.993C487.934 187.993 487.332 187.82 486.949 187.475C486.566 187.12 486.375 186.546 486.375 185.753V183.233C486.375 182.43 486.548 181.856 486.893 181.511C487.238 181.166 487.812 180.993 488.615 180.993H489.273C489.936 180.993 490.435 181.18 490.771 181.553C491.116 181.917 491.289 182.454 491.289 183.163V184.983H487.565V186.033C487.565 186.322 487.654 186.546 487.831 186.705C488.008 186.864 488.27 186.943 488.615 186.943H490.841V187.993H488.755ZM490.127 182.883C490.127 182.64 490.048 182.44 489.889 182.281C489.73 182.122 489.53 182.043 489.287 182.043H488.475C488.139 182.043 487.901 182.122 487.761 182.281C487.63 182.43 487.565 182.654 487.565 182.953V183.933H490.127V182.883ZM494.86 179.453V178.193H496.19V179.453L495.42 181.651H494.44L494.86 179.453ZM497.03 179.453V178.193H498.36V179.453L497.59 181.651H496.61L497.03 179.453ZM504.66 180.993V182.393H503.26V180.993H504.66ZM504.66 186.593V187.993H503.26V186.593H504.66ZM518.451 180.405V181.665H517.121V180.405L517.891 178.207H518.871L518.451 180.405ZM520.621 180.405V181.665H519.291V180.405L520.061 178.207H521.041L520.621 180.405ZM525.2 180.993V181.329C525.489 181.105 525.862 180.993 526.32 180.993H526.964C527.72 180.993 528.28 181.17 528.644 181.525C529.017 181.88 529.204 182.449 529.204 183.233V187.993H528.014V182.953C528.014 182.673 527.93 182.454 527.762 182.295C527.603 182.127 527.384 182.043 527.104 182.043H526.18C525.872 182.043 525.643 182.127 525.494 182.295C525.344 182.454 525.27 182.626 525.27 182.813V187.993H524.08V180.993H525.2ZM535.56 187.671C535.252 187.886 534.879 187.993 534.44 187.993H533.964C533.208 187.993 532.644 187.816 532.27 187.461C531.906 187.106 531.724 186.537 531.724 185.753V180.993H532.914V186.033C532.914 186.313 532.994 186.537 533.152 186.705C533.32 186.864 533.544 186.943 533.824 186.943H534.58C534.879 186.943 535.098 186.868 535.238 186.719C535.388 186.57 535.472 186.402 535.49 186.215V180.993H536.68V187.993H535.56V187.671ZM542.211 187.993C541.894 187.993 541.614 187.881 541.371 187.657C541.138 187.433 541.021 187.078 541.021 186.593V179.243H538.963V178.193H542.211V186.523C542.211 186.672 542.248 186.78 542.323 186.845C542.398 186.91 542.524 186.943 542.701 186.943H544.563V187.993H542.211ZM549.771 187.993C549.454 187.993 549.174 187.881 548.931 187.657C548.698 187.433 548.581 187.078 548.581 186.593V179.243H546.523V178.193H549.771V186.523C549.771 186.672 549.809 186.78 549.883 186.845C549.958 186.91 550.084 186.943 550.261 186.943H552.123V187.993H549.771ZM555.344 179.453V178.193H556.674V179.453L555.904 181.651H554.924L555.344 179.453ZM557.514 179.453V178.193H558.844V179.453L558.074 181.651H557.094L557.514 179.453ZM564.025 187.993V186.593H565.425V187.993L564.557 189.953H563.465L564.025 187.993ZM405.043 199.405V200.665H403.713V199.405L404.483 197.207H405.463L405.043 199.405ZM407.213 199.405V200.665H405.883V199.405L406.653 197.207H407.633L407.213 199.405ZM415.362 205.243C415.362 205.831 415.18 206.27 414.816 206.559C414.461 206.848 413.943 206.993 413.262 206.993H411.176V205.943H413.402C413.654 205.943 413.845 205.892 413.976 205.789C414.106 205.677 414.172 205.518 414.172 205.313V204.571C414.172 204.151 413.971 203.941 413.57 203.941H413.052C412.398 203.941 411.908 203.801 411.582 203.521C411.264 203.232 411.106 202.779 411.106 202.163V201.757C411.106 201.132 411.283 200.684 411.638 200.413C411.992 200.133 412.515 199.993 413.206 199.993H415.082V201.043H413.066C412.832 201.043 412.646 201.099 412.506 201.211C412.366 201.314 412.296 201.468 412.296 201.673V202.177C412.296 202.392 412.356 202.55 412.478 202.653C412.608 202.756 412.772 202.807 412.968 202.807H413.444C414.069 202.807 414.545 202.961 414.872 203.269C415.198 203.568 415.362 204.016 415.362 204.613V205.243ZM419.534 208.323C419.758 208.323 419.926 208.281 420.038 208.197C420.15 208.113 420.234 207.968 420.29 207.763L420.486 206.993H420.206L417.896 199.993H419.184L420.934 205.859L422.46 199.993H423.678L421.508 207.749C421.387 208.225 421.237 208.58 421.06 208.813C420.883 209.046 420.682 209.196 420.458 209.261C420.243 209.336 419.963 209.373 419.618 209.373H418.946V208.323H419.534ZM430.483 205.243C430.483 205.831 430.301 206.27 429.937 206.559C429.582 206.848 429.064 206.993 428.383 206.993H426.297V205.943H428.523C428.775 205.943 428.966 205.892 429.097 205.789C429.227 205.677 429.293 205.518 429.293 205.313V204.571C429.293 204.151 429.092 203.941 428.691 203.941H428.173C427.519 203.941 427.029 203.801 426.703 203.521C426.385 203.232 426.227 202.779 426.227 202.163V201.757C426.227 201.132 426.404 200.684 426.759 200.413C427.113 200.133 427.636 199.993 428.327 199.993H430.203V201.043H428.187C427.953 201.043 427.767 201.099 427.627 201.211C427.487 201.314 427.417 201.468 427.417 201.673V202.177C427.417 202.392 427.477 202.55 427.599 202.653C427.729 202.756 427.893 202.807 428.089 202.807H428.565C429.19 202.807 429.666 202.961 429.993 203.269C430.319 203.568 430.483 204.016 430.483 204.613V205.243ZM436.433 206.993C435.957 206.993 435.593 206.839 435.341 206.531C435.089 206.223 434.963 205.817 434.963 205.313V201.043H433.633V199.993H434.963V198.313H436.153V199.993H438.197V201.043H436.153V205.383C436.153 205.588 436.205 205.733 436.307 205.817C436.41 205.901 436.569 205.943 436.783 205.943H438.197V206.993H436.433ZM446.08 204.753C446.08 205.537 445.884 206.106 445.492 206.461C445.109 206.816 444.512 206.993 443.7 206.993H443.238C442.426 206.993 441.824 206.816 441.432 206.461C441.049 206.106 440.858 205.537 440.858 204.753V202.233C440.858 201.449 441.049 200.88 441.432 200.525C441.824 200.17 442.426 199.993 443.238 199.993H443.7C444.512 199.993 445.109 200.17 445.492 200.525C445.884 200.88 446.08 201.449 446.08 202.233V204.753ZM444.89 201.953C444.89 201.664 444.801 201.44 444.624 201.281C444.446 201.122 444.185 201.043 443.84 201.043H443.098C442.752 201.043 442.491 201.122 442.314 201.281C442.136 201.44 442.048 201.664 442.048 201.953V205.033C442.048 205.322 442.136 205.546 442.314 205.705C442.491 205.864 442.752 205.943 443.098 205.943H443.84C444.185 205.943 444.446 205.864 444.624 205.705C444.801 205.546 444.89 205.322 444.89 205.033V201.953ZM451.484 206.993C451.167 206.993 450.887 206.881 450.644 206.657C450.411 206.433 450.294 206.078 450.294 205.593V198.243H448.236V197.193H451.484V205.523C451.484 205.672 451.522 205.78 451.596 205.845C451.671 205.91 451.797 205.943 451.974 205.943H453.836V206.993H451.484ZM459.255 197.193V198.453H457.925V197.193H459.255ZM455.937 201.043V199.993H459.185V205.943H461.257V206.993H457.995V201.043H455.937ZM466.437 206.993C465.616 206.993 465.014 206.82 464.631 206.475C464.249 206.12 464.057 205.546 464.057 204.753V202.233C464.057 201.449 464.249 200.88 464.631 200.525C465.023 200.17 465.625 199.993 466.437 199.993H468.243V201.043H466.297C465.952 201.043 465.691 201.122 465.513 201.281C465.336 201.44 465.247 201.664 465.247 201.953V205.033C465.247 205.322 465.336 205.546 465.513 205.705C465.691 205.864 465.952 205.943 466.297 205.943H468.243V206.993H466.437ZM472.178 198.453V197.193H473.508V198.453L472.738 200.651H471.758L472.178 198.453ZM474.348 198.453V197.193H475.678V198.453L474.908 200.651H473.928L474.348 198.453ZM481.979 199.993V201.393H480.579V199.993H481.979ZM481.979 205.593V206.993H480.579V205.593H481.979ZM495.77 199.405V200.665H494.44V199.405L495.21 197.207H496.19L495.77 199.405ZM497.94 199.405V200.665H496.61V199.405L497.38 197.207H498.36L497.94 199.405ZM503.582 205.943V198.299L501.608 199.027V197.893L503.442 197.193H504.772V205.943H506.298V206.993H501.748V205.943H503.582ZM511.843 206.993V204.809H508.959V203.605L510.457 197.193H511.591L510.163 203.787H511.843V200.595H513.033V203.787H514.083V204.809H513.033V206.993H511.843ZM521.573 204.613C521.573 205.378 521.363 205.966 520.943 206.377C520.523 206.788 519.996 206.993 519.361 206.993H518.871C518.237 206.993 517.709 206.788 517.289 206.377C516.869 205.966 516.659 205.378 516.659 204.613V199.573C516.659 198.78 516.869 198.187 517.289 197.795C517.719 197.394 518.339 197.193 519.151 197.193H520.901V198.257H519.011C518.666 198.257 518.386 198.36 518.171 198.565C517.957 198.77 517.849 199.018 517.849 199.307V200.833H519.221C520.024 200.833 520.617 201.01 520.999 201.365C521.382 201.72 521.573 202.289 521.573 203.073V204.613ZM517.849 204.879C517.849 205.178 517.947 205.43 518.143 205.635C518.339 205.84 518.605 205.943 518.941 205.943H519.291C519.627 205.943 519.893 205.84 520.089 205.635C520.285 205.43 520.383 205.178 520.383 204.879V202.807C520.383 202.518 520.295 202.294 520.117 202.135C519.949 201.967 519.697 201.883 519.361 201.883H517.849V204.879ZM525.102 198.453V197.193H526.432V198.453L525.662 200.651H524.682L525.102 198.453ZM527.272 198.453V197.193H528.602V198.453L527.832 200.651H526.852L527.272 198.453ZM533.782 206.993V205.593H535.182V206.993L534.314 208.953H533.222L533.782 206.993ZM405.043 218.405V219.665H403.713V218.405L404.483 216.207H405.463L405.043 218.405ZM407.213 218.405V219.665H405.883V218.405L406.653 216.207H407.633L407.213 218.405ZM414.704 225.671C414.396 225.886 414.022 225.993 413.584 225.993H413.01C412.188 225.993 411.586 225.82 411.204 225.475C410.821 225.12 410.63 224.546 410.63 223.753V221.233C410.63 220.449 410.821 219.88 411.204 219.525C411.596 219.17 412.198 218.993 413.01 218.993H414.634V216.193H415.824V225.993H414.704V225.671ZM413.724 224.943C414.032 224.943 414.26 224.864 414.41 224.705C414.559 224.537 414.634 224.36 414.634 224.173V220.043H412.87C412.524 220.043 412.263 220.122 412.086 220.281C411.908 220.44 411.82 220.664 411.82 220.953V224.033C411.82 224.322 411.908 224.546 412.086 224.705C412.263 224.864 412.524 224.943 412.87 224.943H413.724ZM421.452 216.193V217.453H420.122V216.193H421.452ZM418.134 220.043V218.993H421.382V224.943H423.454V225.993H420.192V220.043H418.134ZM430.413 225.993C430.291 225.993 430.156 225.956 430.007 225.881C429.867 225.806 429.745 225.704 429.643 225.573C429.428 225.853 429.143 225.993 428.789 225.993H427.543C426.833 225.993 426.315 225.853 425.989 225.573C425.671 225.284 425.513 224.794 425.513 224.103V223.823C425.513 222.376 426.194 221.653 427.557 221.653H429.293V220.953C429.293 220.664 429.204 220.44 429.027 220.281C428.849 220.122 428.588 220.043 428.243 220.043H426.073V218.993H428.103C428.915 218.993 429.512 219.17 429.895 219.525C430.287 219.88 430.483 220.449 430.483 221.233V224.593C430.483 224.733 430.534 224.84 430.637 224.915C430.749 224.98 430.931 225.013 431.183 225.013V225.993H430.413ZM428.649 224.943C428.929 224.943 429.106 224.878 429.181 224.747C429.255 224.616 429.293 224.448 429.293 224.243V222.703H427.543C427.3 222.703 427.099 222.782 426.941 222.941C426.782 223.1 426.703 223.3 426.703 223.543V224.243C426.703 224.486 426.759 224.663 426.871 224.775C426.983 224.887 427.16 224.943 427.403 224.943H428.649ZM438.043 224.243C438.043 224.831 437.861 225.27 437.497 225.559C437.143 225.848 436.625 225.993 435.943 225.993H433.857V224.943H436.083C436.335 224.943 436.527 224.892 436.657 224.789C436.788 224.677 436.853 224.518 436.853 224.313V223.571C436.853 223.151 436.653 222.941 436.251 222.941H435.733C435.08 222.941 434.59 222.801 434.263 222.521C433.946 222.232 433.787 221.779 433.787 221.163V220.757C433.787 220.132 433.965 219.684 434.319 219.413C434.674 219.133 435.197 218.993 435.887 218.993H437.763V220.043H435.747C435.514 220.043 435.327 220.099 435.187 220.211C435.047 220.314 434.977 220.468 434.977 220.673V221.177C434.977 221.392 435.038 221.55 435.159 221.653C435.29 221.756 435.453 221.807 435.649 221.807H436.125C436.751 221.807 437.227 221.961 437.553 222.269C437.88 222.568 438.043 223.016 438.043 223.613V224.243ZM443.994 225.993C443.518 225.993 443.154 225.839 442.902 225.531C442.65 225.223 442.524 224.817 442.524 224.313V220.043H441.194V218.993H442.524V217.313H443.714V218.993H445.758V220.043H443.714V224.383C443.714 224.588 443.765 224.733 443.868 224.817C443.97 224.901 444.129 224.943 444.344 224.943H445.758V225.993H443.994ZM453.64 223.753C453.64 224.537 453.444 225.106 453.052 225.461C452.67 225.816 452.072 225.993 451.26 225.993H450.798C449.986 225.993 449.384 225.816 448.992 225.461C448.61 225.106 448.418 224.537 448.418 223.753V221.233C448.418 220.449 448.61 219.88 448.992 219.525C449.384 219.17 449.986 218.993 450.798 218.993H451.26C452.072 218.993 452.67 219.17 453.052 219.525C453.444 219.88 453.64 220.449 453.64 221.233V223.753ZM452.45 220.953C452.45 220.664 452.362 220.44 452.184 220.281C452.007 220.122 451.746 220.043 451.4 220.043H450.658C450.313 220.043 450.052 220.122 449.874 220.281C449.697 220.44 449.608 220.664 449.608 220.953V224.033C449.608 224.322 449.697 224.546 449.874 224.705C450.052 224.864 450.313 224.943 450.658 224.943H451.4C451.746 224.943 452.007 224.864 452.184 224.705C452.362 224.546 452.45 224.322 452.45 224.033V220.953ZM459.045 225.993C458.728 225.993 458.448 225.881 458.205 225.657C457.972 225.433 457.855 225.078 457.855 224.593V217.243H455.797V216.193H459.045V224.523C459.045 224.672 459.082 224.78 459.157 224.845C459.232 224.91 459.358 224.943 459.535 224.943H461.397V225.993H459.045ZM466.815 216.193V217.453H465.485V216.193H466.815ZM463.497 220.043V218.993H466.745V224.943H468.817V225.993H465.555V220.043H463.497ZM473.998 225.993C473.177 225.993 472.575 225.82 472.192 225.475C471.809 225.12 471.618 224.546 471.618 223.753V221.233C471.618 220.449 471.809 219.88 472.192 219.525C472.584 219.17 473.186 218.993 473.998 218.993H475.804V220.043H473.858C473.513 220.043 473.251 220.122 473.074 220.281C472.897 220.44 472.808 220.664 472.808 220.953V224.033C472.808 224.322 472.897 224.546 473.074 224.705C473.251 224.864 473.513 224.943 473.858 224.943H475.804V225.993H473.998ZM479.739 217.453V216.193H481.069V217.453L480.299 219.651H479.319L479.739 217.453ZM481.909 217.453V216.193H483.239V217.453L482.469 219.651H481.489L481.909 217.453ZM489.539 218.993V220.393H488.139V218.993H489.539ZM489.539 224.593V225.993H488.139V224.593H489.539ZM503.33 218.405V219.665H502V218.405L502.77 216.207H503.75L503.33 218.405ZM505.5 218.405V219.665H504.17V218.405L504.94 216.207H505.92L505.5 218.405ZM512.585 217.243H509.197V216.193H513.747V217.551L511.283 225.993H510.037L512.585 217.243ZM521.657 223.781C521.657 224.556 521.471 225.12 521.097 225.475C520.724 225.82 520.117 225.993 519.277 225.993H518.885C518.045 225.993 517.439 225.82 517.065 225.475C516.692 225.12 516.505 224.556 516.505 223.781V222.605C516.505 221.793 516.809 221.219 517.415 220.883C516.921 220.538 516.673 219.996 516.673 219.259V218.377C516.673 217.63 516.869 217.08 517.261 216.725C517.653 216.37 518.213 216.193 518.941 216.193H519.221C519.949 216.193 520.509 216.37 520.901 216.725C521.293 217.08 521.489 217.63 521.489 218.377V219.259C521.489 219.996 521.242 220.538 520.747 220.883C521.354 221.219 521.657 221.793 521.657 222.605V223.781ZM518.773 217.243C518.456 217.252 518.227 217.341 518.087 217.509C517.957 217.668 517.891 217.915 517.891 218.251V219.399C517.891 219.698 517.975 219.94 518.143 220.127C518.321 220.304 518.54 220.402 518.801 220.421H519.277C519.567 220.421 519.805 220.328 519.991 220.141C520.178 219.954 520.271 219.707 520.271 219.399V218.251C520.271 217.896 520.192 217.64 520.033 217.481C519.884 217.322 519.632 217.243 519.277 217.243H518.773ZM520.439 222.479C520.439 222.171 520.346 221.928 520.159 221.751C519.973 221.564 519.725 221.471 519.417 221.471H518.745C518.437 221.471 518.19 221.564 518.003 221.751C517.817 221.928 517.723 222.171 517.723 222.479V223.921C517.723 224.266 517.798 224.523 517.947 224.691C518.097 224.859 518.33 224.943 518.647 224.943H519.403C519.758 224.943 520.019 224.864 520.187 224.705C520.355 224.537 520.439 224.276 520.439 223.921V222.479ZM525.102 217.453V216.193H526.432V217.453L525.662 219.651H524.682L525.102 217.453ZM527.272 217.453V216.193H528.602V217.453L527.832 219.651H526.852L527.272 217.453ZM533.782 225.993V224.593H535.182V225.993L534.314 227.953H533.222L533.782 225.993ZM405.043 237.405V238.665H403.713V237.405L404.483 235.207H405.463L405.043 237.405ZM407.213 237.405V238.665H405.883V237.405L406.653 235.207H407.633L407.213 237.405ZM411.652 240.933V244.993H410.434V235.193H413.066C413.859 235.193 414.456 235.37 414.858 235.725C415.268 236.07 415.474 236.621 415.474 237.377V238.721C415.474 239.776 415.054 240.434 414.214 240.695L416.16 244.993H414.83L413.024 240.933H411.652ZM414.256 237.251C414.256 236.896 414.172 236.64 414.004 236.481C413.845 236.322 413.588 236.243 413.234 236.243H411.652V239.883H413.234C413.588 239.883 413.845 239.804 414.004 239.645C414.172 239.477 414.256 239.216 414.256 238.861V237.251ZM419.212 240.933V244.993H417.994V235.193H420.626C421.419 235.193 422.017 235.37 422.418 235.725C422.829 236.07 423.034 236.621 423.034 237.377V238.721C423.034 239.776 422.614 240.434 421.774 240.695L423.72 244.993H422.39L420.584 240.933H419.212ZM421.816 237.251C421.816 236.896 421.732 236.64 421.564 236.481C421.405 236.322 421.149 236.243 420.794 236.243H419.212V239.883H420.794C421.149 239.883 421.405 239.804 421.564 239.645C421.732 239.477 421.816 239.216 421.816 238.861V237.251ZM426.815 236.453V235.193H428.145V236.453L427.375 238.651H426.395L426.815 236.453ZM428.985 236.453V235.193H430.315V236.453L429.545 238.651H428.565L428.985 236.453ZM436.615 237.993V239.393H435.215V237.993H436.615ZM436.615 243.593V244.993H435.215V243.593H436.615ZM450.406 237.405V238.665H449.076V237.405L449.846 235.207H450.826L450.406 237.405ZM452.576 237.405V238.665H451.246V237.405L452.016 235.207H452.996L452.576 237.405ZM458.219 243.943V236.299L456.245 237.027V235.893L458.079 235.193H459.409V243.943H460.935V244.993H456.385V243.943H458.219ZM468.257 242.781C468.257 243.556 468.071 244.12 467.697 244.475C467.324 244.82 466.717 244.993 465.877 244.993H464.043V243.943H466.003C466.358 243.943 466.619 243.864 466.787 243.705C466.955 243.537 467.039 243.276 467.039 242.921V241.143C467.039 240.835 466.946 240.592 466.759 240.415C466.573 240.228 466.325 240.135 466.017 240.135H464.183V235.193H468.047V236.243H465.373V239.085H465.947C466.666 239.085 467.231 239.262 467.641 239.617C468.052 239.972 468.257 240.522 468.257 241.269V242.781ZM472.178 236.453V235.193H473.508V236.453L472.738 238.651H471.758L472.178 236.453ZM474.348 236.453V235.193H475.678V236.453L474.908 238.651H473.928L474.348 236.453ZM407.381 259.863C407.008 259.863 406.746 259.924 406.597 260.045C406.457 260.157 406.387 260.395 406.387 260.759V263.965C406.387 264.59 406.27 265.029 406.037 265.281C405.804 265.542 405.412 265.673 404.861 265.673H403.951V264.693H404.665C404.889 264.693 405.048 264.656 405.141 264.581C405.244 264.516 405.295 264.38 405.295 264.175V260.759C405.295 260.292 405.407 259.91 405.631 259.611C405.864 259.312 406.149 259.144 406.485 259.107C406.149 259.051 405.864 258.874 405.631 258.575C405.407 258.276 405.295 257.894 405.295 257.427V254.011C405.295 253.806 405.244 253.67 405.141 253.605C405.048 253.53 404.889 253.493 404.665 253.493H403.951V252.513H404.861C405.412 252.513 405.804 252.644 406.037 252.905C406.27 253.157 406.387 253.596 406.387 254.221V257.427C406.387 257.791 406.457 258.034 406.597 258.155C406.746 258.267 407.008 258.323 407.381 258.323V259.863Z" fill="#FAC81B"/>
</g>
<defs>
<filter id="filter0_f_382_20" x="188.153" y="96.2004" width="196.151" height="196.103" filterUnits="userSpaceOnUse" color-interpolation-filters="sRGB">
<feFlood flood-opacity="0" result="BackgroundImageFix"/>
<feBlend mode="normal" in="SourceGraphic" in2="BackgroundImageFix" result="shape"/>
<feGaussianBlur stdDeviation="1.5" result="effect1_foregroundBlur_382_20"/>
</filter>
<filter id="filter1_i_382_20" x="191.153" y="99.2004" width="190.151" height="194.103" filterUnits="userSpaceOnUse" color-interpolation-filters="sRGB">
<feFlood flood-opacity="0" result="BackgroundImageFix"/>
<feBlend mode="normal" in="SourceGraphic" in2="BackgroundImageFix" result="shape"/>
<feColorMatrix in="SourceAlpha" type="matrix" values="0 0 0 0 0 0 0 0 0 0 0 0 0 0 0 0 0 0 127 0" result="hardAlpha"/>
<feOffset dy="4"/>
<feGaussianBlur stdDeviation="2"/>
<feComposite in2="hardAlpha" operator="arithmetic" k2="-1" k3="1"/>
<feColorMatrix type="matrix" values="0 0 0 0 0 0 0 0 0 0 0 0 0 0 0 0 0 0 0.25 0"/>
<feBlend mode="normal" in2="shape" result="effect1_innerShadow_382_20"/>
</filter>
<radialGradient id="paint0_radial_382_20" cx="0" cy="0" r="1" gradientUnits="userSpaceOnUse" gradientTransform="translate(384.541 178.782) rotate(47.9837) scale(194.659 239.323)">
<stop stop-opacity="0"/>
<stop offset="1" stop-color="#1E293B"/>
</radialGradient>
<linearGradient id="paint1_linear_382_20" x1="384.54" y1="20.5264" x2="384.54" y2="360.583" gradientUnits="userSpaceOnUse">
<stop stop-color="#FAC91A"/>
<stop offset="1" stop-color="#EF7A14"/>
</linearGradient>
<radialGradient id="paint2_radial_382_20" cx="0" cy="0" r="1" gradientUnits="userSpaceOnUse" gradientTransform="translate(384.541 181.327) rotate(47.9837) scale(152.583 187.593)">
<stop stop-opacity="0"/>
<stop offset="1" stop-color="#2B2614"/>
</radialGradient>
<linearGradient id="paint3_linear_382_20" x1="384.541" y1="57.2781" x2="384.541" y2="323.832" gradientUnits="userSpaceOnUse">
<stop stop-color="#FAC81B"/>
<stop offset="1" stop-color="#F07B14"/>
</linearGradient>
<radialGradient id="paint4_radial_382_20" cx="0" cy="0" r="1" gradientUnits="userSpaceOnUse" gradientTransform="translate(387.776 184.488) scale(134.541 180.319)">
<stop stop-color="#2A1300"/>
<stop offset="1" stop-color="#100C00" stop-opacity="0"/>
</radialGradient>
<linearGradient id="paint5_linear_382_20" x1="482.727" y1="99.4502" x2="482.727" y2="289.054" gradientUnits="userSpaceOnUse">
<stop stop-color="#FBBF23"/>
<stop offset="1" stop-color="#F07B14"/>
</linearGradient>
<linearGradient id="paint6_linear_382_20" x1="286.354" y1="99.4504" x2="286.354" y2="289.054" gradientUnits="userSpaceOnUse">
<stop stop-color="#FAC81A"/>
<stop offset="1" stop-color="#FAC81B" stop-opacity="0"/>
</linearGradient>
<linearGradient id="paint7_linear_382_20" x1="206.093" y1="117.488" x2="380.052" y2="272.103" gradientUnits="userSpaceOnUse">
<stop stop-color="#1E293B"/>
<stop offset="1" stop-opacity="0"/>
</linearGradient>
<linearGradient id="paint8_linear_382_20" x1="286.354" y1="99.4504" x2="286.354" y2="289.054" gradientUnits="userSpaceOnUse">
<stop stop-color="#FBC61C"/>
<stop offset="1" stop-color="#EF7914"/>
</linearGradient>
<linearGradient id="paint9_linear_382_20" x1="382.658" y1="319.214" x2="382.658" y2="61.895" gradientUnits="userSpaceOnUse">
<stop stop-color="#372B20" stop-opacity="0"/>
<stop offset="0.494792" stop-color="#FAC91A"/>
<stop offset="0.494892" stop-color="#FBC71C"/>
<stop offset="1" stop-color="#382A1E" stop-opacity="0"/>
</linearGradient>
<radialGradient id="paint10_radial_382_20" cx="0" cy="0" r="1" gradientUnits="userSpaceOnUse" gradientTransform="translate(381.54 185.323) rotate(-180) scale(134.718 180.556)">
<stop stop-color="#69FFC8"/>
<stop offset="1" stop-color="#0EF7AA" stop-opacity="0"/>
</radialGradient>
<clipPath id="clip0_382_20">
<rect width="195.021" height="46.0466" fill="white" transform="translate(192.754 153.263)"/>
</clipPath>
</defs>
</svg>
