<svg width="769" height="381" viewBox="0 0 769 381" fill="none" xmlns="http://www.w3.org/2000/svg">
<mask id="mask0_382_10" style="mask-type:alpha" maskUnits="userSpaceOnUse" x="0" y="0" width="769" height="381">
<rect x="0.540527" y="0.390381" width="768" height="380" fill="white"/>
</mask>
<g mask="url(#mask0_382_10)">
<circle opacity="0.3" cx="384.541" cy="190.39" r="375.522" fill="url(#paint0_radial_382_10)" fill-opacity="0.7" stroke="url(#paint1_linear_382_10)" stroke-width="0.5"/>
<circle opacity="0.5" cx="384.541" cy="190.39" r="291.141" fill="url(#paint2_radial_382_10)" fill-opacity="0.7" stroke="url(#paint3_linear_382_10)" stroke-width="0.5"/>
<circle opacity="0.7" cx="384.541" cy="190.391" r="197.741" fill="url(#paint4_radial_382_10)" fill-opacity="0.7" stroke="url(#paint5_linear_382_10)" stroke-width="0.5"/>
<circle cx="384.541" cy="190.391" r="123.194" fill="url(#paint6_radial_382_10)" fill-opacity="0.7" stroke="url(#paint7_linear_382_10)" stroke-width="0.5"/>
<path fill-rule="evenodd" clip-rule="evenodd" d="M324.576 178.639C327.341 178.639 329.578 180.891 329.578 183.677V197.102C329.578 227.697 354.19 252.497 384.541 252.497C414.898 252.497 439.503 227.697 439.503 197.102V183.677C439.503 180.891 441.74 178.639 444.505 178.639C447.262 178.639 449.499 180.891 449.499 183.677V197.102C449.499 233.262 420.412 262.565 384.541 262.565C348.669 262.565 319.582 233.262 319.582 197.102V183.677C319.582 180.891 321.819 178.639 324.576 178.639Z" fill="url(#paint8_linear_382_10)"/>
<path fill-rule="evenodd" clip-rule="evenodd" d="M339.562 163.542C339.562 138.504 359.699 118.216 384.527 118.216H384.535C409.363 118.216 429.501 138.504 429.501 163.542V197.104C429.501 222.135 409.363 242.43 384.527 242.43C359.699 242.43 339.562 222.135 339.562 197.104V163.542ZM362.88 149.852C360.423 149.852 358.43 151.845 358.43 154.303C358.43 156.761 360.423 158.754 362.88 158.754H384.533C386.992 158.754 388.984 156.761 388.984 154.303C388.984 151.845 386.992 149.852 384.533 149.852H362.88ZM358.43 175.958C358.43 173.5 360.423 171.507 362.88 171.507H398.969C401.427 171.507 403.42 173.5 403.42 175.958C403.42 178.416 401.427 180.409 398.969 180.409H362.88C360.423 180.409 358.43 178.416 358.43 175.958ZM362.88 193.156C360.423 193.156 358.43 195.149 358.43 197.607C358.43 200.065 360.423 202.058 362.88 202.058H406.186C408.645 202.058 410.637 200.065 410.637 197.607C410.637 195.149 408.645 193.156 406.186 193.156H362.88Z" fill="url(#paint9_linear_382_10)"/>
</g>
<defs>
<radialGradient id="paint0_radial_382_10" cx="0" cy="0" r="1" gradientUnits="userSpaceOnUse" gradientTransform="translate(384.541 164.389) rotate(63.9329) scale(355.582 347.003)">
<stop stop-opacity="0"/>
<stop offset="1" stop-color="#19120D"/>
</radialGradient>
<linearGradient id="paint1_linear_382_10" x1="384.541" y1="-185.132" x2="384.541" y2="565.913" gradientUnits="userSpaceOnUse">
<stop stop-color="#FAC81B"/>
<stop offset="1" stop-color="#F18316"/>
</linearGradient>
<radialGradient id="paint2_radial_382_10" cx="0" cy="0" r="1" gradientUnits="userSpaceOnUse" gradientTransform="translate(384.541 170.232) rotate(63.9329) scale(275.681 269.03)">
<stop stop-opacity="0"/>
<stop offset="1" stop-color="#19120D"/>
</radialGradient>
<linearGradient id="paint3_linear_382_10" x1="384.541" y1="-100.75" x2="384.541" y2="481.531" gradientUnits="userSpaceOnUse">
<stop stop-color="#FAC81B"/>
<stop offset="1" stop-color="#F18316"/>
</linearGradient>
<radialGradient id="paint4_radial_382_10" cx="0" cy="0" r="1" gradientUnits="userSpaceOnUse" gradientTransform="translate(384.541 176.699) rotate(63.9329) scale(187.241 182.724)">
<stop stop-opacity="0"/>
<stop offset="1" stop-color="#19120D"/>
</radialGradient>
<linearGradient id="paint5_linear_382_10" x1="384.541" y1="-7.35034" x2="384.541" y2="388.132" gradientUnits="userSpaceOnUse">
<stop stop-color="#FAC81B"/>
<stop offset="1" stop-color="#F18316"/>
</linearGradient>
<radialGradient id="paint6_radial_382_10" cx="0" cy="0" r="1" gradientUnits="userSpaceOnUse" gradientTransform="translate(384.541 181.861) rotate(63.9329) scale(116.652 113.838)">
<stop stop-opacity="0"/>
<stop offset="1" stop-color="#19120D"/>
</radialGradient>
<linearGradient id="paint7_linear_382_10" x1="384.541" y1="67.1965" x2="384.541" y2="313.585" gradientUnits="userSpaceOnUse">
<stop stop-color="#FAC81B"/>
<stop offset="1" stop-color="#F18316"/>
</linearGradient>
<linearGradient id="paint8_linear_382_10" x1="384.541" y1="178.639" x2="384.541" y2="262.565" gradientUnits="userSpaceOnUse">
<stop stop-color="#FAC919"/>
<stop offset="0.51" stop-color="#FBBD24"/>
<stop offset="1" stop-color="#EE7312"/>
</linearGradient>
<linearGradient id="paint9_linear_382_10" x1="384.531" y1="118.216" x2="384.531" y2="242.43" gradientUnits="userSpaceOnUse">
<stop stop-color="#FAC919"/>
<stop offset="0.51" stop-color="#FBBD24"/>
<stop offset="1" stop-color="#EE7312"/>
</linearGradient>
</defs>
</svg>
