<?xml version="1.0" encoding="UTF-8"?>
<svg version="1.1" xmlns="http://www.w3.org/2000/svg" width="512" height="512">
<path d="M0 0 C0.93521484 0.13921875 1.87042969 0.2784375 2.83398438 0.421875 C13.44891517 2.09181313 23.58885914 3.87556916 30.48046875 12.94921875 C33.59318761 18.3566382 33.87690865 23.51976878 32.375 29.48046875 C29.8879154 36.81958893 25.63166566 41.1504773 19.1015625 45.16796875 C11.11487959 48.32998261 0.8227295 45.67845596 -7.37939453 44.15551758 C-40.63706555 37.98209523 -76.17952455 42.05121791 -107 56 C-107.9600293 56.43070801 -107.9600293 56.43070801 -108.93945312 56.87011719 C-123.94252338 63.70649157 -137.02227882 72.67442335 -149 84 C-150.30856702 85.10882489 -151.62094901 86.21316668 -152.9375 87.3125 C-180.28885587 111.31358939 -196.87742417 145.80609591 -204 181 C-204.22816406 182.11890625 -204.45632812 183.2378125 -204.69140625 184.390625 C-211.92862378 227.91515003 -200.28584627 273.33451074 -175.125 309.1875 C-171.16245074 314.7051774 -166.8303696 319.7204933 -162.17578125 324.671875 C-160.48066189 326.48568315 -158.90753465 328.3022971 -157.375 330.25 C-132.23672169 359.35748015 -88.74410537 377.14803234 -51 380 C-7.1793707 382.21998783 37.55486907 370.81228554 71.10546875 341.3203125 C72.97450752 339.62026914 74.83101471 337.90629758 76.671875 336.17578125 C78.48568315 334.48066189 80.3022971 332.90753465 82.25 331.375 C93.63272661 321.54446338 102.55092699 307.92278455 110 295 C110.98613281 293.32744141 110.98613281 293.32744141 111.9921875 291.62109375 C124.75674655 269.33431016 131.25071003 243.56071546 132.33544922 218.0012207 C133.0914011 200.39911637 133.0914011 200.39911637 139.75 194.0625 C145.53255857 189.50398667 151.69760901 188.14665546 159 189 C165.97346514 190.34927199 170.00972766 194.26326064 174 200 C184.09225624 230.27676871 166.60822772 278.51879252 153.51000977 305.34619141 C144.18127865 323.69169607 132.52344807 340.49547343 118.39453125 355.453125 C116.44879182 357.52265535 114.61317042 359.6186913 112.8125 361.8125 C109.56640972 365.63792084 105.83165943 368.77747617 102 372 C101.19433594 372.71671875 100.38867188 373.4334375 99.55859375 374.171875 C67.43138047 402.14037362 27.09610786 418.86333346 -15 424 C-16.07507813 424.13148438 -17.15015625 424.26296875 -18.2578125 424.3984375 C-74.38389253 429.82053923 -130.4468988 412.58178379 -174 377 C-177.95447516 373.62915083 -181.74169617 370.09535219 -185.47070312 366.47802734 C-186.97122304 365.02781222 -188.49159414 363.60121583 -190.015625 362.17578125 C-228.34582038 325.76710285 -249.23120562 271.16435838 -251.28125 219.0078125 C-252.7004181 158.75497888 -229.64886864 103.59808299 -188.46875 60.26953125 C-174.90499838 46.20821487 -159.89110704 34.78340176 -143 25 C-142.34628418 24.6189209 -141.69256836 24.2378418 -141.01904297 23.84521484 C-116.37960313 9.66802305 -89.12035346 1.51416914 -61 -2 C-59.99839844 -2.13148437 -58.99679688 -2.26296875 -57.96484375 -2.3984375 C-38.61914131 -4.45826769 -19.16539019 -2.85940227 0 0 Z " fill="#01BC7C" transform="translate(293,45)"/>
<path d="M0 0 C4.41089524 4.84151034 5.38147135 9.90171278 5.26171875 16.2578125 C4.40063226 25.2799426 -0.24943453 30.85890047 -6.36328125 37.22265625 C-8.85462491 39.84687158 -11.12113038 42.5463731 -13.375 45.375 C-17.24218863 50.1714071 -21.34980716 54.6704146 -25.55810547 59.16357422 C-28.67539336 62.51081785 -31.63566482 65.92995906 -34.5 69.5 C-38.31994011 74.26108478 -42.38938819 78.71273025 -46.55859375 83.1640625 C-49.67568554 86.51116869 -52.63581113 89.93014141 -55.5 93.5 C-59.31994011 98.26108478 -63.38938819 102.71273025 -67.55859375 107.1640625 C-70.67568554 110.51116869 -73.63581113 113.93014141 -76.5 117.5 C-80.31994011 122.26108478 -84.38938819 126.71273025 -88.55859375 131.1640625 C-91.67568554 134.51116869 -94.63581113 137.93014141 -97.5 141.5 C-101.31994011 146.26108478 -105.38938819 150.71273025 -109.55859375 155.1640625 C-112.67568554 158.51116869 -115.63581113 161.93014141 -118.5 165.5 C-122.31694851 170.25735611 -126.38165744 174.70718377 -130.54980469 179.15307617 C-133.76250062 182.60030918 -136.7993585 186.13437276 -139.75 189.8125 C-151.97665694 204.90305857 -151.97665694 204.90305857 -162 206.2734375 C-168.73318416 206.61535701 -174.65997228 204.49204092 -179.63728333 199.99763489 C-180.89685197 198.767465 -182.14317089 197.52362905 -183.37817383 196.26879883 C-184.06702667 195.58870758 -184.75587952 194.90861633 -185.46560669 194.20791626 C-187.72543762 191.96998245 -189.96661127 189.71438495 -192.20703125 187.45703125 C-193.77951841 185.88791494 -195.35274694 184.31954127 -196.92668152 182.75187683 C-200.21704513 179.46887153 -203.49822924 176.17702722 -206.77319336 172.87866211 C-210.96383086 168.65953901 -215.17651685 164.46326236 -219.39635181 160.27336597 C-222.64740616 157.04041183 -225.88641736 153.79560254 -229.12195396 150.54712486 C-230.67038076 148.99537166 -232.22250558 147.44729919 -233.7784214 145.90305519 C-235.95423595 143.73999268 -238.11329232 141.56144966 -240.26879883 139.37817383 C-240.90934708 138.74774673 -241.54989532 138.11731964 -242.20985413 137.4677887 C-247.19829175 132.36013676 -249.94081801 127.28794668 -250.375 120 C-250.01749517 112.69260131 -247.31835429 107.41347517 -241.953125 102.4765625 C-236.60742233 98.43521128 -230.60450782 97.08592582 -224 98 C-218.18245143 99.23943933 -214.74118549 101.82871925 -210.75 106.140625 C-209.0840114 107.91073788 -207.36314064 109.44202894 -205.5 111 C-201.28465647 114.62256085 -197.40810624 118.55360715 -193.5 122.5 C-189.16529237 126.87692538 -184.83134733 131.13509858 -180.1171875 135.10546875 C-174.84870568 139.81988514 -169.96332297 144.96858266 -165 150 C-159.72057059 145.84385345 -155.69926875 141.30640728 -151.51953125 136.05859375 C-148.79481206 132.75091138 -145.9315569 129.62304705 -143 126.5 C-138.54069002 121.73966909 -134.36197862 116.83526812 -130.27734375 111.74609375 C-127.33922549 108.20321701 -124.21768822 104.84558228 -121.08349609 101.47802734 C-118.11269934 98.26683127 -115.30031679 94.97363159 -112.5625 91.5625 C-108.71889943 86.78378372 -104.63039836 82.30842313 -100.44165039 77.83618164 C-97.32446055 74.48900673 -94.36426202 71.06994977 -91.5 67.5 C-88.15698041 63.3333379 -84.64884863 59.39580188 -81 55.5 C-76.54125556 50.73911006 -72.3620217 45.8353218 -68.27734375 40.74609375 C-65.33922549 37.20321701 -62.21768822 33.84558228 -59.08349609 30.47802734 C-56.11269934 27.26683127 -53.30031679 23.97363159 -50.5625 20.5625 C-46.63120644 15.67321974 -42.4573066 11.06839001 -38.16040039 6.50219727 C-35.94204245 4.13854336 -33.81399237 1.76584146 -31.796875 -0.7734375 C-29.26136334 -3.91526716 -26.60444023 -5.44990621 -22.8125 -6.75 C-13.82895035 -7.54853775 -7.13154183 -5.63222317 0 0 Z " fill="#01BB7C" transform="translate(420,136)"/>
</svg>
