<?xml version="1.0" encoding="UTF-8"?>
<svg xmlns="http://www.w3.org/2000/svg" width="1600" height="1000" viewBox="0 0 1600 1000" role="img" aria-labelledby="title desc">
  <title id="title">CARE HMIS goes live in a multi-specialty hospital pilot</title>
  <desc id="desc">September 2025 marked the launch of the CARE HMIS pilot at Sree Sudheendra Medical Mission Hospital, with reception, ENT, casualty, pharmacy, lab, billing, and scheduling workflows in live use.</desc>
  <defs>
    <pattern id="microgrid-care-hmis-live-hospital-pilot" width="44" height="44" patternUnits="userSpaceOnUse">
      <path d="M44 0H0V44" fill="none" stroke="#263238" stroke-width="1" opacity="0.08"/>
    </pattern>
    <linearGradient id="wash-care-hmis-live-hospital-pilot" x1="0" x2="1" y1="0" y2="1">
      <stop offset="0" stop-color="#fbf7f1"/>
      <stop offset="0.58" stop-color="#f4e7d1"/>
      <stop offset="1" stop-color="#ffffff"/>
    </linearGradient>
  </defs>
  <rect width="1600" height="1000" fill="url(#wash-care-hmis-live-hospital-pilot)"/>
  <rect width="1600" height="1000" fill="url(#microgrid-care-hmis-live-hospital-pilot)"/>
  <path d="M0 780 C230 700 320 860 505 760 C700 656 720 515 930 565 C1168 621 1258 448 1600 498 V1000 H0 Z" fill="#2f855a" opacity="0.08"/>
  <rect x="84" y="84" width="1432" height="832" rx="44" fill="none" stroke="#263238" stroke-width="3" opacity="0.14"/>
  <text x="140" y="180" fill="#2f855a" font-family="'Switzer', 'Inter', 'Helvetica Neue', Arial, sans-serif" font-size="28" font-weight="700" letter-spacing="2">CARE / OHC ARCHIVE</text>
  <text x="140" y="752" fill="#6a6f64" font-family="'Switzer', 'Inter', 'Helvetica Neue', Arial, sans-serif" font-size="26" font-weight="600">Sep 30, 2025</text>
  <text x="140" y="812" fill="#263238" font-family="'Switzer', 'Inter', 'Helvetica Neue', Arial, sans-serif" font-size="24" font-weight="700" letter-spacing="3">CARE / OPEN HEALTHCARE NETWORK</text>
  <g font-family="'Switzer', 'Inter', 'Helvetica Neue', Arial, sans-serif" font-size="74" font-weight="700" letter-spacing="0" fill="#263238">
    <text x="140" y="310">CARE HMIS goes</text>
    <text x="140" y="396">live in a</text>
    <text x="140" y="482">multi-specialty</text>
    <text x="140" y="568">hospital pilot</text>
  </g>
  <g transform="translate(61 -4)">
    <circle cx="1265" cy="220" r="116" fill="#0ea5a4" opacity="0.13"/>
    <rect x="870" y="174" width="560" height="610" rx="52" fill="#ffffff" opacity="0.46"/>

        <rect x="930" y="230" width="172" height="78" rx="18" fill="#f4e7d1" stroke="#2f855a" stroke-width="3"/>
        <rect x="952" y="253" width="82" height="10" rx="5" fill="#2f855a" opacity="0.85"/>
        <rect x="952" y="275" width="126" height="8" rx="4" fill="#263238" opacity="0.22"/>
        <rect x="1150" y="230" width="172" height="78" rx="18" fill="#ffffff" stroke="#b45309" stroke-width="3"/>
        <rect x="1172" y="253" width="82" height="10" rx="5" fill="#b45309" opacity="0.85"/>
        <rect x="1172" y="275" width="126" height="8" rx="4" fill="#263238" opacity="0.22"/>
        <rect x="930" y="355" width="172" height="78" rx="18" fill="#f4e7d1" stroke="#0ea5a4" stroke-width="3"/>
        <rect x="952" y="378" width="82" height="10" rx="5" fill="#0ea5a4" opacity="0.85"/>
        <rect x="952" y="400" width="126" height="8" rx="4" fill="#263238" opacity="0.22"/>
        <rect x="1150" y="355" width="172" height="78" rx="18" fill="#ffffff" stroke="#2f855a" stroke-width="3"/>
        <rect x="1172" y="378" width="82" height="10" rx="5" fill="#2f855a" opacity="0.85"/>
        <rect x="1172" y="400" width="126" height="8" rx="4" fill="#263238" opacity="0.22"/>
        <rect x="930" y="480" width="172" height="78" rx="18" fill="#f4e7d1" stroke="#b45309" stroke-width="3"/>
        <rect x="952" y="503" width="82" height="10" rx="5" fill="#b45309" opacity="0.85"/>
        <rect x="952" y="525" width="126" height="8" rx="4" fill="#263238" opacity="0.22"/>
        <rect x="1150" y="480" width="172" height="78" rx="18" fill="#ffffff" stroke="#0ea5a4" stroke-width="3"/>
        <rect x="1172" y="503" width="82" height="10" rx="5" fill="#0ea5a4" opacity="0.85"/>
        <rect x="1172" y="525" width="126" height="8" rx="4" fill="#263238" opacity="0.22"/>
        <rect x="930" y="605" width="172" height="78" rx="18" fill="#f4e7d1" stroke="#2f855a" stroke-width="3"/>
        <rect x="952" y="628" width="82" height="10" rx="5" fill="#2f855a" opacity="0.85"/>
        <rect x="952" y="650" width="126" height="8" rx="4" fill="#263238" opacity="0.22"/>
        <rect x="1150" y="605" width="172" height="78" rx="18" fill="#ffffff" stroke="#b45309" stroke-width="3"/>
        <rect x="1172" y="628" width="82" height="10" rx="5" fill="#b45309" opacity="0.85"/>
        <rect x="1172" y="650" width="126" height="8" rx="4" fill="#263238" opacity="0.22"/>
  </g>
  <path d="M140 676 H615" stroke="#b45309" stroke-width="8" stroke-linecap="round"/>
  <path d="M140 704 H455" stroke="#0ea5a4" stroke-width="8" stroke-linecap="round" opacity="0.9"/>
</svg>
