<?xml version="1.0" encoding="UTF-8"?>
<svg xmlns="http://www.w3.org/2000/svg" width="1600" height="1000" viewBox="0 0 1600 1000" role="img" aria-labelledby="title desc">
  <title id="title">Building the FHIR-aligned lab module for CARE</title>
  <desc id="desc">May 2025 advanced CARE HMIS with a FHIR-aligned lab module, Arike's CARE 3.0 migration, palliative care scale-out, and deeper hospital workflow discovery.</desc>
  <defs>
    <pattern id="microgrid-fhir-lab-module-and-care-3-deployments" width="44" height="44" patternUnits="userSpaceOnUse">
      <path d="M44 0H0V44" fill="none" stroke="#202a24" stroke-width="1" opacity="0.08"/>
    </pattern>
    <linearGradient id="wash-fhir-lab-module-and-care-3-deployments" x1="0" x2="1" y1="0" y2="1">
      <stop offset="0" stop-color="#f8f8f2"/>
      <stop offset="0.58" stop-color="#eef1d8"/>
      <stop offset="1" stop-color="#ffffff"/>
    </linearGradient>
  </defs>
  <rect width="1600" height="1000" fill="url(#wash-fhir-lab-module-and-care-3-deployments)"/>
  <rect width="1600" height="1000" fill="url(#microgrid-fhir-lab-module-and-care-3-deployments)"/>
  <path d="M0 780 C230 700 320 860 505 760 C700 656 720 515 930 565 C1168 621 1258 448 1600 498 V1000 H0 Z" fill="#166534" opacity="0.08"/>
  <rect x="84" y="84" width="1432" height="832" rx="44" fill="none" stroke="#202a24" stroke-width="3" opacity="0.14"/>
  <text x="140" y="180" fill="#166534" font-family="'Switzer', 'Inter', 'Helvetica Neue', Arial, sans-serif" font-size="28" font-weight="700" letter-spacing="2">CARE / OHC ARCHIVE</text>
  <text x="140" y="752" fill="#68746e" font-family="'Switzer', 'Inter', 'Helvetica Neue', Arial, sans-serif" font-size="26" font-weight="600">May 31, 2025</text>
  <text x="140" y="812" fill="#202a24" font-family="'Switzer', 'Inter', 'Helvetica Neue', Arial, sans-serif" font-size="24" font-weight="700" letter-spacing="3">CARE / OPEN HEALTHCARE NETWORK</text>
  <g font-family="'Switzer', 'Inter', 'Helvetica Neue', Arial, sans-serif" font-size="84" font-weight="700" letter-spacing="0" fill="#202a24">
    <text x="140" y="310">Building the</text>
    <text x="140" y="406">FHIR-aligned lab</text>
    <text x="140" y="502">module for CARE</text>
  </g>
  <g transform="translate(61 6)">
    <circle cx="1265" cy="220" r="116" fill="#2f80ed" opacity="0.13"/>
    <rect x="870" y="174" width="560" height="610" rx="52" fill="#ffffff" opacity="0.46"/>

      <rect x="910" y="198" width="485" height="545" rx="38" fill="#ffffff" stroke="#202a24" stroke-width="3" opacity="0.95"/>
      <rect x="955" y="250" width="235" height="390" rx="24" fill="#eef1d8" stroke="#166534" stroke-width="3" opacity="0.92"/>
      <text x="985" y="305" fill="#166534" font-family="'Switzer', 'Inter', 'Helvetica Neue', Arial, sans-serif" font-size="31" font-weight="800" letter-spacing="2">FHIR LAB</text>
      <rect x="985" y="350" width="150" height="14" rx="7" fill="#202a24" opacity="0.18"/>
      <rect x="985" y="392" width="170" height="14" rx="7" fill="#be5b45" opacity="0.78"/>
      <rect x="985" y="434" width="122" height="14" rx="7" fill="#202a24" opacity="0.18"/>
      <rect x="985" y="494" width="72" height="72" rx="12" fill="#ffffff" opacity="0.95"/>
      <path d="M999 508h14v14h-14zM1027 508h14v14h-14zM999 536h14v14h-14zM1041 536h14v14h-14z" fill="#166534" opacity="0.9"/>
      <rect x="1228" y="260" width="54" height="302" rx="27" fill="#ffffff" stroke="#202a24" stroke-width="3"/>
      <path d="M1230 455 C1244 438 1264 438 1280 455 V534 C1280 550 1268 562 1255 562 C1242 562 1230 550 1230 534 Z" fill="#be5b45" opacity="0.82"/>
      <rect x="1304" y="300" width="54" height="262" rx="27" fill="#ffffff" stroke="#202a24" stroke-width="3"/>
      <path d="M1306 470 C1320 453 1340 453 1356 470 V536 C1356 551 1344 562 1331 562 C1318 562 1306 551 1306 536 Z" fill="#2f80ed" opacity="0.86"/>
      <circle cx="1248" cy="410" r="11" fill="#f8f8f2"/>
      <circle cx="1272" cy="382" r="8" fill="#f8f8f2"/>
      <circle cx="1325" cy="430" r="9" fill="#f8f8f2"/>
      <circle cx="1342" cy="396" r="6" fill="#f8f8f2"/>
      <rect x="1208" y="612" width="175" height="48" rx="24" fill="#166534" opacity="0.12"/>
      <path d="M1228 635 H1362" stroke="#166534" stroke-width="9" stroke-linecap="round" opacity="0.9"/>

  </g>
  <path d="M140 676 H615" stroke="#be5b45" stroke-width="8" stroke-linecap="round"/>
  <path d="M140 704 H455" stroke="#2f80ed" stroke-width="8" stroke-linecap="round" opacity="0.9"/>
</svg>
