<?xml version="1.0" encoding="UTF-8"?>
<svg xmlns="http://www.w3.org/2000/svg" width="1600" height="1000" viewBox="0 0 1600 1000" role="img" aria-labelledby="title desc">
  <title id="title">Smarter dashboards, queues, and clinical forms in CARE</title>
  <desc id="desc">April 2026 focused on clinical extensibility, FHIRPath form logic, mobile queue boards, payment traceability, HMIS dashboards, and continued scale for the Kerala Palliative Care Grid.</desc>
  <defs>
    <pattern id="microgrid-smarter-care-dashboards-queues-forms" width="44" height="44" patternUnits="userSpaceOnUse">
      <path d="M44 0H0V44" fill="none" stroke="#1f2a44" stroke-width="1" opacity="0.08"/>
    </pattern>
    <linearGradient id="wash-smarter-care-dashboards-queues-forms" x1="0" x2="1" y1="0" y2="1">
      <stop offset="0" stop-color="#f4f6fb"/>
      <stop offset="0.58" stop-color="#dff2ea"/>
      <stop offset="1" stop-color="#ffffff"/>
    </linearGradient>
  </defs>
  <rect width="1600" height="1000" fill="url(#wash-smarter-care-dashboards-queues-forms)"/>
  <rect width="1600" height="1000" fill="url(#microgrid-smarter-care-dashboards-queues-forms)"/>
  <path d="M0 780 C230 700 320 860 505 760 C700 656 720 515 930 565 C1168 621 1258 448 1600 498 V1000 H0 Z" fill="#2563eb" opacity="0.08"/>
  <rect x="84" y="84" width="1432" height="832" rx="44" fill="none" stroke="#1f2a44" stroke-width="3" opacity="0.14"/>
  <text x="140" y="180" fill="#2563eb" font-family="'Switzer', 'Inter', 'Helvetica Neue', Arial, sans-serif" font-size="28" font-weight="700" letter-spacing="2">CARE / OHC ARCHIVE</text>
  <text x="140" y="752" fill="#667085" font-family="'Switzer', 'Inter', 'Helvetica Neue', Arial, sans-serif" font-size="26" font-weight="600">Apr 30, 2026</text>
  <text x="140" y="812" fill="#1f2a44" font-family="'Switzer', 'Inter', 'Helvetica Neue', Arial, sans-serif" font-size="24" font-weight="700" letter-spacing="3">CARE / OPEN HEALTHCARE NETWORK</text>
  <g font-family="'Switzer', 'Inter', 'Helvetica Neue', Arial, sans-serif" font-size="74" font-weight="700" letter-spacing="0" fill="#1f2a44">
    <text x="140" y="310">Smarter</text>
    <text x="140" y="396">dashboards,</text>
    <text x="140" y="482">queues, and</text>
    <text x="140" y="568">clinical forms in</text>
  </g>
  <g transform="translate(57 9)">
    <circle cx="1265" cy="220" r="116" fill="#d97706" opacity="0.13"/>
    <rect x="870" y="174" width="560" height="610" rx="52" fill="#ffffff" opacity="0.46"/>

      <rect x="915" y="215" width="440" height="510" rx="28" fill="#ffffff" stroke="#1f2a44" stroke-width="3" opacity="0.94"/>
      <rect x="955" y="260" width="150" height="116" rx="18" fill="#2563eb" opacity="0.95"/>
      <rect x="1130" y="260" width="180" height="116" rx="18" fill="#dff2ea" stroke="#0f766e" stroke-width="3"/>
      <rect x="955" y="410" width="355" height="40" rx="20" fill="#1f2a44" opacity="0.1"/>
      <rect x="955" y="485" width="112" height="150" rx="18" fill="#d97706" opacity="0.82"/>
      <rect x="1088" y="525" width="98" height="110" rx="18" fill="#0f766e" opacity="0.82"/>
      <rect x="1208" y="455" width="102" height="180" rx="18" fill="#2563eb" opacity="0.82"/>
      <path d="M965 690 C1030 640 1090 704 1145 646 C1208 580 1260 620 1322 552" fill="none" stroke="#0f766e" stroke-width="7" stroke-linecap="round"/>

  </g>
  <path d="M140 676 H615" stroke="#0f766e" stroke-width="8" stroke-linecap="round"/>
  <path d="M140 704 H455" stroke="#d97706" stroke-width="8" stroke-linecap="round" opacity="0.9"/>
</svg>
