<?xml version="1.0" encoding="UTF-8"?>
<svg xmlns="http://www.w3.org/2000/svg" width="1600" height="1000" viewBox="0 0 1600 1000" role="img" aria-labelledby="title desc">
  <title id="title">Why open healthcare infrastructure needs a foundation</title>
  <desc id="desc">Code is necessary, but not sufficient. Health systems need stewardship, release discipline, documentation, security, and an ecosystem that can outlast any one deployment.</desc>
  <defs>
    <pattern id="microgrid-why-open-healthcare-needs-a-foundation" width="44" height="44" patternUnits="userSpaceOnUse">
      <path d="M44 0H0V44" fill="none" stroke="#12312c" stroke-width="1" opacity="0.08"/>
    </pattern>
    <linearGradient id="wash-why-open-healthcare-needs-a-foundation" x1="0" x2="1" y1="0" y2="1">
      <stop offset="0" stop-color="#f7f3e8"/>
      <stop offset="0.58" stop-color="#e2eee7"/>
      <stop offset="1" stop-color="#ffffff"/>
    </linearGradient>
  </defs>
  <rect width="1600" height="1000" fill="url(#wash-why-open-healthcare-needs-a-foundation)"/>
  <rect width="1600" height="1000" fill="url(#microgrid-why-open-healthcare-needs-a-foundation)"/>
  <path d="M0 780 C230 700 320 860 505 760 C700 656 720 515 930 565 C1168 621 1258 448 1600 498 V1000 H0 Z" fill="#0b6b55" opacity="0.08"/>
  <rect x="84" y="84" width="1432" height="832" rx="44" fill="none" stroke="#12312c" stroke-width="3" opacity="0.14"/>
  <text x="140" y="180" fill="#0b6b55" font-family="'Switzer', 'Inter', 'Helvetica Neue', Arial, sans-serif" font-size="28" font-weight="700" letter-spacing="2">FOUNDATION / OHC ARCHIVE</text>
  <text x="140" y="752" fill="#5f6f69" font-family="'Switzer', 'Inter', 'Helvetica Neue', Arial, sans-serif" font-size="26" font-weight="600">May 27, 2026</text>
  <text x="140" y="812" fill="#12312c" font-family="'Switzer', 'Inter', 'Helvetica Neue', Arial, sans-serif" font-size="24" font-weight="700" letter-spacing="3">CARE / OPEN HEALTHCARE NETWORK</text>
  <g font-family="'Switzer', 'Inter', 'Helvetica Neue', Arial, sans-serif" font-size="74" font-weight="700" letter-spacing="0" fill="#12312c">
    <text x="140" y="310">Why open</text>
    <text x="140" y="396">healthcare</text>
    <text x="140" y="482">infrastructure</text>
    <text x="140" y="568">needs a foundation</text>
  </g>
  <g transform="translate(59 2)">
    <circle cx="1265" cy="220" r="116" fill="#e9b44c" opacity="0.13"/>
    <rect x="870" y="174" width="560" height="610" rx="52" fill="#ffffff" opacity="0.46"/>

    <g opacity="0.75">
      <rect x="930" y="235" width="34" height="34" rx="9" fill="#d66f3d" opacity="0.18"/><rect x="988" y="235" width="34" height="34" rx="9" fill="#0b6b55" opacity="0.32"/><rect x="1046" y="235" width="34" height="34" rx="9" fill="#0b6b55" opacity="0.46"/><rect x="1104" y="235" width="34" height="34" rx="9" fill="#0b6b55" opacity="0.18"/><rect x="1162" y="235" width="34" height="34" rx="9" fill="#d66f3d" opacity="0.32"/><rect x="1220" y="235" width="34" height="34" rx="9" fill="#0b6b55" opacity="0.46"/><rect x="1278" y="235" width="34" height="34" rx="9" fill="#0b6b55" opacity="0.18"/><rect x="1336" y="235" width="34" height="34" rx="9" fill="#0b6b55" opacity="0.32"/><rect x="930" y="289" width="34" height="34" rx="9" fill="#0b6b55" opacity="0.32"/><rect x="988" y="289" width="34" height="34" rx="9" fill="#0b6b55" opacity="0.46"/><rect x="1046" y="289" width="34" height="34" rx="9" fill="#0b6b55" opacity="0.18"/><rect x="1104" y="289" width="34" height="34" rx="9" fill="#d66f3d" opacity="0.32"/><rect x="1162" y="289" width="34" height="34" rx="9" fill="#0b6b55" opacity="0.46"/><rect x="1220" y="289" width="34" height="34" rx="9" fill="#0b6b55" opacity="0.18"/><rect x="1278" y="289" width="34" height="34" rx="9" fill="#0b6b55" opacity="0.32"/><rect x="1336" y="289" width="34" height="34" rx="9" fill="#d66f3d" opacity="0.46"/><rect x="930" y="343" width="34" height="34" rx="9" fill="#0b6b55" opacity="0.46"/><rect x="988" y="343" width="34" height="34" rx="9" fill="#0b6b55" opacity="0.18"/><rect x="1046" y="343" width="34" height="34" rx="9" fill="#d66f3d" opacity="0.32"/><rect x="1104" y="343" width="34" height="34" rx="9" fill="#0b6b55" opacity="0.46"/><rect x="1162" y="343" width="34" height="34" rx="9" fill="#0b6b55" opacity="0.18"/><rect x="1220" y="343" width="34" height="34" rx="9" fill="#0b6b55" opacity="0.32"/><rect x="1278" y="343" width="34" height="34" rx="9" fill="#d66f3d" opacity="0.46"/><rect x="1336" y="343" width="34" height="34" rx="9" fill="#0b6b55" opacity="0.18"/><rect x="930" y="397" width="34" height="34" rx="9" fill="#0b6b55" opacity="0.18"/><rect x="988" y="397" width="34" height="34" rx="9" fill="#d66f3d" opacity="0.32"/><rect x="1046" y="397" width="34" height="34" rx="9" fill="#0b6b55" opacity="0.46"/><rect x="1104" y="397" width="34" height="34" rx="9" fill="#0b6b55" opacity="0.18"/><rect x="1162" y="397" width="34" height="34" rx="9" fill="#0b6b55" opacity="0.32"/><rect x="1220" y="397" width="34" height="34" rx="9" fill="#d66f3d" opacity="0.46"/><rect x="1278" y="397" width="34" height="34" rx="9" fill="#0b6b55" opacity="0.18"/><rect x="1336" y="397" width="34" height="34" rx="9" fill="#0b6b55" opacity="0.32"/><rect x="930" y="451" width="34" height="34" rx="9" fill="#d66f3d" opacity="0.32"/><rect x="988" y="451" width="34" height="34" rx="9" fill="#0b6b55" opacity="0.46"/><rect x="1046" y="451" width="34" height="34" rx="9" fill="#0b6b55" opacity="0.18"/><rect x="1104" y="451" width="34" height="34" rx="9" fill="#0b6b55" opacity="0.32"/><rect x="1162" y="451" width="34" height="34" rx="9" fill="#d66f3d" opacity="0.46"/><rect x="1220" y="451" width="34" height="34" rx="9" fill="#0b6b55" opacity="0.18"/><rect x="1278" y="451" width="34" height="34" rx="9" fill="#0b6b55" opacity="0.32"/><rect x="1336" y="451" width="34" height="34" rx="9" fill="#0b6b55" opacity="0.46"/><rect x="930" y="505" width="34" height="34" rx="9" fill="#0b6b55" opacity="0.46"/><rect x="988" y="505" width="34" height="34" rx="9" fill="#0b6b55" opacity="0.18"/><rect x="1046" y="505" width="34" height="34" rx="9" fill="#0b6b55" opacity="0.32"/><rect x="1104" y="505" width="34" height="34" rx="9" fill="#d66f3d" opacity="0.46"/><rect x="1162" y="505" width="34" height="34" rx="9" fill="#0b6b55" opacity="0.18"/><rect x="1220" y="505" width="34" height="34" rx="9" fill="#0b6b55" opacity="0.32"/><rect x="1278" y="505" width="34" height="34" rx="9" fill="#0b6b55" opacity="0.46"/><rect x="1336" y="505" width="34" height="34" rx="9" fill="#d66f3d" opacity="0.18"/><rect x="930" y="559" width="34" height="34" rx="9" fill="#0b6b55" opacity="0.18"/><rect x="988" y="559" width="34" height="34" rx="9" fill="#0b6b55" opacity="0.32"/><rect x="1046" y="559" width="34" height="34" rx="9" fill="#d66f3d" opacity="0.46"/><rect x="1104" y="559" width="34" height="34" rx="9" fill="#0b6b55" opacity="0.18"/><rect x="1162" y="559" width="34" height="34" rx="9" fill="#0b6b55" opacity="0.32"/><rect x="1220" y="559" width="34" height="34" rx="9" fill="#0b6b55" opacity="0.46"/><rect x="1278" y="559" width="34" height="34" rx="9" fill="#d66f3d" opacity="0.18"/><rect x="1336" y="559" width="34" height="34" rx="9" fill="#0b6b55" opacity="0.32"/><rect x="930" y="613" width="34" height="34" rx="9" fill="#0b6b55" opacity="0.32"/><rect x="988" y="613" width="34" height="34" rx="9" fill="#d66f3d" opacity="0.46"/><rect x="1046" y="613" width="34" height="34" rx="9" fill="#0b6b55" opacity="0.18"/><rect x="1104" y="613" width="34" height="34" rx="9" fill="#0b6b55" opacity="0.32"/><rect x="1162" y="613" width="34" height="34" rx="9" fill="#0b6b55" opacity="0.46"/><rect x="1220" y="613" width="34" height="34" rx="9" fill="#d66f3d" opacity="0.18"/><rect x="1278" y="613" width="34" height="34" rx="9" fill="#0b6b55" opacity="0.32"/><rect x="1336" y="613" width="34" height="34" rx="9" fill="#0b6b55" opacity="0.46"/><rect x="930" y="667" width="34" height="34" rx="9" fill="#d66f3d" opacity="0.46"/><rect x="988" y="667" width="34" height="34" rx="9" fill="#0b6b55" opacity="0.18"/><rect x="1046" y="667" width="34" height="34" rx="9" fill="#0b6b55" opacity="0.32"/><rect x="1104" y="667" width="34" height="34" rx="9" fill="#0b6b55" opacity="0.46"/><rect x="1162" y="667" width="34" height="34" rx="9" fill="#d66f3d" opacity="0.18"/><rect x="1220" y="667" width="34" height="34" rx="9" fill="#0b6b55" opacity="0.32"/><rect x="1278" y="667" width="34" height="34" rx="9" fill="#0b6b55" opacity="0.46"/><rect x="1336" y="667" width="34" height="34" rx="9" fill="#0b6b55" opacity="0.18"/><rect x="930" y="721" width="34" height="34" rx="9" fill="#0b6b55" opacity="0.18"/><rect x="988" y="721" width="34" height="34" rx="9" fill="#0b6b55" opacity="0.32"/><rect x="1046" y="721" width="34" height="34" rx="9" fill="#0b6b55" opacity="0.46"/><rect x="1104" y="721" width="34" height="34" rx="9" fill="#d66f3d" opacity="0.18"/><rect x="1162" y="721" width="34" height="34" rx="9" fill="#0b6b55" opacity="0.32"/><rect x="1220" y="721" width="34" height="34" rx="9" fill="#0b6b55" opacity="0.46"/><rect x="1278" y="721" width="34" height="34" rx="9" fill="#0b6b55" opacity="0.18"/><rect x="1336" y="721" width="34" height="34" rx="9" fill="#d66f3d" opacity="0.32"/>
    </g>
    <path d="M910 705 C1020 610 1125 760 1240 640 C1295 584 1325 580 1370 615" fill="none" stroke="#e9b44c" stroke-width="9" stroke-linecap="round"/>

  </g>
  <path d="M140 676 H615" stroke="#d66f3d" stroke-width="8" stroke-linecap="round"/>
  <path d="M140 704 H455" stroke="#e9b44c" stroke-width="8" stroke-linecap="round" opacity="0.9"/>
</svg>
