<?xml version="1.0" encoding="UTF-8"?><svg id="a" xmlns="http://www.w3.org/2000/svg" xmlns:xlink="http://www.w3.org/1999/xlink" viewBox="0 0 1024 352"><defs><linearGradient id="b" x1="299.1" y1="10.06" x2="195.92" y2="325.51" gradientUnits="userSpaceOnUse"><stop offset="0" stop-color="#10b981"/><stop offset="1" stop-color="#105b46"/></linearGradient></defs><path d="M301.82,218.25c3.21.14,14.06.07,19.23-6.42,2.36-2.97,3.14-6.78,2.12-10.45-1.32-4.79-6.28-7.6-11.07-6.27-.1.03-.2.06-.29.09,0-.1-.02-.2-.03-.31-.51-4.94-4.93-8.53-9.87-8.02-3.79.39-7.06,2.5-8.96,5.78-4.17,7.17-.27,17.31,1.02,20.24l2.26,5.12,5.59.24Z" fill="#ff2152"/><path d="M209.75,292.42l.78,3.3-8.3.71c-.19-.02-.39-.04-.57-.03-.8.02-1.62.12-2.42.17.01,0,.02-.02.04-.02,1.18-.75,2.35-1.69,3.02-2.95.36-.69.5-1.47.5-2.24,0-.39-.05-.79-.11-1.18-.01-.07-.09-.37-.16-.63-.91-2.12-2.94-3.45-2.94-3.45,1.84.65,2.84,1.65,3.4,2.57.4-.36.8-.72,1.2-1.09l3.41-2.36,2.15,7.21ZM206.47,254.87c.57-1.56,1.29-3.2,1.57-4.84.26-1.5.26-3.08.23-4.61,0-.46-.05-.92-.1-1.37h0c-.03-.45-.08-.86-.15-1.23h0c-.18-.95-.19-.95-.54-2.22-.23.73-.2,1.41-1.48,2.64-1.75,1.6-4.36,3.01-5.23,3.46-12.52,5.76-26.32,8.34-40,9.44-5.5.4-11,.57-16.49.36,5.21,4.06,9.85,11.25,10.2,17.76.23,4.38-1.87,9.85-2.45,14.36-.23,1.8-.72,6.97.27,8.4.23.33,2.66.69,2.78,2.27l6.25-.3c-.11-.12-.22-.24-.32-.37-1.4-1.94-1.02-4.34-.95-4.79.1-.64.25-1.51.92-2.33.65-.8,1.93-1.72,3.24-1.41.94.22,1.79,1.03,1.66,1.49-.12.43-.99.17-1.77.85-.82.71-.89,1.88-.92,2.33-.09,1.66.73,3.03,2.32,3.6.73.26,1.51.32,2.29.32.16,0,.33.02.49.01.28,0,.56-.05.83-.08,2.09-.19,4.05-.77,6.07-1.38,1.75-.53,3.65-1.32,5.06-2.5.58-.48.95-1.05.97-1.08,1.38-2.15,1.11-4.86,1.44-7.28.32-2.33,1.31-4.7,2.29-6.82,2.05-4.46,5-8.51,8.64-11.81,1.55-1.41,3.03-2.88,4.62-4.26.81-.71,1.88-1.62,3.42-3.09,2.92-2.82,4.39-4.22,4.85-5.49ZM214.25,294.54c-.07.38-.14.97-.1,1.65.5.12,1.05.25,1.67.39l-1.96-10.11.38,8.06ZM269.86,228.26c0-4.16.48-8.98,1.25-13.99-2.75,3.58-5.38,7.25-7.91,11.02-3.53,6.08-4.98,13.37-5.46,20.45-.61,7.35-1.09,14.72-1.14,22.09-.11,6.19.05,12.37.75,18.5l1.23,7.65c.35,2.38,1.14,2.39,3.54,2.43l12.7.2c3.13.05,5.48-2.84,4.81-5.9-4.49-20.3-9.75-41.71-9.76-62.45ZM391.25,187.06c-4.28,20.81-14.53,41.01-31.47,53.83-19.71,14.92-47.85,17.06-68.6,2.96-4.84-3.29-9.45-7.5-12.46-12.55-.73-1.23-1.48-2.55-2.01-3.87-.4-1,.3-1.74,1.35-1.55.46.08.88.32,1.3.54.67.35,1.23.55,1.89.1.56-.38.86-1.06.92-1.72.08-.93-.29-1.81-.27-2.74.01-.57.1-1.75.95-1.57,1.48,2.93,3.71,7.59,12.09,8.98l2.97.28s28.88,3.72,39.76-11.23c4.61-6.33,7.18-13.64,5.48-21.31-2.22-10-12.13-16.31-22.13-14.09-.21.05-.41.1-.62.15-.03-1.59-.21-3.19-1.29-5.37-6.33-12.83-23.83-15.99-34-5.92-1.22,1.21-2.33,2.56-3.29,4.05-1.91,2.93-3.11,6.17-3.84,9.5-.08.14-.17.27-.25.4-.63,2.03-1.28,4.26-1.92,6.62-2.5,6.2-5.48,12.08-8.64,17.84-2.41,4.51-5.05,8.35-7.61,12.9-4.8,9.15-4.96,19.7-4.83,29.71.04,12.9.19,25.91,2.17,38.68.33,4.58-3.02,8.03-7.71,7.75l-26.79-1.59c-.1,0-.2-.02-.3-.03-.14-.27-.32-.55-.56-.83-.8-.93-1.75-1.29-2.17-1.43-.32-1.26-.68-2.99-.87-5.07-.21-2.21-.61-6.5.84-11.26,1.01-3.31,2.97-6.23,4.12-9.49.57-1.63.85-3.07.7-4.82-.15-1.73-.61-3.42-1.19-5.05-1.02-2.84-2.41-5.55-3.27-8.44-.32-1.08-.56-2.25-.22-3.32.55-1.7,2.41-2.69,3.82-3.59,1.44-.92,2.96-2.08,3.74-3.63.48-.95-.14-1.8-.14-1.8,0,0,.7-.81.45-3.08-.26-2.27-1.45-1.19-1.45-1.19,0,0-4.94,2.26-5.83,2.62-.88.35-3.14-.86-3.94-.94-.8-.09-4.19,1.03-4.19,1.03-.22-.55-.61-1.34-1.28-2.14-.89-1.05-2.3-2.16-2.68-1.87-.18.13-.22.63.62,2.43-1.91-1.46-2.49-1.46-2.69-1.29-.23.19-.08.71.22,1.61,0,0,0,0,0,0,.16.45.47,1.37.65,1.91l-1.17-1.54c-17.61,13.09-40.32,17.9-61.91,19.39h0c-.45-.04-.85,2.67-.88,3.71-.76.1-1.51.4-2.2.73-.81.39-1.71.88-2.02,1.79-.29.86-.29,1.84-.8,2.62-.18.27-.4.49-.64.71-.16.15-.29.28-.31.51-.05.41.13.86.25,1.24.17.56.42,1.07.81,1.5.58.66,1.58.96,1.97,1.78.17.37.31.84.28,1.25-.03.46-.33.54-.7.66-.33.11-.67.21-1.01.3-.82.24-1.64.46-2.46.71-.44.13-.89.25-1.31.45-8.19,3.85-10.84,13.37-8.28,21.6-.4.54-.99,1.16-1.87,1.62-.49.26-1.05.48-1.64.65-1.32.39-2.76.47-3.91-.06-.68-.32-1.26-.83-1.63-1.67-.57-1.32-.33-2.89.4-4.13.66-1.12,1.79-2.17,2.97-2.72.86-.4,1.98-.45,2.37-1.48.05-.14.22-.62.02-1.08-.35-.78-1.51-.88-1.72-.89-.76-.07-1.38.19-1.81.4-2.87,1.43-5.26,5.07-5.33,8.28-.02,1.19.19,2.29.63,3.23l-11.39-.18c-4.03-.06-7.07-3.74-6.29-7.7,3.97-20.26,1.23-40.41-.93-51.27-3.08-11.11-4.66-22.84-4.46-34.96.03-2.08.12-4.14.26-6.19-1.81,5.25-3.34,10.14-4.59,14.37.11.83.69,5.52-.19,8.32-.96,3.08-4.07,5.67-4.07,5.67,0,0-3.96-6.14,2.29-14.66,7.3-45.58,24.81-70.59,24.81-70.59v.04c22.13-35.64,61.88-59.11,106.88-58.39.89.01,1.77.06,2.66.09-.82,6.69-.34,13.59,1.38,20.1,6.17,23.33,25.13,38.76,45.33,50.19-15.54-10.58-28.82-24.24-33.79-43.04-3.87-14.62-1.51-31.2,7.97-42.98,15.63-19.42,41.6-15.73,63.07-6.4,16.44-4.28,31-1.6,42.89,5.32,0,0,0-.01,0-.01,45.03,21.05,53.54,77.85,44.53,121.62ZM360.69,118.55c.06-3.52-2.75-6.41-6.27-6.47-3.52-.06-6.41,2.75-6.47,6.26-.06,3.52,2.75,6.41,6.27,6.47,3.52.06,6.41-2.75,6.47-6.27Z" fill="url(#b)"/><path d="M461.52,246.33c-.26-4.39-.65-9.53-1.17-15.44-.53-5.9-1.1-12.82-1.73-20.76-.63-2.61-1.44-4.78-2.43-6.5-.99-1.72-2.41-3.21-4.23-4.47-1.83-1.25-4.26-1.93-7.29-2.04-2.72.11-4.78.78-6.19,2.04-1.41,1.25-2.41,2.64-2.98,4.15-.58,1.51-.92,3.42-1.02,5.72.52,7.94.99,15.05,1.41,21.31.42,6.27.76,11.78,1.02,16.53.26,4.75.29,8.96.08,12.62-.52,4.7-1.62,8.78-3.29,12.22-1.67,3.45-4.13,5.43-7.37,5.95-1.57,0-2.85-.29-3.84-.86-.99-.57-1.93-1.3-2.82-2.19-.89-.89-1.86-1.85-2.9-2.9-1.05-1.04-2.4-2.04-4.07-2.98-1.78-.83-3.37-1.38-4.78-1.65-1.41-.26-2.95-.21-4.62.16-1.67.37-3.29,1.23-4.86,2.59-1.46,1.25-2.35,2.56-2.66,3.92-.31,1.36-.37,2.61-.16,3.76.21,1.15.73,2.46,1.57,3.92,2.51,3.55,5.56,6.56,9.17,9.01,3.61,2.46,7.37,4.34,11.28,5.64,3.92,1.31,7.6,2.06,11.05,2.27,5.54.1,10.63-1.12,15.28-3.68,4.65-2.56,8.54-6.21,11.67-10.97,3.13-4.75,5.12-10.37,5.95-16.85.31-2.71.44-5.72.39-9.01-.05-3.29-.21-7.13-.47-11.52Z" fill="#2e3332"/><path d="M557.2,233.64c-.21-2.51-.58-4.57-1.1-6.19-.53-1.62-1.57-3.11-3.13-4.47-1.57-1.36-3.76-2.14-6.58-2.35-2.72-.21-4.91.05-6.58.78-1.67.73-3.24,1.88-4.7,3.45-.05.59-.09,1.17-.14,1.75-1.1-.73-2.24-1.4-3.47-1.99-5.75-2.77-12.85-4.1-21.31-4-5.54,0-10.74.99-15.59,2.98-4.86,1.99-9.09,4.76-12.69,8.31-3.61,3.55-6.45,7.78-8.54,12.69-2.09,4.91-3.19,10.34-3.29,16.3,0,5.23.97,10.14,2.9,14.73,1.93,4.6,4.7,8.65,8.31,12.15,3.61,3.5,7.78,6.22,12.54,8.15,4.75,1.93,9.9,2.9,15.44,2.9,6.9-.21,12.85-1.36,17.87-3.45,3.46-1.44,6.45-3.27,9.04-5.43.12,1.34.23,2.67.36,4.02,1.57,1.57,3.16,2.77,4.78,3.6,1.62.84,3.68,1.25,6.19,1.25s4.26-.47,5.56-1.41c1.3-.94,2.25-2.01,2.82-3.21.57-1.2.96-2.69,1.17-4.47-.31-6.48-.57-12.07-.78-16.77-.21-4.7-.34-9.04-.39-13.01-.05-3.97.05-8.02.31-12.14.26-4.13.6-8.86,1.02-14.18ZM526.56,265.37c-.99,2.35-2.3,4.42-3.92,6.19-1.62,1.78-3.5,3.19-5.64,4.23-2.14,1.05-4.42,1.57-6.82,1.57-3.03,0-5.67-.73-7.91-2.19-2.25-1.46-3.97-3.53-5.17-6.19-1.2-2.66-1.8-5.67-1.8-9.01,0-2.61.42-5.14,1.25-7.6.83-2.45,2.04-4.67,3.61-6.66,1.57-1.98,3.37-3.61,5.41-4.86,2.04-1.25,4.2-1.88,6.5-1.88,3.14,0,5.88.68,8.23,2.04,2.35,1.36,4.23,3.42,5.64,6.19,1.41,2.77,2.12,6.35,2.12,10.74,0,2.61-.5,5.09-1.49,7.44Z" fill="#2e3332"/><path d="M640.33,241.63c-2.14-3.76-4.52-6.87-7.13-9.33-2.61-2.45-5.28-4.44-7.99-5.95-2.72-1.51-5.28-2.69-7.68-3.53-3.97-1.15-8.1-1.51-12.38-1.1-4.29.42-8.44,1.49-12.46,3.21-1.41.6-2.76,1.27-4.09,1.97-.12-.24-.24-.49-.38-.72-.84-1.41-2.04-2.66-3.6-3.76-1.57-1.1-3.76-1.7-6.58-1.8-2.61-.1-4.68.23-6.19,1.02-1.51.78-2.61,1.72-3.29,2.82-.68,1.1-1.23,2.48-1.65,4.15-.52,6.37-.92,12.09-1.18,17.16-.26,5.07-.39,9.87-.39,14.42s.13,9.19.39,13.95c.26,4.76.71,9.95,1.33,15.59.73,1.67,1.57,3.11,2.51,4.31.94,1.2,2.17,2.25,3.68,3.13,1.51.89,3.42,1.39,5.72,1.49,2.71.1,4.8-.26,6.27-1.1,1.46-.83,2.53-1.85,3.21-3.06.68-1.2,1.23-2.74,1.65-4.62-.42-6.06-.68-11.57-.78-16.53-.1-4.57-.14-8.9-.15-13.03.4-1.83.93-3.65,1.64-5.46,1.2-3.08,3.16-5.72,5.88-7.91,2.51-2.19,5.2-3.61,8.07-4.23,2.87-.63,5.59-.44,8.15.55,2.56.99,4.67,2.95,6.35,5.88,1.98,3.55,3.11,8.36,3.37,14.42.26,6.06-.08,12.43-1.02,19.12-.11,2.41.08,4.44.55,6.11.47,1.67,1.38,3.27,2.74,4.78,1.36,1.52,3.39,2.64,6.11,3.37,3.45.84,6.14.86,8.07.08,1.93-.78,3.37-1.85,4.31-3.21.94-1.36,1.67-3.18,2.19-5.49,1.04-6.79,1.59-12.72,1.65-17.79.05-5.07-.5-10.21-1.65-15.44-1.36-5.22-3.11-9.72-5.25-13.48Z" fill="#2e3332"/><path d="M769.9,225.88c-1.57-1.31-3.92-2.12-7.05-2.43-3.03-.31-5.41-.05-7.13.78-1.72.84-2.98,1.88-3.76,3.13-.78,1.25-1.39,2.87-1.8,4.86-.42,2.82-.92,5.54-1.49,8.15-.58,2.61-1.28,5.3-2.12,8.07-.84,2.77-1.93,5.98-3.29,9.64-1.67,3.87-3.21,7.11-4.62,9.72-1.41,2.61-2.38,3.87-2.9,3.76-.73-1.04-1.65-3.42-2.74-7.13-1.1-3.71-2.59-8.38-4.47-14.03l-5.64-19.75c-.56-.75-1.12-1.43-1.69-2.05-.59-.95-1.4-1.87-2.46-2.73-1.25-1.01-2.96-1.71-5.12-2.13-.9-.24-1.87-.35-2.92-.35-2.49-.17-4.53.1-6.07.84-1.72.84-2.98,1.88-3.76,3.13-.78,1.25-1.44,2.87-1.96,4.86-.42,2.82-.91,5.54-1.49,8.15-.58,2.61-1.28,5.3-2.11,8.07-.84,2.77-1.94,5.98-3.29,9.64-1.67,3.87-3.21,7.11-4.62,9.72-1.41,2.61-2.38,3.87-2.9,3.76-.73-1.04-1.65-3.42-2.74-7.13-1.1-3.71-2.59-8.38-4.47-14.03l-5.64-19.59c-1.25-1.77-2.48-3.18-3.68-4.23-1.2-1.04-2.72-1.9-4.54-2.58-1.83-.68-4.05-.81-6.66-.39-2.51.31-4.36,1.1-5.56,2.35-1.2,1.25-1.99,2.64-2.35,4.15-.37,1.51-.45,3.32-.24,5.41l14.1,46.39c1.25,3.34,2.77,6.11,4.55,8.31,1.78,2.19,3.68,3.92,5.72,5.17,2.04,1.25,4.02,2.14,5.95,2.66,1.93.53,3.63.84,5.09.94,3.24.21,6.61-.57,10.11-2.35,3.5-1.77,6.95-4.83,10.34-9.17,2.59-3.3,5.01-7.48,7.26-12.51l2.07,6.95c1.25,3.34,2.79,6.11,4.62,8.31,1.83,2.19,3.76,3.92,5.8,5.17,2.04,1.25,4.02,2.14,5.96,2.66,1.93.53,3.63.84,5.09.94,3.24.21,6.61-.57,10.11-2.35,3.5-1.77,6.95-4.83,10.34-9.17,3.39-4.33,6.5-10.16,9.33-17.47,1.04-2.09,2.19-4.99,3.45-8.7,1.25-3.71,2.43-7.81,3.53-12.3,1.1-4.49,1.75-8.88,1.96-13.16,0-2.3-.29-4.21-.86-5.72-.58-1.51-1.65-2.92-3.21-4.23Z" fill="#2e3332"/><path d="M864.34,233.64c-.21-2.51-.58-4.57-1.1-6.19-.53-1.62-1.57-3.11-3.14-4.47-1.57-1.36-3.76-2.14-6.58-2.35-2.72-.21-4.91.05-6.58.78-1.67.73-3.24,1.88-4.7,3.45-.05.59-.09,1.17-.14,1.75-1.1-.73-2.24-1.4-3.47-1.99-5.75-2.77-12.85-4.1-21.31-4-5.54,0-10.74.99-15.59,2.98-4.86,1.99-9.09,4.76-12.69,8.31-3.6,3.55-6.45,7.78-8.54,12.69-2.09,4.91-3.19,10.34-3.29,16.3,0,5.23.97,10.14,2.9,14.73,1.93,4.6,4.7,8.65,8.31,12.15,3.6,3.5,7.78,6.22,12.54,8.15,4.75,1.93,9.9,2.9,15.44,2.9,6.9-.21,12.85-1.36,17.87-3.45,3.46-1.44,6.45-3.27,9.04-5.43.12,1.34.23,2.67.36,4.02,1.57,1.57,3.16,2.77,4.78,3.6,1.62.84,3.68,1.25,6.19,1.25s4.26-.47,5.56-1.41c1.31-.94,2.25-2.01,2.82-3.21.57-1.2.97-2.69,1.18-4.47-.31-6.48-.58-12.07-.78-16.77-.21-4.7-.34-9.04-.39-13.01-.05-3.97.05-8.02.31-12.14.26-4.13.6-8.86,1.02-14.18ZM833.7,265.37c-.99,2.35-2.3,4.42-3.92,6.19-1.62,1.78-3.5,3.19-5.64,4.23-2.14,1.05-4.42,1.57-6.82,1.57-3.03,0-5.67-.73-7.91-2.19-2.25-1.46-3.97-3.53-5.17-6.19-1.2-2.66-1.8-5.67-1.8-9.01,0-2.61.42-5.14,1.25-7.6.83-2.45,2.04-4.67,3.61-6.66,1.57-1.98,3.37-3.61,5.41-4.86,2.04-1.25,4.21-1.88,6.5-1.88,3.13,0,5.88.68,8.23,2.04,2.35,1.36,4.23,3.42,5.64,6.19,1.41,2.77,2.11,6.35,2.11,10.74,0,2.61-.5,5.09-1.49,7.44Z" fill="#2e3332"/><path d="M941.84,236.69c-.26-1.31-.73-2.45-1.41-3.45-.68-.99-1.54-2.06-2.59-3.21-2.19-2.09-4.99-3.94-8.38-5.56-3.4-1.62-7.37-2.66-11.91-3.13-4.54-.47-9.69-.13-15.44,1.02-2.61.67-5.08,1.62-7.43,2.82-.76-1-1.74-1.92-2.91-2.74-1.57-1.1-3.76-1.7-6.58-1.8-2.61-.1-4.68.23-6.19,1.02-1.52.78-2.61,1.72-3.29,2.82-.68,1.1-1.23,2.48-1.65,4.15-.52,6.37-.91,12.09-1.18,17.16-.26,5.07-.39,9.87-.39,14.42s.13,9.19.39,13.95c.26,4.76.71,9.95,1.33,15.59.73,1.67,1.57,3.11,2.51,4.31.94,1.2,2.17,2.25,3.68,3.13,1.51.89,3.42,1.39,5.72,1.49,2.71.1,4.8-.26,6.27-1.1,1.46-.83,2.53-1.85,3.21-3.06.68-1.2,1.23-2.74,1.65-4.62-.42-6.06-.68-11.57-.78-16.53-.1-4.96-.16-9.66-.16-14.1,0-.24,0-.49,0-.73.52-3.12,1.72-5.86,3.6-8.2,1.88-2.35,4.18-4.31,6.9-5.88,2.82-1.46,5.56-2.3,8.23-2.51,2.66-.21,4.88.21,6.66,1.25,2.4,1.25,4.49,2.19,6.27,2.82,1.77.63,3.63.92,5.56.86,1.93-.05,3.63-.71,5.09-1.96,1.67-1.46,2.69-2.87,3.06-4.23.37-1.36.42-2.69.16-3.99Z" fill="#2e3332"/><path d="M492.43,201.86c6.79,1.25,12.69,1.43,17.71.55,5.01-.89,9.27-2.38,12.77-4.47,3.5-2.09,6.29-4.28,8.38-6.58,2.09-2.3,4.13-5.07,6.11-8.31.63-1.46,1.07-2.74,1.33-3.84.26-1.1.26-2.35,0-3.76-.26-1.41-.97-2.77-2.11-4.07-1.15-1.3-2.93-2.53-5.33-3.68-2.82-1.25-5.25-1.78-7.29-1.57-2.04.21-3.71.78-5.02,1.72-1.31.94-2.59,2.25-3.84,3.92-.84,1.67-2.33,3.34-4.47,5.01-2.14,1.67-4.44,2.98-6.9,3.92-2.46.94-4.78,1.31-6.97,1.1-1.88-.42-3.71-1.1-5.49-2.04-1.78-.94-3.4-2.17-4.86-3.68-1.46-1.51-2.77-3.24-3.92-5.17-1.15-1.93-2.06-4.02-2.74-6.27-.68-2.25-1.02-4.57-1.02-6.97-.1-2.4.26-5.2,1.1-8.38.83-3.19,2.09-6.43,3.76-9.72,1.67-3.29,3.66-6.29,5.95-9.01,2.3-2.71,4.91-4.88,7.84-6.5,2.92-1.62,6.06-2.27,9.4-1.96,2.61.31,4.73,1.07,6.35,2.27,1.62,1.2,2.87,2.64,3.76,4.31.89,1.67,1.51,3.29,1.88,4.86.37,1.57.65,3.4.86,5.49.94,2.72,2.11,4.78,3.53,6.19,1.41,1.41,3.42,2.27,6.03,2.59,2.51.31,4.52,0,6.03-.94,1.51-.94,2.95-2.51,4.31-4.7,1.36-4.18,1.51-8.65.47-13.4-1.05-4.75-3.19-9.22-6.42-13.4-3.24-4.18-7.5-7.62-12.77-10.34-5.28-2.71-11.36-4.07-18.26-4.07-7.63,0-14.24,1.44-19.82,4.31-5.59,2.87-10.29,6.58-14.1,11.13-3.82,4.54-6.82,9.4-9.01,14.58-2.19,5.17-3.76,10.06-4.7,14.65-.84,3.87-1.1,8.1-.78,12.69.31,4.6,1.25,9.19,2.82,13.79,1.57,4.6,3.86,8.96,6.9,13.09,3.03,4.13,6.9,7.66,11.6,10.58,4.7,2.93,10.34,4.96,16.93,6.11Z" fill="#2e3332"/><path d="M582.11,202.95c6.9-.21,12.85-1.36,17.87-3.45,3.46-1.44,6.45-3.27,9.04-5.43.12,1.34.23,2.67.36,4.02,1.57,1.57,3.16,2.77,4.78,3.6,1.62.84,3.68,1.25,6.19,1.25s4.26-.47,5.56-1.41c1.31-.94,2.25-2.01,2.82-3.21.57-1.2.97-2.69,1.18-4.47-.31-6.48-.58-12.07-.78-16.77-.21-4.7-.34-9.04-.39-13.01-.05-3.97.05-8.02.31-12.14.26-4.13.6-8.86,1.02-14.18-.21-2.51-.58-4.57-1.1-6.19-.52-1.62-1.57-3.11-3.13-4.47-1.57-1.36-3.76-2.14-6.58-2.35-2.72-.21-4.91.05-6.58.78-1.67.73-3.24,1.88-4.7,3.45-.05.59-.09,1.17-.14,1.75-1.1-.73-2.24-1.4-3.47-1.99-5.75-2.77-12.85-4.1-21.31-4-5.54,0-10.73.99-15.59,2.98-4.86,1.99-9.09,4.76-12.69,8.31-3.6,3.55-6.45,7.78-8.54,12.69-2.09,4.91-3.19,10.34-3.29,16.3,0,5.23.97,10.14,2.9,14.73,1.93,4.6,4.7,8.65,8.31,12.15,3.6,3.5,7.78,6.22,12.54,8.15,4.75,1.93,9.9,2.9,15.44,2.9ZM569.42,156.49c.83-2.45,2.04-4.67,3.6-6.66,1.57-1.98,3.37-3.61,5.41-4.86,2.04-1.25,4.21-1.88,6.5-1.88,3.13,0,5.88.68,8.23,2.04,2.35,1.36,4.23,3.42,5.64,6.19,1.41,2.77,2.11,6.35,2.11,10.74,0,2.61-.5,5.09-1.49,7.44-.99,2.35-2.3,4.42-3.92,6.19-1.62,1.78-3.5,3.19-5.64,4.23-2.14,1.05-4.41,1.57-6.82,1.57-3.03,0-5.67-.73-7.91-2.19-2.25-1.46-3.97-3.53-5.17-6.19-1.2-2.66-1.8-5.67-1.8-9.01,0-2.61.42-5.14,1.25-7.6Z" fill="#2e3332"/><path d="M658.12,201.7c1.46-.83,2.53-1.85,3.21-3.06.68-1.2,1.23-2.74,1.65-4.62-.42-6.06-.68-11.57-.78-16.53-.11-4.96-.16-9.66-.16-14.1,0-.24,0-.49,0-.73.52-3.12,1.72-5.86,3.6-8.2,1.88-2.35,4.18-4.31,6.9-5.88,2.82-1.46,5.56-2.3,8.23-2.51,2.66-.21,4.88.21,6.66,1.25,2.4,1.25,4.49,2.19,6.27,2.82,1.78.63,3.63.92,5.56.86,1.93-.05,3.63-.71,5.09-1.96,1.67-1.46,2.69-2.87,3.06-4.23.37-1.36.42-2.69.16-3.99-.26-1.31-.73-2.45-1.41-3.45-.68-.99-1.54-2.06-2.59-3.21-2.19-2.09-4.99-3.94-8.38-5.56-3.39-1.62-7.37-2.66-11.91-3.13-4.54-.47-9.69-.13-15.44,1.02-2.61.67-5.08,1.62-7.43,2.82-.76-1-1.74-1.92-2.91-2.74-1.57-1.1-3.76-1.7-6.58-1.8-2.61-.1-4.68.23-6.19,1.02-1.51.78-2.61,1.72-3.29,2.82-.68,1.1-1.23,2.48-1.65,4.15-.52,6.37-.92,12.09-1.18,17.16-.26,5.07-.39,9.87-.39,14.42s.13,9.19.39,13.95c.26,4.76.71,9.95,1.33,15.59.73,1.67,1.57,3.11,2.51,4.31.94,1.2,2.17,2.25,3.68,3.13,1.51.89,3.42,1.39,5.72,1.49,2.71.1,4.8-.26,6.27-1.1Z" fill="#2e3332"/><path d="M714.89,188.85c2.3,3.76,5.62,7,9.95,9.72,4.33,2.72,9.95,4.75,16.85,6.11,4.18.73,8.41.89,12.69.47,4.28-.42,8.17-1.13,11.68-2.12,3.5-.99,7.44-2.38,11.83-4.15,1.15-.83,1.98-1.67,2.51-2.51.52-.83.83-1.83.94-2.98.1-1.15-.31-2.45-1.25-3.92-.84-1.46-1.86-2.51-3.06-3.13-1.2-.63-2.41-1.02-3.61-1.18-1.2-.16-2.53-.23-4-.23-1.67.42-3.42.73-5.25.94-1.83.21-4.18.45-7.05.7-2.87.26-6.3.39-10.26.39-3.66,0-6.64-.63-8.93-1.88-2.3-1.25-4-2.74-5.09-4.47-1.1-1.72-1.86-3.37-2.27-4.94,2.4.21,4.55.39,6.43.55,1.88.16,4,.29,6.35.39,2.35.11,4.78.16,7.29.16s4.88-.05,7.13-.16c2.25-.1,4.2-.37,5.88-.78,6.16-1.46,10.6-4.18,13.32-8.15,2.71-3.97,4.02-8.46,3.92-13.48-.1-3.03-.65-6.16-1.65-9.4-.99-3.24-2.66-6.32-5.01-9.25-2.35-2.92-5.56-5.35-9.64-7.29-4.07-1.93-9.19-3.11-15.36-3.53-6.06-.42-11.6.42-16.61,2.51-5.02,2.09-9.3,5.04-12.85,8.85-3.55,3.82-6.3,8.18-8.23,13.09-1.94,4.91-2.85,9.93-2.74,15.04.1,4.18.57,8.38,1.41,12.62.83,4.23,2.4,8.23,4.7,11.99ZM731.82,155.78c.63-2.09,1.65-4.13,3.06-6.11,1.41-1.98,3.11-3.66,5.09-5.02,1.98-1.36,4.18-2.09,6.58-2.19,3.66-.31,6.53-.08,8.62.7,2.09.78,3.61,1.99,4.54,3.61.94,1.62,1.41,3.68,1.41,6.19,0,1.57-.26,2.82-.78,3.76-.53.94-1.18,1.7-1.96,2.27-.78.57-1.59.97-2.43,1.17-.84.21-1.78.42-2.82.63l-21.94.16c-.21-1.36,0-3.08.63-5.17Z" fill="#2e3332"/></svg>