<?xml version="1.0" encoding="UTF-8"?><svg id="a" xmlns="http://www.w3.org/2000/svg" xmlns:xlink="http://www.w3.org/1999/xlink" viewBox="0 0 1024 352"><defs><linearGradient id="b" x1="160.29" y1="61.08" x2="232.48" y2="258.98" gradientUnits="userSpaceOnUse"><stop offset="0" stop-color="#059669"/><stop offset=".25" stop-color="#059266"/><stop offset=".48" stop-color="#05875f"/><stop offset=".7" stop-color="#057453"/><stop offset=".92" stop-color="#055942"/><stop offset="1" stop-color="#064e3b"/></linearGradient><linearGradient id="c" x1="138.28" y1="-14.43" x2="300.09" y2="344.03" gradientUnits="userSpaceOnUse"><stop offset="0" stop-color="#10b981"/><stop offset="1" stop-color="#059669"/></linearGradient></defs><path d="M513.4,185.89l14.23,14.23c2.72,2.72,2.58,7.17-.28,9.74-5.64,5.06-11.87,9.08-18.7,12.07-8.94,3.91-18.72,5.87-29.33,5.87-13.79,0-26.17-3.07-37.16-9.22-10.99-6.15-19.65-14.53-25.98-25.14-6.33-10.62-9.5-22.53-9.5-35.76s3.16-25.42,9.5-36.04c6.33-10.62,15.04-19.04,26.12-25.28,11.08-6.24,23.42-9.36,37.01-9.36,10.62,0,20.39,1.96,29.33,5.87,6.78,2.97,12.87,6.9,18.26,11.8,2.82,2.56,2.95,6.96.27,9.67l-14.19,14.36c-2.38,2.41-6.24,2.77-8.9.67-2.54-2.01-5.35-3.65-8.43-4.93-4.94-2.05-10.38-3.07-16.34-3.07-6.7,0-12.71,1.54-18.02,4.61-5.31,3.07-9.5,7.26-12.57,12.57-3.07,5.31-4.61,11.59-4.61,18.86s1.54,13.36,4.61,18.86c3.07,5.5,7.26,9.78,12.57,12.85,5.31,3.07,11.32,4.61,18.02,4.61,6.15,0,11.69-1.07,16.62-3.21,3.08-1.34,5.89-3.06,8.43-5.16,2.66-2.2,6.59-1.89,9.03.55ZM652.22,86.73h22.95c3.69,0,6.68,2.99,6.68,6.68v126.58c0,3.69-2.99,6.68-6.68,6.68h-22.95c-3.69,0-6.68-2.99-6.68-6.68v-8.07c-3.71,3.92-8.08,7.22-13.13,9.87-7.64,4-16.3,6.01-25.98,6.01-12.29,0-23.37-3.07-33.24-9.22-9.87-6.15-17.6-14.53-23.19-25.14-5.59-10.62-8.38-22.53-8.38-35.76s2.79-25.42,8.38-36.04c5.59-10.62,13.31-19,23.19-25.14,9.87-6.15,20.95-9.22,33.24-9.22,9.68,0,18.34,1.96,25.98,5.87,5.05,2.59,9.42,5.87,13.13,9.81v-9.54c0-3.69,2.99-6.68,6.68-6.68ZM647.49,157.39c0-7.08-1.44-13.36-4.33-18.86-2.89-5.49-6.89-9.78-12.01-12.85-5.12-3.07-11.13-4.61-18.02-4.61s-12.62,1.54-17.74,4.61c-5.12,3.07-9.13,7.36-12.01,12.85-2.89,5.5-4.33,11.78-4.33,18.86s1.44,13.65,4.33,19.14c2.88,5.5,6.89,9.78,12.01,12.85,5.12,3.07,11.03,4.61,17.74,4.61,10.24,0,18.53-3.4,24.86-10.2,6.33-6.8,9.5-15.6,9.5-26.4ZM803.37,90.49c-5.22-2.14-11.08-3.21-17.6-3.21-15.09,0-26.63,4.8-34.64,14.39-.1.12-.18.25-.28.37v-8.62c0-3.69-2.99-6.68-6.68-6.68h-23.23c-3.69,0-6.68,2.99-6.68,6.68v126.58c0,3.69,2.99,6.68,6.68,6.68h23.23c3.69,0,6.68-2.99,6.68-6.68v-69.58c0-10.06,2.47-17.55,7.4-22.49,4.93-4.93,11.31-7.4,19.14-7.4,3.72,0,7.03.56,9.92,1.68,1.07.41,2.08.91,3.04,1.48,2.82,1.68,6.41,1.21,8.57-1.27l14.55-16.68c2.48-2.85,2.1-7.17-.81-9.58-2.91-2.42-6.01-4.3-9.29-5.65ZM952,154.32c0,2.42-.14,4.89-.42,7.4-.1.91-.23,1.87-.4,2.87-.53,3.25-3.3,5.66-6.59,5.67l-93.15.23c.74,2.74,1.7,5.32,2.92,7.72,3.07,6.05,7.49,10.71,13.27,13.97,5.77,3.26,12.48,4.89,20.11,4.89,6.89,0,13.13-1.16,18.72-3.49,3.69-1.54,7.06-3.59,10.11-6.14,2.68-2.25,6.61-2.15,9.08.33l12.25,12.24c2.64,2.64,2.63,6.98-.08,9.55-5.54,5.24-11.94,9.36-19.19,12.38-9.41,3.91-19.6,5.87-30.59,5.87-14.16,0-26.73-3.03-37.71-9.08-10.99-6.05-19.69-14.39-26.12-25-6.43-10.62-9.64-22.72-9.64-36.32s3.12-25.37,9.36-35.9c6.24-10.52,14.76-18.9,25.56-25.14,10.8-6.24,22.81-9.36,36.04-9.36s24.53,2.93,34.5,8.8c9.96,5.87,17.78,13.88,23.47,24.03,5.68,10.15,8.52,21.65,8.52,34.5ZM854.08,136.02c-1.09,2.21-1.97,4.57-2.65,7.08l65.31-.19c-.71-3.2-1.67-6.11-2.88-8.71-2.51-5.4-6.15-9.54-10.89-12.43-4.75-2.89-10.57-4.33-17.46-4.33-7.26,0-13.6,1.63-19,4.89-5.4,3.26-9.55,7.82-12.43,13.69Z" fill="#2e3332"/><path d="M229.98,156.7v-52.66h-52.66v52.66h-52.66v45.14c0,4.15,3.37,7.52,7.52,7.52h45.14v45.14c0,4.15,3.37,7.52,7.52,7.52h37.61c4.15,0,7.52-3.37,7.52-7.52v-45.14h45.14c4.15,0,7.52-3.37,7.52-7.52v-45.14h-52.66Z" fill="url(#b)"/><path d="M282.64,58.9v45.14h-52.66v-45.14c0-4.15,3.37-7.52,7.52-7.52h37.61c4.15,0,7.52,3.37,7.52,7.52ZM327.77,104.04h-45.14v52.66h45.14c4.15,0,7.52-3.37,7.52-7.52v-37.61c0-4.15-3.37-7.52-7.52-7.52ZM169.8,51.38h-37.61c-4.15,0-7.52,3.37-7.52,7.52v45.14h52.66v-45.14c0-4.15-3.37-7.52-7.52-7.52ZM72,111.56v37.61c0,4.15,3.37,7.52,7.52,7.52h45.14v-52.66h-45.14c-4.15,0-7.52,3.37-7.52,7.52Z" fill="url(#c)"/><path d="M680.24,291.04c-1.6.68-3.47,1.02-5.63,1.02-1.84,0-3.52-.32-5.06-.96-1.54-.64-2.86-1.54-3.95-2.69-1.1-1.16-1.96-2.55-2.57-4.19-.62-1.64-.93-3.45-.93-5.45s.31-3.75.93-5.39c.62-1.64,1.48-3.03,2.57-4.19,1.1-1.16,2.42-2.05,3.95-2.67,1.54-.62,3.22-.93,5.06-.93,2.08,0,3.9.34,5.48,1.02,1.58.68,2.92,1.62,4.04,2.81l6.29-6.35c-1.96-1.88-4.24-3.35-6.86-4.43-2.62-1.08-5.6-1.62-8.95-1.62-3.15,0-6.08.55-8.77,1.65-2.7,1.1-5.04,2.63-7.04,4.58-2,1.96-3.55,4.26-4.67,6.92-1.12,2.66-1.68,5.52-1.68,8.59s.56,5.94,1.68,8.59c1.12,2.66,2.68,4.98,4.7,6.98,2.02,2,4.37,3.54,7.07,4.64,2.7,1.1,5.62,1.65,8.77,1.65,3.43,0,6.46-.54,9.07-1.62,2.61-1.08,4.94-2.55,6.98-4.43l-6.35-6.35c-1.16,1.2-2.54,2.14-4.13,2.81Z" fill="#2e3332"/><polygon points="717.25 257.68 707.85 257.68 707.85 299.96 715.1 299.96 717.25 299.96 736 299.96 736 291.7 717.25 291.7 717.25 257.68" fill="#2e3332"/><rect x="753.42" y="257.68" width="9.4" height="42.28" fill="#2e3332"/><polygon points="809.59 283.39 789.53 257.68 782.95 257.68 782.95 299.96 792.35 299.96 792.35 274.64 812.11 299.96 819 299.96 819 257.68 809.59 257.68 809.59 283.39" fill="#2e3332"/><rect x="839.12" y="257.68" width="9.4" height="42.28" fill="#2e3332"/><path d="M894.27,291.04c-1.6.68-3.47,1.02-5.63,1.02-1.84,0-3.52-.32-5.06-.96-1.54-.64-2.86-1.54-3.95-2.69-1.1-1.16-1.96-2.55-2.57-4.19-.62-1.64-.93-3.45-.93-5.45s.31-3.75.93-5.39c.62-1.64,1.48-3.03,2.57-4.19,1.1-1.16,2.42-2.05,3.95-2.67,1.54-.62,3.22-.93,5.06-.93,2.08,0,3.9.34,5.48,1.02,1.58.68,2.92,1.62,4.04,2.81l6.29-6.35c-1.96-1.88-4.24-3.35-6.86-4.43-2.62-1.08-5.6-1.62-8.95-1.62-3.15,0-6.08.55-8.77,1.65-2.7,1.1-5.04,2.63-7.04,4.58-2,1.96-3.55,4.26-4.67,6.92-1.12,2.66-1.68,5.52-1.68,8.59s.56,5.94,1.68,8.59c1.12,2.66,2.68,4.98,4.7,6.98,2.02,2,4.37,3.54,7.07,4.64,2.7,1.1,5.62,1.65,8.77,1.65,3.43,0,6.46-.54,9.07-1.62,2.61-1.08,4.94-2.55,6.98-4.43l-6.35-6.35c-1.16,1.2-2.54,2.14-4.13,2.81Z" fill="#2e3332"/><path d="M949.01,282.14c-.72-1.5-1.67-2.73-2.84-3.71-1.18-.98-2.47-1.79-3.86-2.43-1.4-.64-2.81-1.2-4.22-1.68-1.42-.48-2.71-.96-3.89-1.44s-2.13-1.05-2.84-1.71c-.72-.66-1.08-1.53-1.08-2.6,0-1.16.48-2.05,1.44-2.67.96-.62,2.25-.93,3.89-.93s3.1.32,4.4.96c1.3.64,2.58,1.62,3.86,2.93l6.11-6.05c-1.6-1.8-3.62-3.21-6.08-4.25-2.46-1.04-5.16-1.56-8.12-1.56s-5.49.49-7.72,1.47c-2.24.98-3.98,2.41-5.24,4.28-1.26,1.88-1.89,4.11-1.89,6.71,0,2.16.36,3.94,1.08,5.36.72,1.42,1.67,2.6,2.84,3.53,1.18.94,2.46,1.72,3.86,2.34,1.4.62,2.8,1.17,4.22,1.65,1.42.48,2.71.98,3.89,1.5,1.18.52,2.13,1.14,2.84,1.86.72.72,1.08,1.66,1.08,2.81,0,1.28-.55,2.28-1.65,2.99-1.1.72-2.65,1.08-4.64,1.08-2.2,0-4.12-.43-5.78-1.29-1.66-.86-3.17-2.07-4.52-3.62l-6.11,6.05c2.08,2.32,4.36,4.04,6.86,5.18,2.49,1.14,5.48,1.71,8.95,1.71,5.07,0,9.04-1.15,11.92-3.44,2.88-2.3,4.31-5.46,4.31-9.49,0-2.2-.36-4.04-1.08-5.54Z" fill="#2e3332"/></svg>