<?xml version="1.0" encoding="UTF-8"?><svg id="a" xmlns="http://www.w3.org/2000/svg" xmlns:xlink="http://www.w3.org/1999/xlink" viewBox="0 0 1024 352"><defs><linearGradient id="b" x1="160.15" y1="58.92" x2="232.23" y2="256.51" gradientUnits="userSpaceOnUse"><stop offset="0" stop-color="#059669"/><stop offset=".25" stop-color="#059266"/><stop offset=".48" stop-color="#05875f"/><stop offset=".7" stop-color="#057453"/><stop offset=".92" stop-color="#055942"/><stop offset="1" stop-color="#064e3b"/></linearGradient><linearGradient id="c" x1="138.18" y1="-16.47" x2="299.73" y2="341.43" gradientUnits="userSpaceOnUse"><stop offset="0" stop-color="#10b981"/><stop offset="1" stop-color="#059669"/></linearGradient></defs><path d="M512.7,183.54l14.21,14.21c2.72,2.72,2.58,7.16-.28,9.72-5.63,5.05-11.85,9.06-18.67,12.05-8.93,3.9-18.69,5.86-29.29,5.86-13.76,0-26.13-3.07-37.1-9.2-10.97-6.14-19.62-14.5-25.94-25.1-6.32-10.6-9.48-22.5-9.48-35.7s3.16-25.38,9.48-35.98c6.32-10.6,15.01-19.01,26.08-25.24,11.06-6.23,23.38-9.34,36.96-9.34,10.6,0,20.36,1.95,29.29,5.86,6.77,2.96,12.85,6.89,18.23,11.78,2.82,2.56,2.94,6.95.27,9.66l-14.17,14.33c-2.38,2.41-6.23,2.77-8.88.67-2.54-2-5.34-3.64-8.42-4.93-4.93-2.04-10.37-3.07-16.32-3.07-6.69,0-12.69,1.53-17.99,4.6-5.3,3.07-9.48,7.25-12.55,12.55-3.07,5.3-4.6,11.57-4.6,18.83s1.53,13.34,4.6,18.83c3.07,5.49,7.25,9.76,12.55,12.83,5.3,3.07,11.3,4.6,17.99,4.6,6.14,0,11.67-1.07,16.6-3.21,3.08-1.33,5.89-3.05,8.42-5.15,2.65-2.2,6.58-1.88,9.01.55ZM651.3,84.53h22.91c3.69,0,6.67,2.99,6.67,6.67v126.38c0,3.69-2.99,6.67-6.67,6.67h-22.91c-3.69,0-6.67-2.99-6.67-6.67v-8.05c-3.7,3.91-8.06,7.2-13.11,9.85-7.63,4-16.27,6-25.94,6-12.27,0-23.34-3.07-33.19-9.2-9.86-6.14-17.57-14.5-23.15-25.1-5.58-10.6-8.37-22.5-8.37-35.7s2.79-25.38,8.37-35.98c5.58-10.6,13.29-18.97,23.15-25.1,9.85-6.14,20.92-9.21,33.19-9.21,9.67,0,18.31,1.95,25.94,5.86,5.05,2.59,9.41,5.86,13.11,9.79v-9.52c0-3.69,2.99-6.67,6.67-6.67ZM646.58,155.09c0-7.07-1.44-13.34-4.32-18.83-2.89-5.48-6.88-9.76-11.99-12.83-5.12-3.07-11.11-4.6-17.99-4.6s-12.6,1.53-17.71,4.6c-5.12,3.07-9.11,7.35-11.99,12.83-2.89,5.49-4.32,11.76-4.32,18.83s1.44,13.62,4.32,19.11c2.88,5.49,6.88,9.76,11.99,12.83,5.11,3.07,11.02,4.6,17.71,4.6,10.23,0,18.5-3.39,24.83-10.18,6.32-6.79,9.48-15.57,9.48-26.36ZM802.22,88.28c-5.21-2.14-11.07-3.21-17.57-3.21-15.06,0-26.59,4.79-34.59,14.36-.1.12-.18.25-.28.37v-8.6c0-3.69-2.99-6.67-6.67-6.67h-23.19c-3.69,0-6.67,2.99-6.67,6.67v126.38c0,3.69,2.99,6.67,6.67,6.67h23.19c3.69,0,6.67-2.99,6.67-6.67v-69.47c0-10.04,2.46-17.52,7.39-22.45,4.92-4.92,11.3-7.39,19.11-7.39,3.72,0,7.02.56,9.9,1.67,1.07.41,2.08.91,3.03,1.47,2.82,1.68,6.4,1.2,8.56-1.27l14.53-16.66c2.48-2.84,2.1-7.16-.81-9.57-2.91-2.41-6-4.29-9.28-5.64ZM950.61,152.02c0,2.42-.14,4.88-.42,7.39-.1.91-.23,1.87-.4,2.86-.53,3.24-3.3,5.65-6.58,5.66l-93,.23c.73,2.74,1.7,5.31,2.92,7.71,3.07,6.05,7.48,10.69,13.25,13.95,5.76,3.26,12.46,4.88,20.08,4.88,6.88,0,13.11-1.16,18.69-3.49,3.69-1.54,7.05-3.58,10.09-6.13,2.67-2.25,6.6-2.14,9.06.33l12.23,12.22c2.64,2.64,2.63,6.97-.08,9.53-5.53,5.23-11.92,9.35-19.16,12.36-9.39,3.9-19.57,5.86-30.54,5.86-14.13,0-26.69-3.02-37.66-9.06-10.97-6.04-19.66-14.36-26.08-24.96-6.42-10.6-9.62-22.68-9.62-36.26s3.11-25.33,9.34-35.84c6.23-10.5,14.73-18.87,25.52-25.1,10.78-6.23,22.78-9.34,35.98-9.34s24.5,2.93,34.45,8.79c9.95,5.86,17.75,13.86,23.43,23.99,5.67,10.14,8.51,21.62,8.51,34.45ZM852.85,133.75c-1.09,2.2-1.97,4.56-2.64,7.07l65.2-.19c-.71-3.2-1.66-6.1-2.87-8.69-2.51-5.39-6.14-9.53-10.88-12.41-4.74-2.88-10.56-4.32-17.43-4.32-7.25,0-13.58,1.63-18.97,4.88-5.4,3.25-9.53,7.81-12.41,13.67Z" fill="#2e3332"/><path d="M229.73,154.39v-52.58h-52.58v52.58h-52.58v45.06c0,4.15,3.36,7.51,7.51,7.51h45.06v45.06c0,4.15,3.36,7.51,7.51,7.51h37.55c4.15,0,7.51-3.36,7.51-7.51v-45.06h45.06c4.15,0,7.51-3.36,7.51-7.51v-45.06h-52.58Z" fill="url(#b)"/><path d="M282.3,56.75v45.06h-52.58v-45.06c0-4.15,3.36-7.51,7.51-7.51h37.55c4.15,0,7.51,3.36,7.51,7.51ZM327.37,101.82h-45.06v52.58h45.06c4.15,0,7.51-3.36,7.51-7.51v-37.55c0-4.15-3.36-7.51-7.51-7.51ZM169.64,49.24h-37.55c-4.15,0-7.51,3.36-7.51,7.51v45.06h52.58v-45.06c0-4.15-3.36-7.51-7.51-7.51ZM72,109.33v37.55c0,4.15,3.36,7.51,7.51,7.51h45.06v-52.58h-45.06c-4.15,0-7.51,3.36-7.51,7.51Z" fill="url(#c)"/><polygon points="617.36 265.7 631.48 265.7 631.48 302.06 641.52 302.06 641.52 265.7 655.64 265.7 655.64 256.95 617.36 256.95 617.36 265.7" fill="#2e3332"/><polygon points="684.07 283.21 704.2 283.21 704.2 274.84 684.07 274.84 684.07 265.57 706.12 265.57 706.12 256.95 684.07 256.95 681.71 256.95 674.04 256.95 674.04 302.06 681.71 302.06 684.07 302.06 706.44 302.06 706.44 293.37 684.07 293.37 684.07 283.21" fill="#2e3332"/><polygon points="736.15 256.95 726.12 256.95 726.12 302.06 733.85 302.06 736.15 302.06 756.15 302.06 756.15 293.24 736.15 293.24 736.15 256.95" fill="#2e3332"/><polygon points="784.78 283.21 804.91 283.21 804.91 274.84 784.78 274.84 784.78 265.57 806.82 265.57 806.82 256.95 784.78 256.95 782.41 256.95 774.75 256.95 774.75 302.06 782.41 302.06 784.78 302.06 807.14 302.06 807.14 293.37 784.78 293.37 784.78 283.21" fill="#2e3332"/><rect x="826.82" y="256.95" width="10.03" height="45.11" fill="#2e3332"/><path d="M885.67,292.54c-1.7.72-3.71,1.09-6.01,1.09-1.96,0-3.76-.34-5.4-1.02-1.64-.68-3.05-1.64-4.22-2.88-1.17-1.24-2.09-2.73-2.75-4.47-.66-1.75-.99-3.68-.99-5.81s.33-4,.99-5.75c.66-1.75,1.58-3.24,2.75-4.47,1.17-1.24,2.58-2.18,4.22-2.84,1.64-.66,3.44-.99,5.4-.99,2.22,0,4.16.36,5.85,1.09,1.68.73,3.12,1.73,4.31,3l6.71-6.77c-2.09-2-4.53-3.58-7.32-4.73-2.79-1.15-5.97-1.73-9.55-1.73-3.37,0-6.49.59-9.36,1.76-2.88,1.17-5.38,2.8-7.51,4.89-2.13,2.09-3.79,4.55-4.98,7.38-1.19,2.83-1.79,5.89-1.79,9.17s.6,6.34,1.79,9.17c1.19,2.83,2.86,5.31,5.02,7.44,2.15,2.13,4.66,3.78,7.54,4.95,2.88,1.17,6,1.76,9.36,1.76,3.66,0,6.89-.58,9.68-1.73,2.79-1.15,5.27-2.73,7.44-4.73l-6.77-6.77c-1.24,1.28-2.71,2.28-4.41,3Z" fill="#2e3332"/><path d="M941.9,256.95v27.99c0,1.79-.37,3.33-1.12,4.63-.75,1.3-1.76,2.3-3.03,3-1.28.7-2.77,1.05-4.47,1.05s-3.1-.35-4.44-1.05c-1.34-.7-2.4-1.71-3.16-3.04-.77-1.32-1.15-2.88-1.15-4.66v-27.92h-10.1v27.35c0,3.58.8,6.76,2.4,9.55,1.6,2.79,3.81,4.97,6.65,6.55,2.83,1.58,6.1,2.36,9.81,2.36s6.97-.79,9.78-2.36c2.81-1.58,5.01-3.75,6.58-6.52,1.57-2.77,2.36-5.94,2.36-9.52v-27.41h-10.1Z" fill="#2e3332"/></svg>