<?xml version="1.0" encoding="utf-8"?>
<!-- Generator: Adobe Illustrator 28.1.0, SVG Export Plug-In . SVG Version: 6.00 Build 0)  -->
<svg version="1.1" id="Layer_1" xmlns="http://www.w3.org/2000/svg" xmlns:xlink="http://www.w3.org/1999/xlink" x="0px" y="0px"
	 viewBox="0 0 250 139.4" style="enable-background:new 0 0 250 139.4;" xml:space="preserve">
<style type="text/css">
	.st0{fill:#00AEEF;}
	.st1{fill:#0B9444;}
	.st2{fill:#231F20;}
	.st3{fill:none;stroke:#000000;stroke-width:0.7235;stroke-miterlimit:88.9718;}
</style>
<g>
	<g>
		<path class="st0" d="M106.7,44.8L95,51.6l-1.9-9.9l11.3-9.1L106.7,44.8z M129,31.1l-11.3,6.5l-2.6-15l11.3-9.1L129,31.1z
			 M143.7,44l-12.1,4.1l-2.6-17l11.6-6.3L143.7,44z"/>
		<path class="st0" d="M158.9,61.6l-12.6,1.2l-2.7-19.7l12.2-2.9L158.9,61.6z M134.8,64.5l-12.2,2.4l-2.3-14.7l11.8-5L134.8,64.5z"
			/>
		<path class="st0" d="M149.7,82l-12.6-0.3l-2.5-17.3l12.2-2.1L149.7,82z M120.3,52.4L108.7,57l-2.1-12.4l11.3-7.2L120.3,52.4z
			 M111.1,69.5L99,71.7l-2.1-9.9l11.9-4.6L111.1,69.5z"/>
		<path class="st0" d="M125.3,81.9h-12.2l-2.2-12.5l12-2.3L125.3,81.9z M101,81.7l-12.4-0.6l-1.8-7.8l12.1-1.8L101,81.7z M97.2,61.8
			L85.4,66l-2-8.3L95,51.7L97.2,61.8z"/>
		<path class="st0" d="M87.1,73.7l-12.2,0.8l-1.5-5.9l12-2.5L87.1,73.7z"/>
	</g>
	<path class="st1" d="M63.3,89.2H66v5.4h0.1c0.3-0.5,0.6-0.9,0.8-1.3l2.8-4h3.4l-4,5.2l4.2,7h-3.2l-3-5.3l-1,1.3v4h-2.7L63.3,89.2z
		 M91.3,96.3h-4.5v2.9h5v2.3H84V89.2h7.5v2.3h-4.8V94h4.5V96.3z M103.3,89.4c0.9-0.1,2.2-0.3,3.7-0.3c1.8,0,3.1,0.3,3.9,1
		c0.7,0.6,1.1,1.4,1.1,2.5c0,1.6-1.1,2.6-2.2,3v0.1c0.8,0.3,1.3,1.2,1.6,2.3c0.4,1.4,0.8,3,1,3.4h-2.8c-0.2-0.3-0.5-1.3-0.8-2.8
		c-0.3-1.5-0.9-1.9-2-2H106v4.8h-2.7L103.3,89.4z M106,94.6h1.1c1.4,0,2.2-0.7,2.2-1.8c0-1.1-0.8-1.7-2-1.7c-0.7,0-1,0.1-1.2,0.1
		V94.6z M126.6,98.3l-0.9,3.1h-2.9l3.7-12.2h3.6l3.8,12.2h-3l-0.9-3.1H126.6z M129.7,96.2l-0.8-2.6c-0.2-0.7-0.4-1.6-0.6-2.4h0
		c-0.2,0.7-0.4,1.6-0.6,2.4l-0.7,2.6H129.7z M145.3,89.2h2.8v9.9h4.8v2.3h-7.6L145.3,89.2z M167.1,98.3l-0.9,3.1h-2.9l3.7-12.2h3.6
		l3.8,12.2h-3l-0.9-3.1H167.1z M170.2,96.2l-0.8-2.6c-0.2-0.7-0.4-1.6-0.6-2.4h0c-0.2,0.7-0.4,1.6-0.6,2.4l-0.7,2.6H170.2z"/>
	<path class="st2" d="M25.7,122c1,0.5,2.4,1,4,1c1.6,0,2.5-0.7,2.5-1.7c0-1-0.8-1.5-2.6-2.2c-2.6-0.9-4.3-2.4-4.3-4.7
		c0-2.7,2.3-4.8,6-4.8c1.8,0,3.1,0.4,4,0.8l-0.8,2.9c-1-0.5-2.2-0.8-3.3-0.8c-1.5,0-2.3,0.7-2.3,1.5c0,1,0.9,1.5,2.9,2.2
		c2.8,1,4.1,2.5,4.1,4.7c0,2.6-2,4.9-6.4,4.9c-1.8,0-3.6-0.5-4.5-1L25.7,122z M41.1,112.9h-4.2v-3H49v3h-4.3v12.8h-3.6V112.9z
		 M52.6,121.6l-1.1,4.1h-3.7l4.8-15.8h4.7l4.9,15.8h-3.8l-1.2-4.1H52.6z M56.6,119l-1-3.4c-0.3-0.9-0.6-2.1-0.8-3h0
		c-0.2,0.9-0.5,2.1-0.7,3l-0.9,3.4H56.6z M64,110.1c1.1-0.2,2.9-0.3,4.8-0.3c2.3,0,4,0.4,5.1,1.2c0.9,0.8,1.5,1.8,1.5,3.3
		c0,2-1.4,3.4-2.8,3.9v0.1c1.1,0.4,1.7,1.5,2.1,3c0.5,1.8,1,3.8,1.3,4.5h-3.7c-0.3-0.4-0.6-1.7-1.1-3.7c-0.4-2-1.1-2.5-2.6-2.5h-1.1
		v6.2H64L64,110.1z M67.6,116.9H69c1.8,0,2.8-0.9,2.8-2.3c0-1.5-1-2.2-2.6-2.2c-0.9,0-1.4,0.1-1.6,0.1L67.6,116.9z M80.7,112.9h-4.2
		v-3h12.1v3h-4.3v12.8h-3.6V112.9z M93.8,109.9v9.1c0,2.7,1,4.1,2.9,4.1c1.9,0,2.9-1.3,2.9-4.1v-9.1h3.6v8.9c0,4.9-2.5,7.2-6.6,7.2
		c-4,0-6.3-2.2-6.3-7.2v-8.8L93.8,109.9z M106,110.1c1.1-0.2,2.7-0.3,4.8-0.3c2.2,0,3.8,0.4,4.8,1.3c1,0.8,1.7,2.1,1.7,3.7
		c0,1.5-0.5,2.9-1.5,3.8c-1.2,1.2-3,1.7-5.1,1.7c-0.5,0-0.9,0-1.2-0.1v5.7H106L106,110.1z M109.5,117.3c0.3,0.1,0.7,0.1,1.2,0.1
		c1.9,0,3.1-1,3.1-2.6c0-1.5-1-2.3-2.8-2.3c-0.7,0-1.2,0.1-1.5,0.1V117.3z M137.2,119.7c-0.1-2.2-0.1-4.3-0.1-6.5H137
		c-0.5,2.1-1.1,4.1-1.8,6.1l-1.9,6.2h-2.8l-1.7-6.1c-0.6-2-1-4.1-1.4-6.2h0c-0.1,2.1-0.2,4.6-0.3,6.5l-0.3,6h-3.3l1-15.8h4.8
		l1.5,5.3c0.5,1.8,1,3.8,1.3,5.7h0.1c0.4-1.8,1-3.9,1.5-5.7l1.7-5.3h4.7l0.9,15.8h-3.5L137.2,119.7z M147,109.9v15.8h-3.6v-15.8H147
		z M149.9,122c1,0.5,2.4,1,4,1c1.6,0,2.5-0.7,2.5-1.7c0-1-0.8-1.5-2.7-2.2c-2.6-0.9-4.3-2.4-4.3-4.7c0-2.7,2.3-4.8,6-4.8
		c1.8,0,3.1,0.4,4,0.8l-0.8,2.9c-1-0.5-2.2-0.8-3.3-0.8c-1.5,0-2.3,0.7-2.3,1.5c0,1,0.9,1.5,2.9,2.2c2.8,1,4.1,2.5,4.1,4.7
		c0,2.6-2,4.9-6.4,4.9c-1.8,0-3.6-0.5-4.5-1L149.9,122z M162.3,122c1,0.5,2.4,1,4,1c1.6,0,2.5-0.7,2.5-1.7c0-1-0.8-1.5-2.7-2.2
		c-2.6-0.9-4.3-2.4-4.3-4.7c0-2.7,2.3-4.8,6-4.8c1.8,0,3.1,0.4,4,0.8l-0.8,2.9c-0.6-0.3-1.8-0.8-3.3-0.8s-2.3,0.7-2.3,1.5
		c0,1,0.9,1.5,2.9,2.2c2.8,1,4.1,2.5,4.1,4.7c0,2.6-2,4.9-6.4,4.9c-1.8,0-3.6-0.5-4.5-1L162.3,122z M178.2,109.9v15.8h-3.6v-15.8
		H178.2z M195.5,117.6c0,5.2-3.1,8.3-7.8,8.3c-4.7,0-7.4-3.5-7.4-8c0-4.7,3-8.3,7.7-8.3C192.8,109.6,195.5,113.3,195.5,117.6z
		 M184.1,117.8c0,3.1,1.5,5.3,3.8,5.3c2.4,0,3.8-2.3,3.8-5.4c0-2.8-1.4-5.3-3.8-5.3C185.5,112.5,184.1,114.8,184.1,117.8
		L184.1,117.8z M197.6,125.7v-15.8h4.2l3.3,5.8c1,1.7,1.8,3.6,2.6,5.4h0.1c-0.2-2.1-0.3-4.2-0.3-6.6v-4.6h3.3v15.8h-3.8l-3.4-6.1
		c-0.9-1.7-2-3.7-2.7-5.6l-0.1,0c0.1,2.1,0.1,4.3,0.1,6.9v4.8H197.6z"/>
	<circle class="st3" cx="219.6" cy="115" r="5.4"/>
	<path d="M217.7,117.9v-5.4h2.4c0.5,0,0.8,0,1.1,0.1c0.2,0.1,0.4,0.3,0.6,0.5c0.1,0.2,0.2,0.5,0.2,0.8c0,0.4-0.1,0.7-0.4,1
		c-0.2,0.3-0.6,0.4-1.1,0.5c0.2,0.1,0.3,0.2,0.4,0.3c0.2,0.2,0.4,0.4,0.6,0.7l0.9,1.5h-0.9l-0.7-1.1c-0.2-0.3-0.4-0.6-0.5-0.7
		c-0.1-0.2-0.3-0.3-0.4-0.4c-0.1-0.1-0.2-0.1-0.3-0.1c-0.1,0-0.3,0-0.4,0h-0.8v2.4L217.7,117.9L217.7,117.9z M218.4,114.9h1.5
		c0.3,0,0.6,0,0.8-0.1c0.2-0.1,0.3-0.2,0.4-0.3c0.1-0.1,0.1-0.3,0.1-0.5c0-0.3-0.1-0.5-0.3-0.6c-0.2-0.2-0.5-0.2-0.9-0.2h-1.7V114.9
		z"/>
</g>
</svg>
