<svg width="193" height="62" viewBox="0 0 193 62" fill="none" xmlns="http://www.w3.org/2000/svg">
<path d="M28.4222 48.7241C28.4439 48.1232 28.5865 47.5328 28.8416 46.9883C29.0967 46.4438 29.459 45.9563 29.9067 45.555C31.2444 44.2704 33.4572 43.7922 34.7949 44.3579C35.9163 44.8528 37.1577 45.0102 38.3672 44.8111C38.3806 44.8101 38.3941 44.8124 38.4065 44.8177C38.4189 44.823 38.4298 44.8312 38.4384 44.8416C38.447 44.852 38.4529 44.8643 38.4558 44.8775C38.4586 44.8907 38.4582 44.9044 38.4547 44.9174C38.3813 45.1516 38.2569 45.3668 38.0904 45.5472C37.924 45.7277 37.7196 45.8691 37.4921 45.9613C36.5044 46.3832 35.4637 46.0613 34.9199 45.8144L34.8292 45.7737C34.6558 45.6954 34.4588 45.6871 34.2794 45.7506C34.1001 45.814 33.9521 45.9444 33.8666 46.1144C35.0699 46.8426 36.3263 47.1708 37.3046 46.7926C38.0922 46.4801 40.1612 45.2299 40.9613 44.958C41.1355 44.903 41.321 44.8942 41.4997 44.9326C41.6783 44.9709 41.8439 45.0551 41.9801 45.1768C41.9951 45.1888 42.0072 45.204 42.0155 45.2213C42.0239 45.2386 42.0282 45.2576 42.0282 45.2768C42.0282 45.296 42.0239 45.315 42.0155 45.3323C42.0072 45.3496 41.9951 45.3648 41.9801 45.3768C41.3926 45.7925 38.8548 47.5646 37.4983 48.3366C35.9356 49.2148 33.6603 48.9179 32.2664 48.3803C31.0163 47.9021 30.0786 47.624 30.0786 48.4303V52.9246C30.0786 54.7999 30.4443 56.8033 31.8945 58.4441C33.3099 58.6587 34.704 58.9965 36.0606 59.4536C37.3412 59.8521 38.5723 60.3953 39.7299 61.0725C32.143 59.7307 24.3795 59.7307 16.7926 61.0725C17.9498 60.3946 19.1809 59.8514 20.4618 59.4536C21.819 58.9917 23.2141 58.6497 24.6311 58.4316C26.0813 56.7908 26.4469 54.7999 26.4469 52.9121V48.4178C26.4469 47.6115 25.5093 47.8896 24.2591 48.3678C22.8652 48.9054 20.5837 49.2023 19.0304 48.3241C17.6489 47.5771 15.1486 45.7925 14.5485 45.3893C14.533 45.3777 14.5204 45.3626 14.5117 45.3452C14.503 45.3278 14.4985 45.3087 14.4985 45.2893C14.4985 45.2699 14.503 45.2507 14.5117 45.2334C14.5204 45.216 14.533 45.2009 14.5485 45.1893C14.6848 45.0676 14.8504 44.9834 15.029 44.9451C15.2077 44.9067 15.3932 44.9155 15.5674 44.9705C16.3644 45.258 18.4365 46.5051 19.2241 46.8051C20.2024 47.1833 21.4557 46.8551 22.6621 46.1269C22.5759 45.9567 22.4275 45.8263 22.2476 45.7628C22.0676 45.6993 21.8702 45.7077 21.6963 45.7862L21.6057 45.8269C21.065 46.0738 20.0242 46.3957 19.0366 45.9738C18.8085 45.8826 18.6036 45.7415 18.437 45.5609C18.2705 45.3803 18.1464 45.1647 18.074 44.9299C18.0705 44.9169 18.0701 44.9032 18.0729 44.89C18.0758 44.8768 18.0817 44.8645 18.0903 44.8541C18.0989 44.8437 18.1098 44.8355 18.1222 44.8302C18.1346 44.8249 18.1481 44.8226 18.1615 44.8236C19.371 45.0227 20.6123 44.8653 21.7338 44.3704C23.0715 43.8047 25.2843 44.2829 26.6219 45.5675C27.0697 45.9688 27.432 46.4563 27.6871 47.0008C27.9422 47.5453 28.0848 48.1357 28.1065 48.7366L28.4222 48.7241Z" fill="#562465"/>
<path d="M33.7607 25.5618C33.2814 26.7021 33.0818 27.9404 33.1786 29.1735C33.2753 30.4066 33.6657 31.5987 34.3171 32.6502C35.5243 32.3811 36.6494 31.8266 37.5983 31.0333C38.5472 30.2399 39.2922 29.2307 39.7709 28.0903C40.2497 26.9515 40.449 25.7147 40.3522 24.4832C40.2554 23.2517 39.8654 22.0612 39.2146 21.0112C38.0071 21.2806 36.8816 21.8352 35.9323 22.6285C34.9829 23.4218 34.2373 24.4308 33.7576 25.5712" fill="#9ECB5A"/>
<path d="M45.8403 27.4057C45.132 27.9482 44.5639 28.6522 44.1833 29.4591C43.8027 30.266 43.6207 31.1522 43.6525 32.0438C44.5048 32.3084 45.4081 32.3651 46.2868 32.209C47.1655 32.053 47.9941 31.6887 48.7031 31.1468C49.4113 30.6043 49.9795 29.9002 50.3601 29.0933C50.7407 28.2865 50.9227 27.4002 50.8909 26.5087C50.0386 26.244 49.1353 26.1874 48.2566 26.3434C47.3779 26.4995 46.5493 26.8637 45.8403 27.4057Z" fill="#9ECB5A"/>
<path d="M52.4034 30.2406C51.7493 30.5203 51.172 30.953 50.72 31.5023C50.268 32.0516 49.9546 32.7015 49.8062 33.3972C50.4138 33.7669 51.1011 33.9859 51.8106 34.0359C52.5201 34.0859 53.2313 33.9655 53.8848 33.6847C54.5376 33.4036 55.1136 32.9703 55.5649 32.4212C56.0161 31.8721 56.3295 31.223 56.4789 30.5281C55.8736 30.1598 55.189 29.9415 54.4822 29.8915C53.7755 29.8414 53.067 29.9611 52.4159 30.2406" fill="#9ECB5A"/>
<path d="M42.8834 21.8645C42.5726 22.6013 42.443 23.4019 42.5056 24.1991C42.5681 24.9964 42.8209 25.767 43.2428 26.4463C44.022 26.2739 44.7486 25.9176 45.3619 25.407C45.9752 24.8965 46.4574 24.2466 46.7683 23.5116C47.0803 22.7726 47.2099 21.9694 47.1463 21.1698C47.0826 20.3701 46.8276 19.5976 46.4026 18.9172C45.6221 19.0909 44.8947 19.4491 44.2813 19.9619C43.6679 20.4748 43.1864 21.1272 42.8771 21.8645" fill="#9ECB5A"/>
<path d="M22.7061 25.5618C23.1861 26.7017 23.3864 27.94 23.2902 29.1732C23.194 30.4063 22.804 31.5986 22.1529 32.6502C20.948 32.379 19.8255 31.8237 18.879 31.0304C17.9324 30.2372 17.1893 29.2291 16.7116 28.0903C16.2305 26.9527 16.0285 25.7166 16.1226 24.4851C16.2166 23.2536 16.604 22.0625 17.2523 21.0112C18.4593 21.2808 19.5842 21.8355 20.533 22.6288C21.4818 23.4221 22.227 24.431 22.7061 25.5712" fill="#9ECB5A"/>
<path d="M10.6264 27.4057C11.3346 27.9482 11.9027 28.6522 12.2833 29.4591C12.6639 30.266 12.8459 31.1522 12.8141 32.0438C11.9618 32.3082 11.0585 32.3647 10.1799 32.2086C9.30121 32.0526 8.47267 31.6885 7.76349 31.1468C7.05564 30.6039 6.48778 29.8998 6.10722 29.093C5.72666 28.2862 5.54443 27.4002 5.57571 26.5087C6.42802 26.244 7.33133 26.1874 8.21003 26.3434C9.08874 26.4995 9.91729 26.8637 10.6264 27.4057Z" fill="#9ECB5A"/>
<path d="M4.06302 30.2406C4.71709 30.5203 5.29441 30.953 5.74639 31.5023C6.19836 32.0516 6.51176 32.7015 6.66022 33.3972C6.05466 33.7648 5.37014 33.9827 4.66351 34.0327C3.95687 34.0827 3.2485 33.9634 2.5972 33.6847C1.94371 33.4042 1.36691 32.9712 0.915052 32.422C0.463197 31.8728 0.14943 31.2234 0 30.5281C0.60528 30.1598 1.28985 29.9415 1.99663 29.8915C2.7034 29.8414 3.4119 29.9611 4.06302 30.2406Z" fill="#9ECB5A"/>
<path d="M13.5858 21.8644C13.8967 22.6013 14.0262 23.4019 13.9637 24.1991C13.9012 24.9963 13.6483 25.7669 13.2264 26.4463C12.4467 26.2743 11.7195 25.9182 11.1056 25.4076C10.4917 24.897 10.009 24.2469 9.69785 23.5115C9.38704 22.7747 9.25746 21.9741 9.32 21.1769C9.38254 20.3796 9.63537 19.609 10.0573 18.9297C10.837 19.1016 11.5642 19.4578 12.1781 19.9684C12.792 20.4789 13.2747 21.1291 13.5858 21.8644Z" fill="#9ECB5A"/>
<path d="M24.897 33.9161C24.8966 35.1887 25.2008 36.4429 25.7842 37.5738C26.3676 38.7048 27.2133 39.6796 28.2505 40.4169C29.2877 39.6796 30.1334 38.7048 30.7168 37.5738C31.3002 36.4429 31.6045 35.1887 31.6041 33.9161C31.6045 32.6435 31.3002 31.3894 30.7168 30.2584C30.1334 29.1275 29.2877 28.1526 28.2505 27.4153C27.2133 28.1526 26.3676 29.1275 25.7842 30.2584C25.2008 31.3894 24.8966 32.6435 24.897 33.9161Z" fill="#95C11F"/>
<path d="M48.5031 35.8849C47.3308 36.3002 46.275 36.9902 45.424 37.8972C44.573 38.8042 43.9517 39.9018 43.6118 41.0981C44.6301 41.8128 45.8046 42.2734 47.0372 42.4414C48.2698 42.6094 49.5247 42.48 50.6971 42.0639C51.8687 41.6464 52.9237 40.9554 53.7745 40.0481C54.6252 39.1408 55.2471 38.0436 55.5883 36.8476C54.57 36.1332 53.3953 35.673 52.1627 35.5055C50.93 35.338 49.6751 35.4681 48.5031 35.8849Z" fill="#95C11F"/>
<path d="M35.5918 35.3881C33.6791 37.2633 32.6102 40.6169 33.8166 41.842C35.023 43.0672 38.3859 42.0514 40.2955 40.17C41.2033 39.2783 41.8844 38.1824 42.2819 36.9736C42.6794 35.7649 42.7817 34.4786 42.5802 33.2222C41.3271 32.9981 40.0384 33.0778 38.8224 33.4547C37.6065 33.8316 36.4986 34.4946 35.5918 35.3881Z" fill="#95C11F"/>
<path d="M7.96037 35.8849C9.13266 36.3002 10.1884 36.9902 11.0394 37.8972C11.8904 38.8042 12.5118 39.9017 12.8516 41.0981C11.8343 41.8122 10.6609 42.2725 9.42938 42.4406C8.19785 42.6086 6.944 42.4794 5.77259 42.0638C4.59982 41.6485 3.54368 40.9581 2.69265 40.0505C1.84163 39.1429 1.22052 38.0446 0.881348 36.8475C1.89879 36.1337 3.07235 35.6738 4.30392 35.5063C5.53548 35.3388 6.78925 35.4687 7.96037 35.8849Z" fill="#95C11F"/>
<path d="M20.8747 35.3881C22.7874 37.2633 23.8563 40.6169 22.6499 41.842C21.4435 43.0672 18.0837 42.0514 16.171 40.17C15.2629 39.2787 14.5818 38.1826 14.1848 36.9737C13.7878 35.7648 13.6865 34.4783 13.8894 33.2222C15.1421 32.9984 16.4302 33.0782 17.6456 33.4551C18.8611 33.832 19.9684 34.4948 20.8747 35.3881Z" fill="#95C11F"/>
<path d="M40.8208 15.8638C40.5598 16.4874 40.452 17.1643 40.5064 17.838C40.5608 18.5117 40.7757 19.1626 41.1333 19.7362C41.7939 19.5879 42.4093 19.2835 42.928 18.8485C43.4468 18.4135 43.8538 17.8605 44.1149 17.2359C44.3748 16.6122 44.4821 15.9354 44.4277 15.2619C44.3734 14.5883 44.159 13.9375 43.8024 13.3635C43.1418 13.5118 42.5264 13.8162 42.0076 14.2513C41.4889 14.6863 41.0819 15.2392 40.8208 15.8638Z" fill="#A6D694"/>
<path d="M24.897 18.9173C24.8966 20.1899 25.2008 21.4441 25.7842 22.575C26.3676 23.706 27.2133 24.6809 28.2505 25.4182C29.2877 24.6809 30.1334 23.706 30.7168 22.575C31.3002 21.4441 31.6045 20.1899 31.6041 18.9173C31.6045 17.6448 31.3002 16.3906 30.7168 15.2596C30.1334 14.1287 29.2877 13.1538 28.2505 12.4165C27.2133 13.1538 26.3676 14.1287 25.7842 15.2596C25.2008 16.3906 24.8966 17.6448 24.897 18.9173Z" fill="#A6D694"/>
<path d="M34.0452 16.1043C33.0013 17.6264 32.72 20.0236 33.6951 20.6924C34.6702 21.3612 36.8205 20.2361 37.8488 18.714C38.3453 17.9912 38.6612 17.1599 38.77 16.2898C38.8788 15.4197 38.7772 14.5361 38.4738 13.7134C37.5987 13.728 36.7398 13.9517 35.9688 14.3661C35.1978 14.7804 34.5371 15.3732 34.042 16.0949" fill="#A6D694"/>
<path d="M15.6458 15.8638C15.9067 16.4874 16.0145 17.1643 15.9601 17.838C15.9057 18.5117 15.6908 19.1626 15.3332 19.7362C14.6728 19.5884 14.0576 19.2842 13.5392 18.8491C13.0209 18.4139 12.6147 17.8607 12.3547 17.2359C12.0933 16.6125 11.9852 15.9355 12.0396 15.2617C12.094 14.5879 12.3092 13.9369 12.6673 13.3635C13.3275 13.5118 13.9425 13.8162 14.4607 14.2513C14.979 14.6863 15.3854 15.2393 15.6458 15.8638Z" fill="#A6D694"/>
<path d="M22.4218 16.1043C23.4657 17.6264 23.747 20.0236 22.775 20.6924C21.803 21.3612 19.6496 20.2361 18.6182 18.714C18.1214 17.9914 17.8054 17.16 17.6966 16.2898C17.5878 15.4197 17.6895 14.5361 17.9932 13.7134C18.8678 13.7284 19.7261 13.9525 20.4965 14.3668C21.2669 14.7811 21.927 15.3736 22.4218 16.0949" fill="#A6D694"/>
<path d="M25.7159 5.84062C25.7152 6.80293 25.9449 7.75143 26.3859 8.60676C26.8268 9.46208 27.4663 10.1993 28.2506 10.7569C29.0332 10.1983 29.6709 9.46061 30.1102 8.60534C30.5495 7.75008 30.7778 6.80211 30.7759 5.84062C30.7765 4.87879 30.5466 3.93082 30.1056 3.07604C29.6646 2.22126 29.0254 1.48452 28.2412 0.92749C27.4571 1.48452 26.8178 2.22126 26.3769 3.07604C25.9359 3.93082 25.706 4.87879 25.7065 5.84062" fill="#AFE0CF"/>
<path d="M33.2759 8.7348C32.3883 10.0975 32.1914 12.2165 33.0634 12.7978C33.9354 13.3791 35.795 12.329 36.6795 10.9663C37.1012 10.3206 37.3619 9.58309 37.4397 8.81576C37.5174 8.04843 37.41 7.27363 37.1264 6.5564C36.3569 6.58846 35.6061 6.80369 34.9364 7.18419C34.2667 7.5647 33.6974 8.0995 33.2759 8.74417" fill="#AFE0CF"/>
<path d="M23.178 8.7348C24.0656 10.0975 24.2657 12.2165 23.3906 12.7978C22.5154 13.3791 20.6621 12.329 19.7745 10.9663C19.3528 10.3206 19.0921 9.58309 19.0143 8.81576C18.9366 8.04843 19.044 7.27363 19.3275 6.5564C20.0972 6.58795 20.8482 6.80297 21.518 7.18352C22.1878 7.56407 22.7569 8.09914 23.178 8.74417" fill="#AFE0CF"/>
<path d="M73.9656 52.8746H75.8127C75.5002 50.9119 73.8031 49.543 71.5903 49.543C68.9713 49.543 67.0054 51.4682 67.0054 54.6936C67.0054 57.8597 68.8806 59.8224 71.6435 59.8224C74.1219 59.8224 75.894 58.2316 75.894 55.65V54.4498H71.831V55.8657H74.1375C74.1094 57.294 73.1562 58.1972 71.6372 58.1972C69.962 58.1972 68.8244 56.947 68.8244 54.6749C68.8244 52.4027 69.9932 51.1713 71.6122 51.1713C72.1406 51.1412 72.6631 51.2942 73.0918 51.6044C73.5205 51.9147 73.8292 52.3633 73.9656 52.8746Z" fill="#333333"/>
<path d="M79.7507 49.6804H77.9692V59.6817H79.7382L79.7507 49.6804Z" fill="#333333"/>
<path d="M85.2575 59.8286C87.4453 59.8286 88.8517 58.2659 88.8517 55.9563C88.8517 53.6466 87.4546 52.0776 85.2575 52.0776C83.0603 52.0776 81.6602 53.6403 81.6602 55.9563C81.6602 58.2722 83.0572 59.8286 85.2575 59.8286ZM85.2575 58.4097C84.0417 58.4097 83.4448 57.3252 83.4448 55.9531C83.4448 54.5811 84.0417 53.4809 85.2575 53.4809C86.4733 53.4809 87.0515 54.578 87.0515 55.9531C87.0515 57.3283 86.4639 58.4159 85.2669 58.4159L85.2575 58.4097Z" fill="#333333"/>
<path d="M90.8457 59.6879H92.5834V58.5034H92.6866C92.8732 58.9146 93.1786 59.2605 93.5635 59.4966C93.9484 59.7328 94.3951 59.8484 94.8462 59.8286C96.6152 59.8286 97.9404 58.4253 97.9404 55.9531C97.9404 53.4809 96.5777 52.0932 94.8431 52.0932C94.3919 52.0727 93.945 52.1896 93.5617 52.4284C93.1783 52.6673 92.8764 53.0168 92.6959 53.4309H92.6241V49.6804H90.8457V59.6879ZM92.5803 55.9375C92.5803 54.481 93.2054 53.5372 94.343 53.5372C95.4807 53.5372 96.1276 54.5404 96.1276 55.9375C96.1276 57.3345 95.5025 58.3721 94.343 58.3721C93.1835 58.3721 92.5803 57.3908 92.5803 55.9343V55.9375Z" fill="#333333"/>
<path d="M102.007 59.8286C103.185 59.8286 103.882 59.2754 104.21 58.6472H104.27V59.6786H105.97V54.6529C105.97 52.6714 104.354 52.0745 102.919 52.0745C101.341 52.0745 100.132 52.7777 99.7408 54.1466L101.391 54.381C101.566 53.8684 102.066 53.4434 102.932 53.4434C103.798 53.4434 104.201 53.8622 104.201 54.6029V54.631C104.201 55.1405 103.669 55.1624 102.344 55.3061C100.888 55.4624 99.4971 55.8968 99.4971 57.5877C99.4971 59.0566 100.575 59.8286 102.007 59.8286ZM102.466 58.5284C101.729 58.5284 101.216 58.1909 101.216 57.5408C101.216 56.8907 101.807 56.5782 102.601 56.4656C103.063 56.4031 103.991 56.2875 104.223 56.1V56.9845C104.223 57.8314 103.532 58.5378 102.466 58.5378V58.5284Z" fill="#333333"/>
<path d="M109.93 49.6804H108.161V59.6817H109.93V49.6804Z" fill="#333333"/>
<path d="M116.065 59.6879H117.878V55.4343H122.038V53.9153H117.878V51.1994H122.478V49.6804H116.065V59.6879Z" fill="#333333"/>
<path d="M127.185 59.8286C129.373 59.8286 130.782 58.2659 130.782 55.9563C130.782 53.6466 129.385 52.0776 127.185 52.0776C124.985 52.0776 123.591 53.6403 123.591 55.9563C123.591 58.2722 124.988 59.8286 127.185 59.8286ZM127.185 58.4097C125.966 58.4097 125.372 57.3252 125.372 55.9531C125.372 54.5811 125.966 53.4809 127.185 53.4809C128.404 53.4809 128.976 54.578 128.976 55.9531C128.976 57.3283 128.395 58.4159 127.198 58.4159L127.185 58.4097Z" fill="#333333"/>
<path d="M137.48 56.5312C137.496 56.7503 137.467 56.9704 137.393 57.1775C137.32 57.3847 137.205 57.5745 137.055 57.735C136.905 57.8955 136.724 58.0233 136.522 58.1104C136.32 58.1974 136.103 58.2418 135.883 58.2408C135.033 58.2408 134.467 57.6407 134.467 56.6781V52.1713H132.698V56.95C132.698 58.7534 133.723 59.7629 135.199 59.7629C135.677 59.7871 136.15 59.6624 136.554 59.406C136.959 59.1497 137.273 58.7742 137.455 58.3315H137.533V59.666H139.249V52.165H137.48V56.5312Z" fill="#333333"/>
<path d="M143.249 55.2906C143.249 54.203 143.906 53.5779 144.837 53.5779C145.769 53.5779 146.3 54.1811 146.3 55.1812V59.688H148.069V54.9093C148.069 53.1091 147.047 52.0964 145.497 52.0964C144.375 52.0964 143.603 52.634 143.259 53.4685H143.171V52.1933H141.48V59.6943H143.249V55.2906Z" fill="#333333"/>
<path d="M153.063 59.8286C153.512 59.8473 153.956 59.7322 154.339 59.4979C154.721 59.2636 155.026 58.9207 155.213 58.5128H155.323V59.6973H157.061V49.696H155.288V53.4465H155.213C155.034 53.0324 154.733 52.6827 154.35 52.4438C153.967 52.2049 153.52 52.0881 153.069 52.1089C151.335 52.1089 149.972 53.4684 149.972 55.9687C149.972 58.469 151.294 59.8286 153.063 59.8286ZM153.557 58.3784C152.391 58.3784 151.776 57.3501 151.776 55.9437C151.776 54.5373 152.379 53.5434 153.557 53.5434C154.735 53.5434 155.323 54.481 155.323 55.9437C155.323 57.4064 154.685 58.369 153.557 58.369V58.3784Z" fill="#333333"/>
<path d="M161.518 59.8286C162.696 59.8286 163.393 59.2754 163.724 58.6472H163.78V59.6786H165.481V54.6529C165.481 52.6714 163.865 52.0745 162.433 52.0745C160.871 52.0745 159.642 52.7777 159.252 54.1466L160.902 54.381C161.08 53.8684 161.577 53.4434 162.443 53.4434C163.308 53.4434 163.712 53.8622 163.712 54.6029V54.631C163.712 55.1405 163.18 55.1624 161.855 55.3061C160.399 55.4624 159.008 55.8968 159.008 57.5877C159.008 59.0566 160.086 59.8286 161.518 59.8286ZM161.977 58.5284C161.239 58.5284 160.727 58.1909 160.727 57.5408C160.727 56.8907 161.317 56.5782 162.108 56.4656C162.571 56.4031 163.502 56.2875 163.73 56.1V56.9845C163.718 57.8314 163.043 58.5378 161.977 58.5378V58.5284Z" fill="#333333"/>
<path d="M171.419 52.1806H169.937V50.3835H168.168V52.1806H167.105V53.5496H168.171V57.722C168.171 59.1347 169.187 59.8285 170.518 59.7879C170.872 59.7834 171.223 59.7244 171.559 59.6128L171.247 58.2314C171.078 58.2751 170.905 58.2982 170.731 58.3002C170.284 58.3002 169.928 58.1439 169.928 57.4282V53.5496H171.419V52.1806Z" fill="#333333"/>
<path d="M173.313 59.6878H175.082V52.1868H173.313V59.6878ZM174.204 51.1148C174.466 51.1224 174.72 51.0262 174.911 50.8471C175.103 50.6679 175.216 50.4204 175.226 50.1584C175.217 49.8956 175.104 49.647 174.913 49.4667C174.721 49.2864 174.466 49.1891 174.204 49.1958C173.94 49.1874 173.683 49.284 173.49 49.4645C173.298 49.645 173.184 49.8945 173.175 50.1584C173.185 50.4215 173.299 50.67 173.492 50.8493C173.684 51.0286 173.94 51.1241 174.204 51.1148Z" fill="#333333"/>
<path d="M180.589 59.8286C182.776 59.8286 184.186 58.2659 184.186 55.9563C184.186 53.6466 182.786 52.0776 180.589 52.0776C178.391 52.0776 176.991 53.6403 176.991 55.9563C176.991 58.2722 178.388 59.8286 180.589 59.8286ZM180.589 58.4097C179.373 58.4097 178.776 57.3252 178.776 55.9531C178.776 54.5811 179.373 53.4809 180.589 53.4809C181.804 53.4809 182.383 54.578 182.383 55.9531C182.383 57.3283 181.795 58.4159 180.598 58.4159L180.589 58.4097Z" fill="#333333"/>
<path d="M187.868 55.2906C187.868 54.203 188.524 53.5779 189.455 53.5779C190.387 53.5779 190.918 54.1811 190.918 55.1812V59.688H192.671V54.9093C192.671 53.1091 191.652 52.0964 190.102 52.0964C188.98 52.0964 188.205 52.634 187.864 53.4685H187.777V52.1933H186.108V59.6943H187.877L187.868 55.2906Z" fill="#333333"/>
<path d="M80.1126 25.7216H84.7664C84.6991 21.6284 81.3349 18.8025 76.2213 18.8025C71.1861 18.8025 67.4967 21.5836 67.5191 25.7552C67.5079 29.1419 69.8965 31.0819 73.7766 32.0127L76.2773 32.6407C78.7781 33.2462 80.1686 33.9639 80.1799 35.5115C80.1686 37.1936 78.5762 38.3374 76.1091 38.3374C73.586 38.3374 71.7693 37.1712 71.6123 34.8723H66.9136C67.0369 39.8401 70.5918 42.4082 76.1652 42.4082C81.7723 42.4082 85.0692 39.728 85.0804 35.5227C85.0692 31.6987 82.1872 29.669 78.195 28.7718L76.1316 28.2784C74.1355 27.8186 72.4646 27.0785 72.4982 25.43C72.4982 23.9498 73.8102 22.862 76.1876 22.862C78.509 22.862 79.9331 23.9161 80.1126 25.7216Z" fill="#333333"/>
<path d="M91.7808 42.083L93.4854 36.846H101.773L103.477 42.083H108.68L100.763 19.1165H94.5059L86.5775 42.083H91.7808ZM94.7189 33.0556L97.5449 24.3647H97.7243L100.55 33.0556H94.7189Z" fill="#333333"/>
<path d="M107.733 23.1199H114.764V42.083H119.564V23.1199H126.595V19.1165H107.733V23.1199Z" fill="#333333"/>
<path d="M143.887 19.1165V33.6163C143.887 36.2404 142.048 38.1356 139.222 38.1356C136.407 38.1356 134.557 36.2404 134.557 33.6163V19.1165H129.701V34.0312C129.701 39.0551 133.492 42.4082 139.222 42.4082C144.93 42.4082 148.743 39.0551 148.743 34.0312V19.1165H143.887Z" fill="#333333"/>
<path d="M152.738 42.083H157.594V33.9415H161.137L165.488 42.083H170.849L165.97 33.1565C168.583 32.0351 170.03 29.7587 170.03 26.6187C170.03 22.0546 167.013 19.1165 161.799 19.1165H152.738V42.083ZM157.594 30.039V23.0863H160.868C163.672 23.0863 165.029 24.331 165.029 26.6187C165.029 28.8952 163.672 30.039 160.89 30.039H157.594Z" fill="#333333"/>
<path d="M192.671 19.1165H187.838V33.5602H187.636L177.723 19.1165H173.462V42.083H178.317V27.628H178.485L188.477 42.083H192.671V19.1165Z" fill="#333333"/>
</svg>
