<svg width="26" height="26" viewBox="0 0 26 26" fill="none" xmlns="http://www.w3.org/2000/svg">
<path d="M0 16.471C0 17.1606 0.273928 17.8219 0.761522 18.3095C1.24912 18.7971 1.91044 19.071 2.6 19.071C3.28956 19.071 3.95088 18.7971 4.43848 18.3095C4.92607 17.8219 5.2 17.1606 5.2 16.471V13.871H2.6C1.91044 13.871 1.24912 14.1449 0.761522 14.6325C0.273928 15.1201 0 15.7814 0 16.471ZM16.432 12.129C17.1216 12.129 17.7829 11.8551 18.2705 11.3675C18.7581 10.8799 19.032 10.2186 19.032 9.529V2.6C19.032 1.91044 18.7581 1.24912 18.2705 0.761522C17.7829 0.273928 17.1216 0 16.432 0C15.7424 0 15.0811 0.273928 14.5935 0.761522C14.1059 1.24912 13.832 1.91044 13.832 2.6V9.529C13.832 9.87263 13.9001 10.2129 14.0324 10.53C14.1647 10.8472 14.3585 11.135 14.6027 11.3767C14.8469 11.6185 15.1366 11.8095 15.455 11.9386C15.7735 12.0677 16.1144 12.1324 16.458 12.129H16.432ZM25.948 9.529C25.948 8.83944 25.6741 8.17812 25.1865 7.69052C24.6989 7.20293 24.0376 6.929 23.348 6.929C22.6584 6.929 21.9971 7.20293 21.5095 7.69052C21.0219 8.17812 20.748 8.83944 20.748 9.529V12.129H23.348C23.6938 12.1359 24.0375 12.0738 24.359 11.9462C24.6804 11.8187 24.9732 11.6282 25.2202 11.3861C25.4672 11.144 25.6633 10.855 25.7972 10.5361C25.9311 10.2173 26.0001 9.87486 26 9.529H25.948ZM9.542 13.871C8.85244 13.871 8.19112 14.1449 7.70352 14.6325C7.21593 15.1201 6.942 15.7814 6.942 16.471V23.4C6.942 24.0896 7.21593 24.7509 7.70352 25.2385C8.19112 25.7261 8.85244 26 9.542 26C10.2316 26 10.8929 25.7261 11.3805 25.2385C11.8681 24.7509 12.142 24.0896 12.142 23.4V16.471C12.142 15.7814 11.8681 15.1201 11.3805 14.6325C10.8929 14.1449 10.2316 13.871 9.542 13.871ZM16.458 20.8H13.858V23.4C13.858 23.9142 14.0105 24.4169 14.2962 24.8445C14.5819 25.272 14.9879 25.6053 15.463 25.8021C15.9381 25.9989 16.4609 26.0504 16.9652 25.95C17.4696 25.8497 17.9329 25.6021 18.2965 25.2385C18.6601 24.8749 18.9077 24.4116 19.008 23.9072C19.1084 23.4029 19.0569 22.8801 18.8601 22.405C18.6633 21.9299 18.33 21.5239 17.9025 21.2382C17.4749 20.9525 16.9722 20.8 16.458 20.8ZM23.4 13.871H16.458C15.7684 13.871 15.1071 14.1449 14.6195 14.6325C14.1319 15.1201 13.858 15.7814 13.858 16.471C13.858 17.1606 14.1319 17.8219 14.6195 18.3095C15.1071 18.7971 15.7684 19.071 16.458 19.071H23.4C24.0896 19.071 24.7509 18.7971 25.2385 18.3095C25.7261 17.8219 26 17.1606 26 16.471C26 15.7814 25.7261 15.1201 25.2385 14.6325C24.7509 14.1449 24.0896 13.871 23.4 13.871ZM9.542 6.929H2.6C1.91044 6.929 1.24912 7.20293 0.761522 7.69052C0.273928 8.17812 0 8.83944 0 9.529C0 10.2186 0.273928 10.8799 0.761522 11.3675C1.24912 11.8551 1.91044 12.129 2.6 12.129H9.542C10.2316 12.129 10.8929 11.8551 11.3805 11.3675C11.8681 10.8799 12.142 10.2186 12.142 9.529C12.142 8.83944 11.8681 8.17812 11.3805 7.69052C10.8929 7.20293 10.2316 6.929 9.542 6.929ZM9.542 0C8.85244 0 8.19112 0.273928 7.70352 0.761522C7.21593 1.24912 6.942 1.91044 6.942 2.6C6.942 3.28956 7.21593 3.95088 7.70352 4.43848C8.19112 4.92607 8.85244 5.2 9.542 5.2H12.142V2.6C12.142 1.91044 11.8681 1.24912 11.3805 0.761522C10.8929 0.273928 10.2316 0 9.542 0Z" fill="#014737"/>
</svg>
