<svg width="30" height="19" viewBox="0 0 30 19" fill="none" xmlns="http://www.w3.org/2000/svg">
<path d="M29.9931 6.48019C30.0605 4.77881 29.6339 3.09016 28.753 1.57103C28.1553 0.947696 27.3258 0.527043 26.409 0.382372C22.6171 0.0822653 18.8095 -0.0407384 15.0026 0.0138874C11.2095 -0.0432177 7.41558 0.0758168 3.637 0.370485C2.88995 0.489014 2.19861 0.794648 1.64735 1.25009C0.420847 2.23668 0.284569 3.92457 0.148292 5.35097C-0.0494306 7.91557 -0.0494306 10.4889 0.148292 13.0535C0.187717 13.8563 0.324763 14.6532 0.557125 15.4308C0.721441 16.0311 1.05389 16.5866 1.5247 17.0474C2.07971 17.5269 2.78715 17.85 3.55523 17.9745C6.49326 18.2908 9.45362 18.4219 12.4133 18.3668C17.183 18.4262 21.3667 18.3668 26.3136 18.034C27.1005 17.917 27.8279 17.5936 28.3986 17.1068C28.7802 16.7739 29.0652 16.3664 29.2299 15.9181C29.7173 14.6137 29.9567 13.2485 29.9386 11.8767C29.9931 11.2111 29.9931 7.19339 29.9931 6.48019ZM11.9227 12.5899V5.2321L19.9903 8.92883C17.7281 10.0224 14.7436 11.2586 11.9227 12.5899Z" fill="#014737"/>
</svg>
